<mxfile host="65bd71144e">
    <diagram id="IznB70M2hFOkaETuySfl" name="Page-1">
        <mxGraphModel dx="761" dy="524" grid="1" gridSize="10" guides="1" tooltips="1" connect="1" arrows="1" fold="1" page="1" pageScale="1" pageWidth="827" pageHeight="1169" math="0" shadow="0">
            <root>
                <mxCell id="0"/>
                <mxCell id="1" parent="0"/>
                <mxCell id="2" value="" style="shape=image;verticalLabelPosition=bottom;labelBackgroundColor=#ffffff;verticalAlign=top;aspect=fixed;imageAspect=0;image=data:image/png,iVBORw0KGgoAAAANSUhEUgAAAkIAAALHCAYAAABi2i1rAAAABHNCSVQICAgIfAhkiAAAABl0RVh0U29mdHdhcmUAZ25vbWUtc2NyZWVuc2hvdO8Dvz4AAAApdEVYdENyZWF0aW9uIFRpbWUATW9uIDIyIE5vdiAyMDIxIDA0OjUxOjUzIFBNf42FzQAAIABJREFUeJzs3Xl8Dff+x/HXzJwl52RfiC3WEIJL7aqlRVFbi9a9damlu7ZU6a6LLpSWVtWv7e2i9KJ1WxStrnRBq1RrF0uIJUT25JzkrDO/PxLEVgkh9Hyej8c8HpLMme9nJkfmfb7znfkqgIEQQgghRABSK7oAIYQQQoiKIkFICCGEEAFLgpAQQgghApYEISGEEEIELAlCQgghhAhYEoSEEEIIEbAkCAkhhBAiYEkQEkIIIUTAkiAkhBBCiIAlQUgIIYQQAUuCkBBCCCEClgQhIYQQQgQsCUJCCCGECFim6NlhFV2DOIvMoXkVXYIQQgjxt2aSk+3lSQKqEEIIcfHJpTEhhBBCBCwJQkIIIYQIWBKEhBBCCBGwJAgJIYQQImBJEBJCCCFEwJIgJIQQQoiAJUFICCGEEAFLgpAQQgghApYEISGEEEIELAlCQgghhAhYEoSEEEIIEbAkCAkhhBAiYEkQEkIIIUTAkiAkhBBCiIAlQUgIIYQQAUuCkBBCCCEClgQhIYQQQgQsCUJCCCGECFgShIQQQggRsCQICSGEECJgSRASQgghRMCSICSEEEKIgCVBSAghhBABS4KQEEIIIQKWBCEhhBBCBCwJQkIIIYQIWBKEhBBCCBGwJAgJIYQQImBJEBJCCCFEwJIgJIQQQoiAJUFICCGEEAFLgpAQQgghApYEISGEEEIELAlCQgghhAhYEoSEEEIIEbAkCAkhhBAiYEkQEkIIIUTAkiAkhBBCiIAlQUgIIYQQAUuCkBBCCCEClgQhIYQQQgQsCUJCCCGECFgShIQQQggRsBTAqOgihBBCCCEqgvQICSGEECJgSRASQgghRMCSICSEEEKIgCVBSAghhBABS4KQEEIIIQKWBCEhhBBCBCwJQkIIIYQIWBKEhBBCCBGwTBVdwOViwYIFFV2CEEIIcdEMHDiwoku4LEkQKkHeJEIIIf6O5MP+2cmlMSGEEEIELAlCQgghhAhYEoSEEEIIEbAkCAkhhBAiYEkQEkIIIUTAkiAkhBBCiIAlQUgIIYQQAUuCkBBCCCEClgQhIYQQQgQsCUJCCCGECFgShIQQQggRsGSuMVEOVCKb9mPYbdfRuEYUVn8e6Qe2sfy9/+Pb/f5ybalBf3i3L2jFX+etgpveA2+5tgKY4InXoVdI8dd+mPMC/GdfeTckhBCiIkkQulSUYOr3GMrQ3q2pE6GQs28dyz6czVe7HBjnuUlLXHfGjB9O8+xPGPfkIg7pZW/LUvUa7nj0Hhr/+RKjZ+/gRGzRqNSiH//qew3/qFeZYApIT/6Dbz+ewxfb80/ajhLanuFjbqH+zk/54JUtZPqDCI8JJidH52LwH4SHpkKKDobnIoQgAB+88SS8o4BWHV57+GI0IoQQoqJJELokFGKue4DHb69L8uIPeGUnJPQczO2P30/ho1P4IbPsUUir2pnRT95CLd17SrgpXVtaaB3a3diP/j1bU82qkHVaCzp+i5mCzUv4z8KjeOxxtOkzkMEPq6SNnsG6ghNrqpVrEmfN4JdFi1mTVL49QGekQ14uZF2cnHWcMw+cgBYG/vNNq0IIIS5rEoQuBa0WXXo3g7UzeGPBL+QbsHG3n2qvP0CvzjX5+X8p6FHtGfXSA8Rvmsb4t38n1wAlvDX3TRxN/d8m8dScrRQUn4wVeyNuG/NPQr55hfejxvBw/bK15UejRvc7ua3pIb6Z8QaRgx+kzWlFG2T9Op/3j3+9hW3eelw9ria1YlTW7ddBS2T4jGe4MaZoqFn1F+bTGwAfOz8aw9NL04pDmonopt25pe91NI+vRoRVx5V7lB3LZvDqF/so1+ikQZuecOd1EB8Gmfth6UKYu5UT7SjQtAuM6ASNYkHPhTXfwoxvIVcCjxBCBBQJQpeAEtaABlUMdi7ZQnCXx3hloJUlL0znz90GrRLqE6qkkJP1K+/NTOCFJ+5j5O6nmfKdi3Yj7qS9YykTPj4RglAiaXfnA7Q7MIunF++h2vDzaMvwk/LZeB781MDQ6nHb4HPtgUpQpYbc0LUJ2sEf2Hi4uCvGv5uFEx7mu7p9ePzBf7Bpxsss268DBu6cjOIQpBDZ/j6eH9UWfdNXLHn/Ew7luDGHV8F2NJ3y7tS5aiC83Am+XwjvHoJ6HeDOMRDxKryxo2idxH4w7Xr4ciF8sA8iGsL9t8J4Fzz2E+VekxBCiMuXBKFLQI2IJEIpICnbgz2xMuGhFirZ3WzMdqHUiyRchRy/gXPLXN74tB4Thozmzhr5tGqWxqfPLGS3+9iWFKKuGcGw+I289eRasg2VaufVFmAYpRqbpAR3ZNxbI2llVSB/K/MmLWbX8UE5HnLTUnGEOvAZPhzpqRw6dEr/jimBvoOuxr7lAx6d/C3px1PG5vM6ln9ZawQMvg52L4GXvynqAVq3A8xVYWgvmJsEWaEwrBv8Nhte/4WiY7AXzHXh6ash5mc4Kr1CQggRMCQIXVJ+khc8zQPfquRk+mh6/ak/97Lv8zeZmziZO3rUZM/Hj7Js/4mhwEpoK24bVJ+tsx9lo+NcZ+tztVU6RsF6PnjqSZZVqkXzbgO49akn4IUX+Xxv6YYoK9H1qR+ts3Phr2Rc5K4WUw2ob4Kvd5S4DOaHDTvgjvZQR4O8OGhohfA7YMUdJV6sgpoOMSocvQTDnIQQQlweJAhdAnpONjmGnchIK4ruJDMTUEKJjAzCyM0ht0RAUKMb8o+aJgoK/MS1u4a6X37MruIeIVvz62gfFYH24Fu0fbDoe4pmQlMG8sqsRrz/0CRWlKGtUjEKyDyQTOaBZLZvTiPo9ae5sUsCX7y3BV/p9h4DMIxL082ilGYFHb54Bz45ePKPDB+kSQgSQoiAIkHoEjDydrHziMINzZsS/NOvOAxQgpvQLF4h9aud5B/LCJY63DRqOA1T5vD0LA+3PX8XDwzezpMfbMRpQOH6D3jk4XklnoKpEt//ae6pvZpXpi1jZ66BoZSyrfPbEwwdVLX0z+E0MpNJzla5tm1ron9aeVF7hXwHYacPmjUEbU9xr5AGLRqC7wDs9Rets8sHjWvCkXXgPtdGhRBC/K1JELoU/Pv4ftlGut09lAdTNb7cCQ16DqYtG/nPyv3Fl3GCaDjwfgbE/M6Mx7/lYC68+0EzJo+6m8F/PM5/NuRjFGZy+FDJDWtEOP0Y3jyOHs7EqQOUpi3AHE6VKmGY1VjCTApaaCxxcU48jqMcznZjKBE079mFylnJpOa6UWyVaNCpH12i01mxZlcpe4MA3w6WLfiddvfdwbOP1eDLn7ZyMNeLZoukMsl8v+5gud01ZuTAf3+AqX3gCR98mwp1r4ahcbDkVcg0gBz48Dt4rSdMtcPiTZDth+gqkPcH/JpZTsUIIYS4IkgQuiQMMn6YyctBQxnW524evRly9/3GRy/P5oeMoi4aS/1+3NnDzurXPuS34nu4c36dw7xrXuWe2/vx49Y57ChV98W52wLQ4nry6Ev9qHHsEc2x9zOlo0H2ty9y/7ub8SlBBFeO5/oeN1IjJhjVk8fRvVtY9OrHLN1SWKZ9T/9xOuNze3JLn47cfHcPwq0K7tw0kn+azZr1BznncKcy+GMBPOGEu7vDy2GQfQD+Ox0+2nFinc2fwuhMGHE9jOsENh3SD8PHSYAEISGECDiGLBgLFiyo8BpkOffSoD/Giucx6qmXrk0tDmP2uxh31674/ZdFFllkOZ9FznFnX6RHSFx5VAgLh6jiKTayy9JBVQbBYWBVQAsF7ZyjsIUQQlyJJAiJK45WA2a8VvTviznp6qiJJ0+6+lN5tyGEEKLCSRASV5SdC6HTwkvQkA8mPQCTLkFTQgghKk7p74MWQgghhPibkSAkhBBCiIAlQUgIIYQQAUvGCImAFW0K56GgEFqoGkHoHPG7+J8rg8V/82k27KZI3rIHU+A+yoNuT+kfjimEEH9DEoQuM2bVxr+sYfQ0W6mCQZbu5mdPDu95PDgAMHFtUCTDzUHUUSHH72K5O5tZXh9eQFFsPBQcSUfVRKRikKd7+dObzxy3k93GiXYqW2JZYAvCfEr7mZ40BhS6SnUXlqqG8kZIJGb3YUa6vcVPiDZxa3BV7iaXO5x57FdsPBISTXdVIwgDt+EnxV/IQlcOX/iL5iErbT1nW6fQm86NBQVlunNMUYIZY4+gsT+HaQUujqISpahkXuSJYS8HNtVMNUXDo2qY4KIGoSA1mDts4XTXTATjY4Mnh2muAg6XaSsqiZZIRlvtNFAh01/AJ4XZfFri/VNWVi2UF+xRtDVyGOrIZd95tGVVgxkbHM1V3jRuc7lLHEeFqqYw7rIG00YzEVIcshe7s/jEd2w7QYwJjeWWM/TJ63oe9+dnswkAE52K/7/XVhXydRcr3Tm87fFQcJ77LoQ4mQShy4imhvBCSDRX6U7mudLZpivEaFaaK0rxSV6lnS2WF8x+PnWlM82vUMcSzkh7LJHOw0zx6YBGnGYi1XWUp3xQWbNxszWat01mxjpz2HjSX/NCZjiy+a3Ed3yGr9QnRl13MMMTwlvWCK73pPOdAdHmSIZqPuY789kPKGjEqip73GlM9erYFAvXWCN4NNgEjqMsOyl4lKae09fRDX+ZT+aqaqaO4mOFK4/v/ed7Or0yZXoyGOo34dM9uC5iO6oazPjgaOr5c5jkLCRdsdI/KJrJQX7udLnxlHI7sZYYXrVZ2OHO4gkfNLFG8kCwhtNxlC/PI7ia1BAm2MOJxzgt3JSmLU2xcL01nGEWGzUVhaOntWDgUxQcvjymuH24FDOdrBHcb48iNT+DnwwADx8XHOGbEq9SlCDutocT63ORUvQdrgqKZYLFx9zCo7yoQx1zBA/ZKqHpqbziC6z3rRAXiwShcqPRwRbLeDOsKEzjVa+/jJ9WNToHRdLecPCYM5Nfj73YV8Dy4n+qagi3W1R+LzzC/3n86MCWQi+aWo3R1hA+8uUd/6Sdr3vY5tfZ5nfxs8/H1JBIRluc3On2cuLcYZDm95J83vtskOTOZpm5MndYraxyq9wRZCPPk8a8U8KFQ/eyy+/HwMNmXaFRaCRdTBpfeEoep9LUc6E1n/xJvHZITf5VvN0trlTuc/vQAUWxcpM1lOtMVmqpKpGKgm7o/OlKY5zn2DHUaGON5C6LjXgVMv2FLHFlM9fnxw9oWhiTbGE0V1U8houffQYNzUFUMzwsKczgLZ+f0pzHS7sdRbHzaHAk16kaIQrk6G5+dGcz0+OhEFCUEKaGRdO2eLsebzo9CgpOmXhWpW1QDCPMZmooGiGKQbbfxZfubD7wlj4kg0JzawQdjDzuLcgjCQAvM902FtlCaO5ynxRmz85CH0sQeDOY4CogF1jrh1qh0fzTYuFrlwdDtfNscAyJvnTuLiwku/hYPBkSQ6L3KPe4XMW9qUVh4x57BKGedKaqMbykla0tP1DHEsU9Ji+LCjKIscXQ8QxVp3tzmHb8Kxd/YKWr3Uw9FX7yA+gc9rtL9IxpdLSH8g8jn9GuQnIBMNPWrJHuyWCWt6jHabc/h4bmWFqbzGg+T7nN0ydEIJPB0uXGRAuTmTDFTBvNhHbuF5xEUYLoalLY7cnjt7MkqGDNSgIe1px0AvWxxutG0YJodpanH/t1J0t8BnXNdmqWsa5zMlzMchUQbIlknC2SG3Eyw+3+y54GwzAoAMwoXPoHNrv50JnKkAIHh/GxtCCVQfmpDMo/zDOeE8dVUYLobbUT7M9jRkE6o51HebQgi/k+X/E6KlcFxTLZaibFk8mjzkw+1S3cHhzL/aai/1aqYuEfmo8FBWlM8ZnoadZYU3CUqT6NW21hJJay4tJuxzA8fOfO4knnEe50pPMfn0p3Wwwjih+LbRgFvJyfyqD8NGadtRdMpaYWREOjgGkFRxnrzGKJYWGwLZr+ZfprYaWLWSPJ62AXKomWaGaG1mChzYZNMVGjlNtSVCtNNdjicxFqqczisFhuVV386odamoUIQNcLeKXQgccSzVMWEyY0utiiuN7I4yX3iRAEGtfborlOz+JZ9+mXlkrTFsBu9xEGOjKZ5/OVqlfLpgZxizkIzV/Ib2dJLkGmMEaaYaUrl03HfzV+DupQyWSnUfF/FLNqpZGis8PnkxAkRDmRHqFy42ZuYRaFJljvdp/XpZpqisF2v++svQSRqoZm+Eg7ZYVsw49bMROjwJm7oXQO6n4Uk4kqUGI8hJ0Xw2uVWK+AZ/OKLnGVRbY3h/nWatxvhvWFaaz9i9ebFTPXBoXSwnDzlu/UfS1NPXaeL7mO4WKGI40Fpb5EYpCte8lTdHwUjaFKOetrDZK9Dlac4RKEotoZYjGx232YScXjo9b5vJhDqjLUameuz0EegOFnn9/NL7hxmlVS/G5W4maU2UycAltKe6xLtR0fv3tPvPOSXAotzDE0NWmofh86Okd1HdDJOke7uu5mlc+FG9igq1wVGkl7k8b/PKXr6VRVKwmKn61+P2HmaCbbLKwpTGc6Ybxu004b53XW7SgaUehs1g2CTSYiFYUq6PymG6BpRFI0T67Dl81zLgszgyoxTvNzjcnHLGcu20oUW8kcxWjNxSRHARkoxJ1nW3CW/2anUJRgJoXGcI0ChuHibWcuW8+4ponu1hBifLl84C05FsnP14WZXBUczeshVn7yeYk12TDc6czwBcBgNiEuEQlC5SjLl897FzDyVOdcf2DLu//ExUxHNutKVHD4PIYdaKqdDqpBnqHQyGyniief1JPWUGhjq85Km4IG+PVCPizIZNFpf8tLU08hM08aI2RUyABnk2qlvuLnq5M+mfvY4PNzp8VCXeDP0151ogdM50J+m2fejqpYuSUogl4mM7EKFBgGQQocucD3ja77SDUgXlFRKF0Q0lSNSvhJ1xXaBNkJ9mXxtseNw6TjK3N/aZEk1xFu9UCWDq1O+6nBLncGb5mqMtZiZrvrMB+X6PVSFDv3BFnZ4Dr8l0G9dG2VjmEUMs15mPmKhXbWcO4IjgVnGnNP6Y1TtWD6m2BVgYODp2zDppqpho9fPU62KhYqo9LAHEJrr5sVkoWEKBcShC4Tuu7jqKFQW9NQT+spKZKt+/ErGrEqlFwhUtGwGn4yzvoHXqWGqoHuI+3kVjns97DrgirX6GELJ8Gfy70ueDQ4nAfMBYz3+k8ai7TZlcYUr0EtawzPmHT2+s80PqY09VzoGKHyU9Z44T/D4NzzcebtmLjZXpmRqosPXBms1XUUJYg77RFEnWEbZa2j7MFNJQjwoBKpgtPvL3GJqgztGn6yUIlRFRR0jupF245WFTB0sku2qFpprSk4DKhrDqahJ4etxTsabAqms6qh2atz/fFXKJiI4MMwK9Pyj7K0DG2VsnqO+j0cxcNGnw97aGVutVhZcMpdmQnmYGobBbzlO/XOtCDutIVh8hzmmeJex8/cTh4MqcxYawG/FBZykeYbFiKgyBihcmRVg+hqDqLGeXwANwwXq/3Q0BJG87O83ul3sRMLV5u0Er84E1ebrRi6q8TYgpOpajB9TAp7vYXsL3tpfynEFMEdJj+fu/LZ48/nLY/B1UERtD9lHwoNHym6hx9dGXxs2BkVZCOsnGu5lHy6m52GRnNTyfFgJlqYNLx+z2lBzevLpE9eOt9cYBI6+3bMNNEUkj05/NfrIsnvYYfPw5EztmfgAhRFI+RMPy4XOm4UbIpBngE2RTmvT12G7mazHxqbgggt/p6iBNFWgxS/m5xjKyoW/m2Popk/m3sdWaxTw3g6yHb8NQW+LIbmp3J7/mGGFi+TvX58/jyecGSxwihDW+fFQOdMf3AtdDCZcHgL+POU35WqmqmtGhzUT/Q6GoabjX6DYNV0EX93QgQWCULlxsK/7ZV5zh7LVKv1PP7o+1juymWbEsrE4BiGW+y0M9noZAnnIWsQIRTdrv6RR6dlUAz3mYNI1Gz0tsVwj8nPN27HSZejQlULDTUr7S0RTAqOpKmez3TPqXeZKMRqZuqWWOqoGvZS12xmQFAwwb684ssQBps8uaxXgrnTYjnzMTA8zHM50C2RDNFOTXwXWs+lY+gFfOTxEW+txBNWO+1MdgbZKzFU87HEXXB8LMml4yXJD3Us4QwwW0nQLDQyWah8xlCtk+z3oWghjLDYaGcOZoDZfJ4XrM7Mr/s4gok4RedPrxtMIfRQi4op2+cED0s9LhRzFM9ag2lrCma4PYpOuFhw/P2s8A9rDMOVQqYU5LNPd/BKYQE2SxT3m1QUinqWDuheUo4vPo4YBqBzWPcV91aVpi0AjRrF788IwKSaqKOZqakeu2Sp0c4aTj+zjZamIFqZQxhuj6av6mel13NSb5CqWmmmwQ6/55S794rGaf3hV7jWGsXNJgu1VQutLVGMMCkk+1wV8B4T4u9JLo2VG53Duo6haYQq6nmNynD7cxnn9DHMGkbvoBiGK+DUPaz3erADDnTWFKYxwYhiWFAlblUh1+9mSUEG7xcPslTwc9Dvp6O1Mu8EGeTqXjZ6M7nP7WTXab0DNh4MsZ30HcNw8lheBqtLUW+YOZxbNB9LHU4yjh0F3clcbzivW8O41pPBD2d4ndOXxzxfMCODQljozC9xC/GF1XNp6fzhSuNxI4p7LNG8rEK238VcZzZzKmQgq4+FhemEBoUz0FaZ+xUFn6GTZ3j4VT+9W2inO4tZWhQDgyrRCz87PFl87fWe1+WrM9F1N3/qCp3NVrIKs3jdVInRoXGMRkExCsrUTpong3FE8pA1iskqZPkLmenMOv5cH6sWzjiLwneFWcXP6IFMbzZve6vxmC2cLx3ZZ+0tLWtbAJoWyuSQcGof+4Yaw4fmkg//VAhRrfSyhFJb1TAZfg75Xcxx5jDvlPeGppqJw8+KMz4c0sN/CzIwBYUz1F6FsQo4dS8bPOnMOOkxGEKIC2XIgrFgwYIL3ka4FmG8F1bdeNSkVvj+yCJLRS+1rVWM78MqGzerRV9bFM2orKqG9TKoTRZZAm0pj3Pc33WRS2PlQqWzrTqfBQeT4U5nptzaKgT7PFnM0a08EBxDf5MJzfCTZyhYK7owIYQoQS6NlQudjZ4M7nJ52GsYFV2MEJcHw8McZxr5QdHcEVydhwHwscCZyhsyPYQQ4jIhQaicZPrdMnhRiFMYhoeFhYdZ7NKIVRT8hp90+bAghLiMSBASQlx0uuE/r4d1CiHExSZjhIQQQggRsCQICSGEECJgSRASQgghRMCSMULiyqFAYmd44AaoHw5ZB2DBx7AwuehhEGVljYUxD0LzzTD4EzhpvtxybksIIcTlSXqExBUj9mp4eSA4f4Wn/g++LoSRo6DHmWYV/QtaCHS5Cd4ZD90qn3nKh/JqSwghxOVNgtAF0hoO4rVPlvPj6p/4ZsEbPPXoFOZ+/SMrl7zD6A7RJw6wVpl2IyYye+kPrFmzkiWzXmRE28rH53cK6TKRFWs/5+FmJTvpVOrdMZdfVkykc3AZirJfRewtr9H4ie9pNWUT7d5Mot3U1SReX/fEST/0Ruo9uYo2ryfRfsZmWj/zEXXbN+L49F8RvWgwcTstBnfBfOx7oV2Jf3ErV93SltOmCbvYVOjVDdgAL3wOv22GWe/Cz8Ct14AGqJHwzCswfxhEFtenhMLjk2HOPyG4+Ht1roe7GsHX78JnR8+vLSGEEH8PEoQukFYpgWZxqcwbdR8T18XS56YYVj03minrK/HPcUNoYgIIpuXoN5k2rA575z3PmDEv8smB+gx/bSajWxYlHOe6H1lfGEu7DvVPnGjVmlzbqS6Fv/3A+oLS16SEtSW2Y1e0ve+xd849bHttCNtnvcShbQdPXNYp2EbGV+PZMX0Am1+7n/27wqg0aAY16piLfp7zJcmz56G3fpn4a2qjKLHEDHyeaOd77FqyFv8lvj6khEGTWNi6GUKvhc+mwoAwWLsXasZDuAJ6Nkx7Hzxt4fGOYFKg8yC43gGTFoGzuObdy+C2l2H+FvCcYT9K05YQQoi/BxkjVB6MTPZu28rqoK04bw5n38Y/+Y4NjOleizgbbA7qxrB+cex6fxAvzN+LH1i7fi+W2nMZMfQG5mxYTEb+r3z/WyETOnUi/p3tJPlBrd2ZrvUdrPpgNXllDh5uCjZ9SuY275l/7E8hd0PK8S8dB62EtZpBWJ2qkLwfMPAlTWHXl01p0n86datmEZV4gINTZ+LwnOdxOgfVYiPIXDxhraHjdRXiKZ6tRA2DKGBLDoQkQEQoxNphXQ5Qu6gHKMsAxw54YSm8MRDGVIMOTeDDybC9ZM3GX4/zKW1bQgghrnwShMqTAQYKigroOgYqqqJgqpdIgvkIX/x+AP+xdf37Wb/+MPf0TKSuaTEZ3lxWL19F/qTOdKn/Lkk7IL5bN+plreCNX5zlXqoS2poqfR+gcsOGWO0q/nwnqlnBY7agcCwouHF+O5aUBkup2ykBx5LepKZepBSERqPB03i6R/HlRD2d5RNGMWu7/7Q1kz6Hf/0I2VnQosPpW9r9FbyTAGM6w45FsODg+Vd1rraEEEJc2SQIlSfDj+7XKdsMAidWdvyylBWZXenavTHvJpvo07MWB5c/zwZ3OdepxBE74j1qx/zCgUWjyD6SixJyLXF3jcVy6qqRrYioZsZX6MXeoi8hK6eRf1GykM6+5dN4fq2luEfIQ2bKiclr9TzIAqIjQNEhPQtQir4mH7JLHHM1ClrXAEch1GkJCd/DtjIcw7K0JYQQ4somY4TKkfeXl+jWcRzLT+nA8e3ZRpK3Ci1axp0Y/6PVpFWrqnh3bif52H3brt/5bMk+qvS4mRt63EKPqM0sXLTj5Nu6y4OWQGjNIArWTOXQhrU4U3fgSN6C+9SJMM2JVB/+LKGHJrJlynPkhN9FfP9rMV2UMTIGzsO72LZ1K1u3bmXrtl0cKThRj5EHW9IgsQmEHhsIbYc2dWD/bsg9tqoFBt0FTQ/AAy/B+kh48pYTrylVJaVtSwghxBVPgtAlYKR/zYeLDlJ/xCSeGdTyIMD2AAAgAElEQVSFq6++gSHPvcyI+IMsmv0tGcdPrH52L/4fG4J78Pgj12H8+DFfpOp/tenzo+/GmerF1vpeqjRtRUhcIiF1G2M9KeHYCev9KjUivyd5zjwKji5kz4Kv0Tq8SK3GEadt0trgFl5490PefPg6Yi9GUNLhi29BaQnj+0CbxjD0TugI/G8Vxy85Nu0Lt0fC1A9gXxpMnQe2jnBv0xK3yZuhejWoUx0iTGAKgdrVoWZE8TqlbEsIIcSVTy6NXRIF/D79fsbmPczIwc8yNcIga/caZo99nVm/n9x9pKd9xUfLhzPjJgfz5vx0HoOkS0Hfx+EPR2Pqfz9VB39ALbsFw5OHL2czORlODECtPZK614WS8d6LZBYX4f1jEiltviR+wEjSd04k7/glMoWI+s2oF2bH1LI9jYJ/JM1R/oWnrYbHrfBgd5jYE7L2w1tvwFdZRT+31oWHO8OKd+DnvKLvZf0O/2kHjwyEr3bAZg9o1WDiU1D72MeASvB+e8j8Af75X/CWoi0hhBB/H4YsGAsWLKjwGq7kRbHVMfo8/b4xf/oQo75W8fXIIosssshyYpFz3NkX6RESF8xUpQU39uxJ93oOfnhzKbvl2pEQQogrhAQhccEMWyw1LLv45PnprErOx6jogoQQQohSkiAkLph/73LeeruiqxBCCCHKTu4aE0IIIUTAkiAkhBBCiIAlQUgUUWvR+e6Hub1dBAE3p6hal+heT1G9UWRFV1LkcqtHCCH+xmSMkChiiqfbsFuJnvEx//01J7AGPKsJxHQbgnnxbA5tz67oai6wHg1Lw3up3fdWwqtWRvNn4zq8lsPzHyEttTxv59Oo888pTBxw7GnpBo4fJnPP/23gLNP8Xlymq7jvnce5/tijwP0HWfTUI8xPllsYhRB/TYKQEH8nwTdS547RhO59g71vr8GtB2OOCsObdxGeUA7oB5bw4kvLOKQbGJ6CiglBAL7NfPjw3cxXFNS4Pjz9+FUVVYkQ4gojQUiIvxElpiF2ayoZX71NRnK5z1J3Or+L/Jwcci5OzioDH4W5uRQCWrhbpkERQpSaBKELpDUcxKsThtCiRjDuQ3/y43oXiV3aUs29g8WTn2TG6kx0AK0y7YY+xH39rqZ+tEFG0moWv/0Gs9cexQ+EdJnIkomNWXb3AKZtPHYCU6l3x0f8998pPNXnSVY4QbE3oO+oh/j39U2IizDjc+aSkfIVrzzwOmucoFa+gRc/nEDjXx9n+As/kWWAEtWJZ2ZPpMnKUQx/7XccBhBUhx4jx3LnjVdR3V7I4W2pmDRIK+sBsF9FbM/bian/D2yRlTDZreDOIG/ZELavTC6+xGbGkjCEuBsGEFGnDhazjt9xgLzvxpK0YhtGRC8aPPoqIdseYPPc7/EaQGhX4h+bTuifI9j02Vr85XmtzhJPTN/xxLVpTZC1EFfKAVQN3MW1Rg7+hYSIV/h95idFtRx/XS8SpjyL750O7NnuBbUKEd2eoOY1nbCHGngP/kDasskc2n7kxKXF0hyfv6ynlLS21JnwEVWjii5U2cYlUQ0AL/kLu7H5u/1F6wUlEnvzE1Rt3gxbiAXdlY03bQnJMyaR4yqxPSWKyH/+l/qtVDLm/JvkTZllPsyl2vfQG6n34FNEV66Epnnwpf9J5rcTSfl1e9Hv/FK/N4QQAUeC0AXSKiXQLC6VeQ9OI6nzM7x8s5PZ40az74ZneHrcEFaufZ1NvmBajn6TaTf7+eat5/m/ZIX4Xndz72sziXhwGNN+d+Jc9yPrCzvTrkN9tI3biz7RqjW5tlNdCn+bzfoCABNN75nCE9cfZNbUh1l1oAAtJIa46j72FxbVox/9jknP/oP3pz/Ns1vuYOziQjo/8jhdcz/i3v8rDkFKBJ0em8Fz12Wx9K3xvHrITM3WNzOsWdn3XwlrS2zHrrBmInuX7sNb6EexxUD6weIwoGJpMZmmw7tjbP+I1I9fozCvECW0FlpG8To5X5I8uwVNRr5MfMqt7FhVSPTA54l2vsfWJeV8olMiifrXLOo3y+To0jHszTBja/Avqtc9toKOJ+co1IjBrIDXFEVQhIonPQM9tBJm0ijI1YEQwvvPpmEHHxlLHmP/ERV721HE3Tcb85sD2LvTUbrjc856Ssm/kYPTe5BW804aDe1Azuy7SD3kBwz0vNTilUyE9ppJ3eYpHPzf3WSnO1FssQTFeHB5TtmeWpvwRvGY7BDRoDbKpswyjxs793sDKNhGxlfjSc/OQFeiCG47ltqDZuBPu5GUZO+lfW8IIQKSBKHyYGSyd9tWVgdtxXlzOPs2/sl3bGBM91rE2WBzUDeG9Ytj1/uDeGH+XvzA2vV7sdSey4ihNzBnw2Iy8n/l+98KmdCpE/HvbCfJD2rtznSt72DVB6uLJ1/ViIwKh9zV/LFuA1uzi65HbFp3UjHkr5vB+HcTefehl3i8Xg4d2x/i3Ts/YGvxJ341thu3dY9i85v3MGnBIXTg13V+Wgy8iujzOgBuCjZ9Sua2M4wQMbWg+s290ZKeZePb83Efv4Sy+qSafUlT2PVlU5r0n07dqllEJR7g4NSZOE49QV+oyD5UbRlN/ueD2PPDAQByduiEdWqNGQAdd8ZhCK+CWVUwtZhEs0Gh7J8wmCPhVbEYqbiy/RDem+rX1KJgeW/2rNyNAeQk7UKNXUb1br04tOsTPMdP0n9xfM5ZT2m58KYn4wvORceLL3MPhUdOvUBkwhwaAc4fyEtah8PhBzaTn3SGzfn/5NBHE9AbKuT89McFDJ7/i30H8KeQuyHl+JeOg1bCWs0grE5VSN7PJX1vCCECktw+X54MMFBQVEDXMVBRFQVTvUQSzEfY8PuBE2MX/PtZv/4w5gaJ1DUBRi6rl68iv1ZnutTXAI34bt2ol7WCZb8cm6HezS/vTeUbpQ9vfr6I/zx/PwOurkXwab9FDztnP8OMTXHcNLAVh2dPZO7uE2cNrU4D6qlH2LzpCBd9aEdkc0Ii/ORv+KpECDoTN85vx5KSXIvYTu1xf/MUqanlf6ZTqjTErh4mPzn1LGsY+DP347VXwxoUTkTTVqhqUyIbxaBG1sCctxeXB5RqTQnWUsnbue9ESND3kbvzEGr1pti08qqnPLnIWf4CGcotJD7/PU2GjaNKYl20Mz4vQce7ey77l/2XvIs00BpACW1N1X/PptkLa2kzdR0tn3yKCLOCaraUeIzDpXlvCCECkwSh8mT40f06Rpk+Pp9Y2fHLUlZkxtG1e2PMlmb06VmLg8s/Z0OJwSKelGU8c9tNDB4/l81qC0ZM+YRFb99Ni/CTz2Zqlea0jTeTn++jXpceJNpKNmlgoKCql+CJQUbxSVQ/90FRIlsRUc2Mr9CLvUVfQiwXox4DUFD+Yt+No7twGdUIqn4d0fU2c+ibjQQ360xIbByk7abwnLmgDG+AUtRTnvS0hex6qRObPnyffKUN1e9eTouHRhMWXAFPj1LiiB3xHrUbFpK5aBRbpw4had5cHO7Tj98leW8IIQKSBKFy5P3lJbp1HMdy58nf9+3ZRpK3Ci1aHnvmCqDVpFWrqnh3buf4zT2u3/lsyT6q9LiZG3rcQo+ozSxctIPT7v3xZbPzpwXMGH8H/f79BnsaDueBvjVO/DKtCQx98RGa73yNO4dNYW3lwUwY1Y6w4nOdb/dWdnir0Lpd3TJefjkPOVtw5GqEXnUD1r96t5kTqT78WUIPTWTLlOfICb+L+P7XYirn87ORugmnvxrhjeqf/cGRjt0UOKoS2vkWQvd9zuGfluCofTPVE+LwpO7Cb4CRuhmnvxphDWqf2I5am/AG1dEPbaGwlLctlaqe8ubPwrnpI1JmDeSPSZMpqHkftdrXPGUlFXP8IOJ6DyYs7CL9mdASCK0ZRMGaqRzasBZn6g4cyVtw+04JQpfovSGECEwShC4BI/1rPlx0kPojJvHMoC5cffUNDHnuZUbEH2TR7G/JOP5338/uxf9jQ3APHn/kOowfP+aL1JLdD1ZaDHmSkbd2oc0/EmmY2Jx27RKpbPaQm+Ms7oew0/yeCdwZ+xOTnvuM5P3LmDhlJbZ+TzKqQzgKYGR8w4cLD1Bn2CtMvqcP17ZpRZsOjYm9GCcW33pSl32P3vg5Gt/3BFVbXU94QgcimvWjSrP44pO/nbDer1Ij8nuS58yj4OhC9iz4Gq3Di9RqHHHaJq0NbuGFdz/kzYevK3vNucs4+HMKtm5vkdB7AJEJ7Qhv0gxLye3oO3EeMhPeJIHctd/hzfuG9F0NiIjXKDiwp+g45y7l0KoU7D3eIL7zjUQk9qLa7W9SvXoKR7/5osT4oHKop9wEEdb1RWp2vJHwuk0JrtWKiEZNsWhufI5T0rvWnOpDniOu5zPEd7vq4oQ0fTfOVC+21vdSpWkrQuISCanbGOtJCads7w0hhCgrGSx9SRTw+/T7GZv3MCMHP8vUCIOs3WuYPfZ1Zv1+8glIT/uKj5YPZ8ZNDubN+al4kHQxxYbJHEar/o9zW9VwrLjIPbyb9bOeZPryLAzA2mQ4j/8zhK+fmMbKrKIXZ654nTdXf8z4MSNYtv41/nQVsOGN+3ko80Hu7vcQL48IRfPkkb73D75OcZbzU6V13GtHszl/GHE39Kf6oNsxWxT0/BQca18iY9Nu9FojqXtdKBnvvUhm8Q57/5hESpsviR8wkvSdE8k7PiREIaJ+M+qF2TG1bE+j4B9Jc5SlYid5i25ne94jxF3zJAk9QlF8eXiO/EbG0aI7vTDycaQko1ddR9rWfDAge/VyPE0SyN9fcHw7uQuHsqPgKWp2nUyjEAPPoR859PYkDhXfMVZu9ZQXxYZiCif82uepGhWOihtfVhK5X48mZV3Gyevq+8jdvofKwQo5JcdBlSd9H4c/HI2p//1UHfwBtewWDE8evpzN5GQUvQ/V2mV5bwghxPkxZMFYsGBBhdcgS+kWxVbH6PP0+8b86UOM+lrF1xOYi2bU+edUY+6UW4yaakXXcvKi1RpovDp3mnFbXa3Ca5FFlstlkXPc2RfpERJXFFOVFtzYsyfd6zn44c2l7JZHCFcsLYjQiAgiiqfYyC2oqEk2TNjCg7EqCmqYlVLetCeEEHJpTFxZDFssNSy7+OT56axKzseo6IICnBrXl2ff7gtU9KSrTRk27eRJV4UQojQUkHMJwIIFCxg4cGBFlyGEEEKUOznHnZ3cNSaEEEKIgCVBSAghhBABS4KQEEIIIQKWBCEhhBBCBCy5a0xcHhRI7AwP3AD1wyHrACz4GBYml3E0vxW69YchbaCqFdIPwKJP4dNdlP8Es2bo2AeGtodaoeA4Ciu/hnfXQIHcgiCEEFcE6RESl4XYq+HlgeD8FZ76P/i6EEaOgh5RZdiIAh3+DY+1gR/mwv1TYVEW3DUKbqpc/jU37w/PXANrPoF7X4IZm6Dz7XBfYvm3JYQQ4uKQHqELFdGLBo++Ssi2B9g893u8BhDalfjHphP65wg2fbYWvwGoVYjo9gQ1r+mEPdTAe/AH0pZN5tD2Iyd6POxXEdvzdmLq/wNbZCVMdiu4M8hbNoTtK5NL3zNSqu2YsSQMIe6GAUTUqYPFrON3HCDvu7EkrdiGUdr9Kg8q9OoGbIAXPoc8A9bthZovwq3XwDdLwIiE8U9Co60wcjZkG6CEwmPjIXED3LcAnEFwY0tIWgKz1hf1ACUdhLoTod81sGQhHHv+YqVGMKwHtKkDURYozIfN38D4b4vWUUJh3MPQMRZCNMhNh5+Ww1troNAoqrlNU0j/FWavBx+wOxUatoRW8aBtPdGWEEKIy5cEoQuV8yXJs1vQZOTLxKfcyo5VhUQPfJ5o53tsXXIsLIQQ3n82DTv4yFjyGPuPqNjbjiLuvtmY3xzA3uK5qZSwtsR27AprJrJ36T68hX4UWwykHyzT5aFzb0fF0mIyTYd3x9j+Eakfv0ZhXiFKaC20jOJ1SrVf5UMJgyaxsPVrCL0WZt0E86fC2r1wTTyEK5CVDdPeh5mj4fG98NRP0GkQXO+AhxaB0wDFCnYNHI4Sl9M8sP0QdK0BdiAfiGkFM+8C/zaYPxf254IlDOwZJy6fGQXw/RfwbRYUKlC/Pdx/OxQcgbf3AAYcSi8KVA1tsKUQzJWgYRgk7ZUQJIQQVwoJQhfMwJc0hV1fNqVJ/+nUrZpFVOIBDk6diePYZJDhval+TS0Klvdmz8rdGEBO0i7U2GVU79aLQ7s+KTFbuZuCTZ+Sue1Cn8/7F9sxtaD6zb3Rkp5l49vzcR8fPLO6bPtVTtQwiAK25EBIAkSEQqwd1uUAtSFSgSwDHDvghaXwxkAYUw06NIEPJ8P24nqMPNhyBG7tCM23wp85EBQJlW1AAZgUQIN/DYDgHXDHDDhytoFDftiw/sSXSQegeRtoWg/UPaAb8M3H0PxBmDoBVm2Eys3BWA4zN5fv8RFCCHHxSBAqF26c344lpcFS6nZKwLGkN6mpJ9KCUq0pwVoq6SVn8db3kbvzEHFtmmLTPsHju4TlRjYnJMJP/ldflQhBZ/LX+3UxJH0O//oRsrOgRYfTf777K3gnAcZ0hh2LYEHJmRR0mD8L4u6Aaa+AroPihUITuNcX9RqpkZAYCVu/gLS/2Hc1FPr3gxsTi0JZQT4EWSDNfGIdW0TRgOy1P8JWE1QyoH4baPUrrMw4+7aFEEJcPmSwdDlRIlsRUc2Mr9CLvUVfQiylfWUF3F5kFCcA/dxtn/9+lZ6eB1lAdAQoOqRngU8p+pr8ovFAx6hR0LoGOAqhTktIsJ68rcIUmPAM9B4HQ56Evi/CXiBpd9E4Hii6/PWXu65A37vh3kRY+Sk8PAWe/gi2u0usY4YRI0BbAROWwcLFMPpZ+AJ4qC/YLvywCCGEuAQkCJUHcyLVhz9L6KGJbJnyHDnhdxHf/9qiSzGAkboZp78aYQ1qoxx7jVqb8AbV0Q9tofBSDyjJ2YIjVyP0qhuw/tU74Bz7VV6MPNiSBolN4NicmYq9aCDz/t2Qeyy0WGDQXdD0ADzwEqyPhCdvOfGakpy5kJoL1w2ARAcsKh48rWfDzhxo3BIqn23fNWhcG/augnnrYefBoiCVVuIqoxoCtcIh9ciJ8UBGIWw6CMFREFzOx0gIIcTFIUHogtkJ6/0qNSK/J3nOPAqOLmTPgq/ROrxIrcYRRavkLuXQqhTsPd4gvvONRCT2otrtb1K9egpHv/mixPigS8S3ntRl36M3fo7G9z1B1VbXE57QgYhm/ajSLL44rJViv0qwNriFF979kDcfvo7YsoYAHb74FpSWML4PtGkMQ++EjsD/Vp0IGk37wu2RMPUD2JcGU+eBrSPc25TjATMoAhrWh65d4cWn4eEGMP89WOU4tu/wyRLwNoHXH4T+baBlQ2hzFdx0FWjF9ew6CLXbQr9mkFATGtaDSiUuJOu58GcqXHMT3JQItapCy04wrBkkby8a0ySEEOLyJ2OELpBaeyR1rwsl470XycwrOvt5/5hESpsviR8wkvSdE8nzOMldOJQdBU9Rs+tkGoUYeA79yKG3J3Fop+McLVwMOu61o9mcP4y4G/pTfdDtmC0Ken4KjrUvkbFpN3qt0uzXse0pRNRvRr0wO6aW7WkU/CNpjrIlgbTV8LgVHuwOE3tC1n546w34Kqvo59a68HBnWPEO/JxX9L2s3+E/7eCRgfDVDtjsgTpdYHpnyEqDzZtg9PewOeeUttbAyDwY2h3+PQSirODKh6Q1sPJPyNNh0fsQcivcMgzus4PfDbk58Fv68UPIvLfAdCsMuQ8esoIzG/74FmZ+dREe3iiEEOKiMWTBWLBgQYXXcCUviq2O0efp943504cY9bWKr0cWWWSRRZYTi5zjzr5Ij5C4YKYqLbixZ0+613Pww5tL2S0P0RFCCHGFkCAkLphhi6WGZRefPD+dVcn5GBVdkBBCCFFKEoTEBfPvXc5bb1d0FUIIIUTZyV1jQgghhAhYEoSEEEIIEbAkCIkial2iez1F9UaRFV2JEEIIcclIEBJF1ARiug0hskpwRVcihBBCXDIShIQQQggRsCQICSGEECJgye3zF0hrOIhXJwyhRY1g3If+5Mf1LhK7tKWaeweLJz/JjNWZRdMtaJVpN/Qh7ut3NfWjDTKSVrP47TeYvfYofiCky0SWTGzMsrsHMG3jsXnSVerd8RH//XcKT/V5khXOUhalRBLaaRxxV3ckJDYKcreS/cNk9q38He+xh/xY4onpO564Nq0JshbiSjmAqsHxCdYjetHg0VcJ2fYAm+d+X/S60K7EPzad0D9HsOmztfjL84FBpakZM5aEIcTdMICIOnWwmHX8jgPkfTeWpBXbMC51zUIIIa540iN0gbRKCTSLS2XeqPuYuC6WPjfFsOq50UxZX4l/jhtCExNAMC1Hv8m0YXXYO+95xox5kU8O1Gf4azMZ3bJoTI5z3Y+sL4ylXYf6RRN/Aqg1ubZTXQp/+4H1BaWtyEZor9kk9kyg8Oen2T5tKLt/PkroTf8hvn21olWUSKL+NYv67SPI+3IM2999liP7HJw0V2rOlyTPnofe+mXir6mNosQSM/B5op3vsWtJeQeKUtSMiqXFZJo+MJZw/WdSPx7F9pn3sGvhR2QkHyx6iOMlrVkIIcTfgfQIlQcjk73btrI6aCvOm8PZt/FPvmMDY7rXIs4Gm4O6MaxfHLveH8QL8/fiB9au34ul9lxGDL2BORsWk5H/K9//VsiETp2If2c7SX5Qa3ema30Hqz5YTV5pT+JhvajRuTo5H9/A3t+KZyxNSUKt9TPxbbpi/WUO7sg+VG0ZTf7ng9jzwwEAcnbohHVqjfnETuFLmsKuL5vSpP906lbNIirxAAenzsThOVPDF6A0NWstqH5zb7SkZ9n49nzcx2c1XV1iQ5ewZiGEEH8LEoTKkwEGCooK6DoGKqqiYKqXSIL5CF/8foDj03D597N+/WHu6ZlIXdNiMry5rF6+ivxJnelS/12SdkB8t27Uy1rBG7+U9poYKNWvIsQahmnwatoNLvF91QwZ1bAo4KnSELt6mKPJqefYmhvnt2NJabCUup0ScCzpTWpq+SeK0tTsjmxOSISf/K++KhGCKq5mIYQQfw8ShMqT4Uf36xhlugRzYmXHL0tZkdmVrt0b826yiT49a3Fw+fNscP/Fy89EP8jRWXeTeviUxODLKQoRhgEoKKpyplefRIlsRUQ1M75CL/YWfQlZOY38i5Erzllz8ff1cx/cS1azEEKIK56MESpH3l9eolvHcSw/pQPHt2cbSd4qtGgZd2L8j1aTVq2q4t35/+zdd3gVVfrA8e/M3JreICQh1IQSZBEQLKgoAhZEUVxUFBV2wfZT1lV2WQsIKlgQF7G7KugCGgsIKLIqAooK0lsIhEBISO+3t5nfHwkdkhtyUyDn8zzneSA5d+adOTd33nvOmTNpZB6ZG+3cxJdLD9LmuhEMue42rovawVeL9+DFf1rudmy+OEITTbjy9+M4vhRXTdyuqhNPePdkakyF9CkkjJ1K6OEZ7Hz5WcrDx5N06xXoas+f6sSfmCnfibVCIbT3EIw1vWsbKWZBEATh/CASoUagFa1k3uIcksfNZMroa7jssiGMefZFxiXlsHj+9xQf7eTwkbHkczYHX8fkSVehrfmUb3JrHAc6VcUysn/KwDTkPVJuH0fMBQMI7z6YVleNITKqurkrlpPzcxbmoW/T9caRRHa9hPALemE4IVkIIuzGWbSN/JHMjxdiL/yK/akrUQY8T/seEafs1tjlNp57fx5v/P0qYuuadPgTs3cjuct/RO3xLD0e/BdxF11NeNcBRPS6hTa9kqoTurrFLAiCIAhiaKxR2Nk052Eer/w7D909lVcjNEozfmX+4//mo00ndh+pBd/xyYqxzL3ZysKP1/o/Sfq4fVmWjmFX2d9IvOKvdB4Qg6xZcOdvIDdjIZQC2KhcfA9plZNIvPxJul4XiuStxJ2/geJCKwByh4fodFUoxf95npLqIDxbZpLV/1uSRj5E0d4ZVB4dbpKISO5F57AgdH0vpXvwGgqsdQncn5hVXOsnssNyH4lDbiVh9D3oDRKqJQvr+hco3p6B2r4uMQuCIAhCFU0UtNTU1CaP4VwukrmjNvyZD7RFc8ZoyUrTxyOKKKKIIsqxIq5xZy6iR0ioN12bPlx/ww1c29nK6jeWkeGr/TWCIAiC0ByIREioN80cS1vDPj6bPodfMi1oTR2QIAiCIPhJJEJCvfkOrODtd5o6CkEQBEGoO3HXmCAIgiAILZZIhARBEARBaLFEIiQIwjlOppshgokGoxjrFwShzsTnRjPT1RTP+0b90RWoK92F3ORw4GnSqGoXrQvnb6YQ+sgKJlTyfU4+dxaz5Jy9g8zMk2GtGXZ0cUgPH1tzefecPZ4TnV/tJdNTH8YIzc07bvxYiV0ixRjLLKPEEls+7/ma//T+M7XX12oIr4ZFc3F1PbeniOvsdur6VJ5zWZAukreDgrG7CnnE5a7TSvx13o6ko4eix+tzkH6Gt01945Ek0aaNTSRCzZDPV8lEeyWHNFBRT0qCZFIMkUw0BtFFhhKfnc8cZXzhU8/6bi2jEspzQVFcrJVzr7WCg3XclyQF81hQBD185cy2OylEJkqSKTlpUWyjHMzjwdH09hRwp9N1wgdEqBLCWGMoA3V6otEoUh0sdZaxwOvj2GYCdew6BpoiGas30UGWsKhOfnKV847bjf1oHSdzLDm8C8hKGP8ONtdpD8c0Znv5VycQ7eWfwB97YEi0VvSEStBelpB8WrO+07Gm9tI0Oy9bXARJCteYWzO6qYNtAmZZT7yk4JYVdPiTCJ/9dhQ5lGeCzay1Okg/w5eG+sYj2rTxiUSoWVKpVH2UnOY3sYYYZpkN7HGV8i8vXGCM5P+CFWzWQr6t49M4AHRyCNOCwkni1IuBv/uSZT0dJS+rnJX8eJpv14pk4GpjOPcZzLSTJApPjYJrTeFcqJe2VSMAACAASURBVFn50OGmCB0DjRFMCJIotBSxUgvksUv0NsUyzeBlgaOQ51XoqI/gb+ZWKGour3iPxK9h03zYAEXTONuOksZsL3/r1L+9/BPoYw8clTWOPP7igpwmT8pqV3N7qeSrKqByYXM/kAZS4i7mXp8Or+rGeV5sR7RpYxOJUMAoDDDH8rQeVjkKmOXxNcAHrIHhBhN4ipnmtFMBrPdB+9BobjcYWOl0o8lBTA2OIcVbxASHgzJAkoJ4MiSGFE8h9zudWKu3Jkkm7g+KINRdxKtyDC8odduXDxOPhcZyW/VMsw4h7bgDAI2dzlwedHlRgY6GKO7XeVhsLybGHMOVpxyXly9tuSzmWMKxRdNzcXAQPRWJlV7Nz3iOqKkt9FysVyhyF/ORp6qXI8NXTjd9LP10ehSv+6yTnlM1Znv5UydQ7VUV4z+CI7lKVgiRoFx1scZVxptuNw4/j93/86zQ3xjJeIOZJBlKfMd6C4/fhqKEMSs0ihRZxqm6+N5Zyjsez7GLkRTMS2ExXH7caxyeIq6325tk6Ln2c+hfezVePCBJRm42hnKVzkh7WSZSklA1la3OAp5we6rjkelpiOQvBhPdZQVVc7POXcZcl4uKOuyr9nj9GUKSudgUwzi9nraSQoikUeZz8q2rjA89Xrx+b+fEtrgrpD13Vf+m3F3ICIcDr59DWoE4diGwRCIUMDr66PSESdBf0aF4fGfdRXsmkmykpwI73U5CDa2Zb5JYaCvmdx9coRiIwE2JaucVh5V3g6N5ypfPZLfGVeYortYqedR17KIKClebo7lKLeVBl5tE81nsCxfzbLl8rYTxcpCJjfZCFlVfmZzasSGtDFc+o1ygYeCBMxybxom9LkGSQrDmJVvV6hDPETW1hY8cFVrpguguudihgV420l1S2eP1BjAJatz28q9OANtLc/ODq5T/qT7sKHQxRPCoOQaHL483fVod26smMr1Nsbxk0PjRVcJ7PuhsiOCvwbFE2PJ53XssFZDQSHeVskCFBH04E4JaE2zPY4anutdHczDLkstb1efq2qDWjPIrhoZR2zn0t70aL56qRPtGYxCau4y5Tg8lgB4ZST2SlEmkmGJ5zaDxrbOUD3wqkbowHja15hktj3+4q+r5s6/a47XzosWFGYUhQa2PJiYnkmmnmOimWZjucFCBwp+MEdxnjqbcV0Cq6u92ztwWPq0qofJvO4E5diGwRCIUMC4WOEpx6GCj62zmU9ROlhSiUNmhagTrdERKEm1Q2aBqoChEAiWA1VvGs04Db5pa8YTi43Kdl49sFew+7m+slT6KiYqTmVY7xUgkntW+NMpUD5WSiheNStVD1hk+nevy562XQ/iHyUyhu4Blat2OvUpNbeFjpaOE3sHR/DvEyFqvh1idGc1VxFyv/5cWRYlkQUjYKecNQFUredhSxq5GbC//6gSyvbxs8hw7s+lOiT76GHrqFGSfF6lO7XVmkhzEGIOODFceM10efMAfXg/6kDjuNQaxwGs9uh2vz8L77upv4F43eiWeCYZg3vdYqof3VIrUIwesUdbk15yaz6Fah/ZqnHiO0Mj0WFnlPfUESlIwYw06Njhyee1IT6yvBJ2SwBS9mRj3kbbwd181USmsHkIqraUtVdXFL14nLmCzKtM7NJJLdQqfu31ofm3Hn7bwN55AHLsQSCIRCqBSr4X/NEQGdBrpznz+7IZSFS465bca+1zFvK2L43GDnjRnHp8e901DkoK432RkszOP9X5cDGreV2CZlFCeDYqkg6+Ex5yu4yYv1y2emtrCLOuJx8vvbhu7JAOtkemiD6Gfx8UqPz+FfGol/7TaMJzmd5rmI6dOMde/verapvUlS0ZuM0UwTKcnVgK7pmGSIB/plLr1ef/oZCPJko/vTuit87LZ6+OvBgOdOFNC5WW714ti0NMeznqeU0Oqyzk8V+LRKUa6SjIRQQn8dMJvJGRVRwxVbdGUx66qXnI1SJJkJBpiCkPNmlu7CyIROqeomo9SZGJkCQmVQhVAJlqWQFMpO66uLBvpp0hYNeikD6abu5xd1X/xwbpgBskKSlACVx99hYSOCOaFGZltKWRZHfYVKMFKOC8GhxHuKeZRh/2Ei1ddjr1mJv5qDkPnzmNKdQ/Dly4bj4S05nGjnd8cDv/G6TUf2T7faT+6NEAFpEZsr1V+1FkasE98HSOCWvOQ7ORDZzHrVRVJMvHXoAiiqmsErr04y8uDhNSsLyy1n8NzNR4JL8vthXx20jizhkpBgPd1bNt1o3L695U/26lfnebW7gKIRCigjLKJKxTY43WS0wBfMzTVxQ4f3KIzEeq2U0nVmP3FCmS5XZQfqSgZuCsoil6+Mh5waDwQEsUzJhfjHQ4sgN1byr2W8hNW00wxxfJP2ca/7BZ2aKBpfu4rQGQpiH8EhRPlKeJRh+OUb/l+H3u1KF0ot+pgo8vC1uPaQpb1dJA1ctRjPQya5mKbT+NWWUcI+JUI+TM0tr0R28ufOoGj5wJFItNVzn89xybI5msc/TCva3udiVd1sVcL5kKdDsXnqW4zHX10Ch6fm8wzvlLHRbXWObMzvX8Cp/ZzWFduQJJkzHAWa84EJh6vr6q9eigS+R73GeII9LFrOAFJUgjhbI69LttRcSMTLEmcOd2paTt1O/b6tangL5EIBYyBu4JaM06ROOzK566zWnelNm6WuZ3cao5iqlEi1Qc9jJEMxMnL7iN34Uj8yRjDWMnBNJuFgxq84jDxYVAUD3vyeMmromo+srXjv65JRGlV/Rh5qrd6gq4/+/KXQltFxoCeCEAn6+ioqLiqJ0NrSNXbtvOK20u4oie8+pWq5uOQqqLWKR4jo81R3CnDtbhPWANHVV1s8UncZYxihGZhqwqtdKGM00lkupx+TuD1d2isEdvLrzb1V23t5SHdB1cbwhmpWtiuasiSgdYnfMUOzPtHU+184g5jtrEV/6KcH3zQyRDBvYqXpTb7Ce0lyUYu0alY0dHbEM5oxctXJ9Xxz5nfP4HjzzmsC5Usnw/ZEMK9Bh/rNZk43Cz1ePw814GJR9NszHeH8pqxNbOlSpZ43JQhESXrqPRa+F0N3L6OUcn0eZEMIYwzePlZk0nAzRK/j93/7fhUD5mawlXGcLbhpAyF9pKbxSfsq6bt1OXY69umgr9EIhQwKnmqiqYohEpyg3XKF7iLeYJI/maM4iUZSn0O3rSVHl2XxaiE84RB4gdHKWurv7CUeMp4xxPPP83hfGstY7uf33Br25e/FCWUl0LC6XDkB3IM8/RQ4i5gpMOJB4UURUEvB/NkSPAJr/V4S7jZZqWiTvF42eL1cKMeNvhOvhPMzX/txehM4dwb1IbHJbCpHja7i5jr8vg/UVHzkeWr/eOoMdsrUGpvLy9fOYoINYUzytyahyUJr6ZSqbn5XT0WbGDePypbnAVM1qK43xDNizKU+ZwssJXx8dHJ7SrZPhdZ+hCeCQ7DoKnk+ez8x1bOZ3WYAH9MTe+fQPHvHPpPY5erlIVKFDebWzFC87HHXcr3Ho+fSXCg4tHY7izgUTWCcYYwnjAomDWVItXJIp8lwPs6Zq+rlI+UKEaZWjGMqmNf6fex12E7mp33HJVEmkL4Z3A4suYlzV3Kdyft68zbqcux17dNhbrQREFLTU2t9zbClQjtP2EJ2j908llvo6spXvspJFzr3AzOiShVRVEitI/D47X7laaPRZRAFb12b0g7bbnZrOmbPBZRRGn4Eohr3PlaRI9QQMgMMsfxpB42uop486y+hZ64vTBZIVqresRGmaYFJEqhLiSCJRkTIEsSp1m7UDjHxOrDuVX2ssunYlJCuVnR2FqPZ1MJgnB+EIlQQKhscxcz3unmQACSFkUJ443QMODceejq+cfExNATH7q6tinDEepJIkLS09sQygi5agHAra5i/l2nFeANPBAaxxj5zDUOuYpZq4/h7hrr5HF3nVbWrg9/Ym7MePxxLsYsnMtqmvreoqSmpjJqVFOuMysIQvMmES3riaphAqBb9WKVdLXU8ZDVaL28/sTcmPH441yMufkT17gzEz1CgiAIftEoUf14NIjm7+NDGoOfMTcr52LMwrmshs5HQRAEQRCE85tIhATBH3Inooc9RUL3yMbftxRMyCWP0/HKXs16rWRBEIRzkRgaE2qkdJnMBeNvRf1hLDtX7mq5E8rkrsQMHYN+yXwOp9XlAREKHW9/mRkjE6vvPNOwrn6J+9/aXIcJ8OGEXjaeWMsestZu86MNjIQOW0i3q3QUvHMHh/b79dCQJqRg6PYAHW76M+FxrVF8ZTjz1pO3aBIFlttIeWEGEdWfVOqWR9nw/jfiwZQnMyQQ2iUZ7eAarNaz/CvV9ebBdydzdWh1uu3LYfFTk1iUKaYkC+c3kQgJNZCQozpjCopEjY1FZpe4S+MsqdlLef6F5RxWNTS3vYHvAjRgiO2APkjGHGnEv4eGNKHg6+n4l4mEHnidA+/8iksNRh8VhqdSBft37J+5BUWKJubuecQ3dazNlBR/N0kThlA6+2es1rP8K/XuYN7fJ7BIkpATh/PM5N6BDVIQmimRCAk10PCsf4xtue3Q8neLJKg+fE4s5eWUN0pXhoWSBTex7XsJZ06gnwoXeFJMN4KMuRR/9w7FmSev6lOBK68CpFjcrhbbH9lIvDgqKnAASrhL/L0LLYZIhOpJ6TaaWdPG0KdtMK7DW1mz0UnKNRcT79rDkpeeZO66kqpufKU1l9z7Nx685TKSozWK09ex5J3Xmb++EB8Qcs0Mls7owfIJI5m97cjFQKbzXz7hv3dl8dTwJ1ll8zOooN7E3nAPMcl/whzZCl2QEVzFVC4fQ9pPmVVDK6YUYkf8i7gLe2EOMaA6y/AULCVz7kzKnUDo7Y07JCG3JnzQJBIvv5qQ6FBwl+DK30XJ8kkcSrMRefdvdI14hU1vfobn+OuhYRhdX56K990B7E/zgNyGiKH/ot3lAwkK1fDkrKZg+UscTss/NqTkz/kxJBFz09Mk9u+HyejAmZWNrDTQgw/9iRmQ2o2j+zNTCW0VjK94I8XfPU/Whn3H2sQ8gm4vvkqU/sgPNHwbH+aPD1c2zVBS6PV0fuQpolu3QlHceIu2UvL9DLJ+T8OnAcrFdJz2CXFRVYOG5ifSq3t8PFi+GsqOHw41bjzg33tDiiR04BMkXnYlIbFRULGLstUvcfCnTcfem/7sqzZSBBHDX6Nd3xTMkZHIWiWurFXkL3+FvL1FVbGcdA4T/rGXBABUPOv+wsYFa6vq+XNcgtBCiUSonpRWXemVmMvCR2aTPmgKL46wMf+JiRwcMoVnnhjDT+v/zXZvMH0nvsHsET7+9/Z03sqUSBo2gQdee5OIR+5j9iYbtj/WsNExiEsGJKNsS6v6Nia344qBnXBsmM9Gu/8xSWEXE3vlYPh1BgeWHcTj8CGZY6Aop/oDT0fosDfpdGEWOZ9PoKzIhmSOxRTjxumu3ojtWzKe34giRxMz5uPqD9eGEkzYiPl0v8pM+f9eIH1vLqrpStr95S+EtQmBNAvu8kJoG4NeAo8uClOEjLuoGDW0FXoKsFeoQAjht86n2wAvxUv/yaF8maCLHyXxwfno3xjJgb1W/86PFEnUHR+R3KuEwmWPcaBYj7nLHSR0aohj9y9mABQ7trXTyC30YOrzMO3u+QjFeSMZ26t7fZw/kPnCULJkQGpFq3vmE9cQIfvLvpvi756mqKwYVYoi+OLH6TB6Lr6C68nK9IBvGzlzrqOg3V/pfu8AyuePJ/ewD9BQK3MbPx78+dsxEzpsPilXuilc9gzZh6zou9xHh5vfI8k5nLRfc/3eV+2CMCddSrB1HukLf8Kniyfsikdp9/B89HNvIyvDXuM51OzHEunaj0sQWi6RCAWCVsKB3btYZ9qFbUQ4B7dt5Qc289i17Uk0ww7TUO67JZF9H4zmuUUH8AHrNx7A0GEB4+4dwsebl1Bs+Z0fNziYNnAgSe+mke4DucMgBidb+eXDdVTW+dPKhX37F5TsPt2Hrg59aATYVlOZ/kf1nIIdWNKPq6JacBdaQLLicZ9mE4EUPoyEKzvh+N8tpC/fXfXBrAvHpVL9dHcVV3EehLdBL0vo+syk1+hQDk27m/zwOAxaLs4yH4TfSMLl7bGvuJH9P2WgAeXp+5Bjl5MwdBiH932G++h5rOH8RA4nrm80lq9Hs391NgDle1TCBvZDf2rteh67HzFXV9UOfMqhNdW9cnvSkdp8R7urh3Fox4Kq49KsuAurEyfJgcfTxJc4XxYVm7OO/teaYyTsormEdYyDzEOAE09RJt7gClQ8eEv248hvwAGZWuM5oob3Rtgw2g5KoPzTIRzYUFr1s6x05PY/k9R/MMbfPsal1WVftdPKd1Cevh4VqEjfA5MWEz90GLn7P8ej1eUc1vSZIAgtl0iEAkkDDQlJBlQVDRlZktB1TqGrPp9vNmUfG3f3HWLjxjzuvyGFTrolFHsqWLfiFywzB3FN8vuk74GkoUPpXLqK13/zd0zMX07KVzxH8f3TSJl+NZbtyyne8BVFaZn+d9sHkBTfixAll6Lde8/w7VTDV3IIT1A7jKZw9D0vQpYNRHaPodDZFn3lAZxukDr0JFjJpWjvwWPbUQ9Ssfcwif17YlY+w+3Hg6WkNt0IkvMozGyAXomT9xXvR8ynu65pOVgyDyNd3J0gBb+Oq7FJof1oc9P/0bpbN4xBMj6LDVkv4dYbmmRJ+0DEIyX0JsQYhu7udVxy93E/l/VQHI9BApfWgMfu3Ud5ei5t+/2JIOVzKpphuwvCuUYkQoGk+VB9KnVb+f1YZetvy1hVMpjB1/bg/Uwdw29oT86K6WxugIkpasFX7HthNbk9hhHTdzgJE8aTmPUW6e+9TqWtkS9RkgTUfN60wn04tUswJVyFufMODv9PR2yvQYQcTISCn3DUOgmmDsekaYCEJDf1qj01xSxVFU1rnkMbUiKx4/5Dh5jfyF78KGX5FUghV5A4/vHqXr5zOB41h8KPJpCbd9KbzluOSw3wvk6hgaaCJJ20plSzfBcIwjlBJEIB5PntBYZeWfXv44dQvPt3k+65kT59E1F2VA2NobTjoovi8OxN4+iNMs5NfLn0IMNHjGDIARPXRe3gw8V7Gu7p2L5SbNs/wbb9E7Jjx9F98j9of+kSdvyQdVwlJ6pHA3MYOonjhpYCR8vbjV29hbCktkgHDp7+I92agd0aR+ig2zAf/JLMtXqCn7qVBGMi7gP78Gmg5e7A5htJWJcOSAeqhpmQOxDeJQH18E4cfo66aLnbsflGEt49GSkzrUEvMWcds9Kxqk7ODux1Hk2S0SfdQZtuMhVrF1JZ2QBTqZWuhLYzYf/hVQ5v3lc93BmJy6udZTLgQfNpYAxGkUCta6MEKJ4j743QRBOuLTtOPwk94Md+HKktoZ0T0PLSTmx3jxOVYHRmGcT9XoJQJyIRagRa0UrmLR7N3HEzmeJ+n5UHZTpfP55xSTksfuR7io9+qPvIWPI5m+96gsmTwLnmab7JbYj7fUyEDX6aCPc6KnJy8PqMGDv2xKC4cFpPGobTrNhyspAGjSbxskJKLWEY5V0UbD1xGMvY5TaennQjkWnzeO611RTU5UJVvpy8jffT9fq5dPa+RUmRjLHL7YTpwXmkjroX22E9cRd0pej9H/BUKhTtm0yXCxVK1u6viqViGYd/GUv3614nyTOXonyZoP6PkJCQReEb3/ifxFUsJ+fncaQMfZuu0lwK9h1GNffCIDXA925/Yq7+6i9F/onIrsV4DW0JH/Aw8fEHyX/jG+o8FUi5kIQxzxLfClqZ0tjyxabAH5eagS3XQ3S/B2iTswhLuR3MPTDqzrKXTavEnleANOAO2vYvpMwRgYmdFGzP8C/2QMVTsYzsn8bQY8h7pJjfJ39XOh6fGUNsHN7tCygrVQN+7FKnO2l3FVQUejH1fpjEDiUUv3fi+1krScPujCZq6KNUSL/iUWIJ0qWRvyVd9BUJQi1EItQo7Gya8zCPV/6dh+6eyqsRGqUZvzL/8X/z0aYTEw+14Ds+WTGWuTdbWfjx2rOYJO0HyYykCyf8iunERYUj48Jbmk7Fyolk/VF8UmUfth+nkp0wnbhRb9HKk4dt3RSKt+3FezQ2iYjkXnQOC0LX91K6B6+hoC6r22rllH42ln2Op0i8fhatjA6cB7JO/LatWbBmZaLG/UHBLgtoULZuBe4LumI5dOSWOhsVX93LHvtTtBv8Et1DNNyH13D4nZkcPv7uq1rZqFx8D2mVk0i8/Em6XheK5K3Enb+B4sK6bMe/fdUesx3H/vXY+40k6eGxyJoFV9YqDr01i7x9ZzF/TD1IRdp+WgdLlO89Qw9cfakHyZs3Ed2tDxN394e0DzKguSvxlu+gvNh2Fvv0YvlhKrnxU4gd/S6xR96HOzKOex82Rjx2LEvHsKvsbyRe8Vc6D4hB1iy48zeQm7EQShvg2L0hhFw1nTbRJnzFGyn8+HGytp+0PpRzFYcWzkN/8x0kPXg/OA9j/WUKRVvT/Ts/gtDCaaKgpaamNnkM53KRzB214c98oC2aM0ZLVgKwTd31Wtc5e7QLrm7b5MdWv6JoHW9/VVvw8m1aO7kR9ysnaW3/tUfrd9eVmtTk50CUsypSvBb39z3aJeOHaXIj71tpP0qbtWC2dmcnpenPgygBKeIad+YieoSEetO16cP1N9zAtZ2trH5jGRliisKpFBOhERFEVD9io8Ie6FuYZYy9/482UdlY8stR2o8mNt5G5fc70QK8J+F8pcMcHoxRkpDDjNXPxhOE859IhIR608yxtDXs47Ppc/gl0yIuvKchJ97E1HduAs7moav+0KEPTyLsitG0iQwD+0EqVj7GgU2ldQiyJ+2e/pK2bc50CfTh+N9kSv/0Igk11Vl5G1u/3t447wN/Ym7MePzhb8xLTx6mbmC6ntw3+8SHrgpCS9AUy3k0S6mpqYwaNaqpwxCEJmTC0KYj+jNO6tVQLXn4zHG11DmAo8J5ht8Hmj8xN2Y8/jgXYxbOdeIad2aiR0gQhGpO3Plp1LqQeEV57XUajZ8xNyvnYsyCcP6SmzoAQRAEQRCEpiISoZZA7kT0sKdI6B7Z1JGcnhRMyCWP0/HKXjT1Ws6CIAhCyyKGxloCuSsxQ8egXzKfw2llR3+sdJnMBeNvRf1hLDtX7jpxsljo7aS8MIOI6neIuuVRNrz/zelX0q23cEIvG0+sZQ9Za7fVf9KaIYHQLsloB9dgrct6RnWm0PH2l5kxMrH6DpuGmghdvbea2ut8puvNg++eOIl38VOTWJQpbk8UBKH+RCLUYknIUZ0xBUWixsYis+vEhflt37F/5hYUKZqYu+cR31RhngUp/m6SJgyhdPbPWK0Nf7FUs5fy/AvLOVx9a3zDPNu7lvY6n3l3MO/vE1gkSciJw3lmcu+mjkgQhPOISIRaLA3P+sfYltsOLX/3qRdVtQJXXgVIsbhdLabv4ez4nFjKyylvmO6yarW013nNi6OiAgeghLta2LELgtDQRCJUT0q30cyaNoY+bYNxHd7Kmo1OUq65mHjXHpa89CRz15VUDScprbnk3r/x4C2XkRytUZy+jiXvvM789YX4gJBrZrB0Rg+WTxjJ7G1HHrMq0/kvn/Dfu7J4aviTrPL3aQqGJGJueprE/v0wGR04s7KRFTj6EPtGHfbyn9RuHN2fmUpoq2B8xRsp/u55sjbsq4or+Ga6Pfcy5tUj2br0yCKBJiLv+Zlu7Rex/YXZ2KSL6TjtE+KiqgaqEv6xlwQAVDzr/sLGBWurXidFEjrwCRIvu5KQ2Cio2EXZ6pc4+NOmuj+3qzZBvYm94R5ikv+EObIVuiAjuIqpXD6GtJ8yq+IxpRA74l/EXdgLc4gB1VmGp2ApmXNnUu6kQdpL3/dh3n1IZe79b7PlbJ7q689xocfQdQyJQ0YS0bEjBr2Kz5pN5Q+Pk75qN1rEMLr8YxYhu/+PHQt+rDr3oYNJ+uccQreOY/uX6/GJHFwQhAYmEqF6Ulp1pVdiLgsfmU36oCm8OMLG/CcmcnDIFJ55Ygw/rf83273B9J34BrNH+Pjf29N5K1MiadgEHnjtTSIeuY/Zm2zY/ljDRscgLhmQjLItrepbr9yOKwZ2wrFhPhvttUVSTYok6o6PSO5VQuGyxzhQrMfc5Q4SOh1Xx/YtGc9vRJGjiRnzcXWy0Awodmxrp5Fb6MHU52Ha3fMRivNGMraXg30dZfs9RHa7DNPynThUQO5GWKcwPOm/V/2fbeTMuY6Cdn+l+70DKJ8/ntzDPkBDs+dXX5zNhA6bT8qVbgqXPUP2ISv6LvfR4eb3SHIOJ+3X3IAekhR2MbFXDoZfZ3Bg2UE8Dh+SOQaKcqrj0RE67E06XZhFzucTKCuyIZljMcW4cR65v7oZtlftxyVj6PMSPcdei5b2Cbmfvoaj0oEU2h6luLpO+bdkzu/DBQ+9SFLWn9nzi4PoUdOJtv2HXUtFEiQIQuMQiVAgaCUc2L2LdaZd2EaEc3DbVn5gM49d255EM+wwDeW+WxLZ98Fonlt0AB+wfuMBDB0WMO7eIXy8eQnFlt/5cYODaQMHkvRuGuk+kDsMYnCylV8+XOf/w1cjhxPXNxrL16PZvzobgPI9KmED+6E/Uke14C60gGTF04wWM9EOfMqhNdU9HXvSkdp8R7urh3FoxwLcWillW/9Avf0aIiL/g6NERYruR1iUlcq0bdW9I048RZl4gytQ8eAt2Y8j/6SBlLBhtB2UQPmnQziwoXrV5ax05PY/k9R/MMbfPibwI4Eu7Nu/oGT36WYP6dCHRoBtNZXpf1TPadqBJf24Ks20vWo8Ll0fEkbciJI+lW3vLMJ1tPtq3XGVNLzpL7Pv255ccOscOsWVEpWSTc6rb2JtVscpCML5TCRCgaSBhoQkA6qKhowsSeg6p9BVn883m7KPzW/wHWLjxjzuycV4igAAIABJREFUvyGFTrolFHsqWLfiFywzB3FN8vuk74GkoUPpXLqK13/z/wnjUptuBMl5FGYGtmej0Wk5WDIPI13cnSAF3F4V97alVIx8geheCeStykGXfCnB3vXk7fO3uwykhN6EGMPQ3b2OS+4+7ueyHorjMUg0QCJUEyflK56j+P5ppEy/Gsv25RRv+IqitMyA94gonUcza/pNxCkAEpIE//zvQADUwm+Y9tgnpAdqAk7khYRE+LB8991xSdDpuLB9/zhZXZbRaWBXrEtvJDdXZEGCIDQekQgFkuZD9alodbqAHats/W0Zq0oGM/jaHryfqWP4De3JWTGdza4aXn7K5jRAQpLP9RV5pKqiacfOkO1HinY8SXK/YZhXLyA4pTfavuepsJ98wmtpADWHwo8mkJt30hXaW17LRbthqAVfse+F1eT2GEZM3+EkTBhPYtZbpL/3OpW2wGVDvuxveHnyz+gAXcqdTL1DY+H0T0nzAl4LhYGchaxVn0i19vilyIuIiNfjdXgI6nMTIT/NxiJyIUEQGolYUDGAPL+9wNArn2DFSR043v27Sfe0oU/fxGNPdFbacdFFcXj2ppF5ZLKqcxNfLj1Im+tGMOS627guagdfLd5DXeayarnbsfniCe+e7MfihE5UjwbmMM742CM8aD4NjMEojZlbKR0J75KAmrMD+5ELtFZJ2doluBNG0rrrlUR2kajY/NOpE5w9TlSC0ZlPfXtXnZ84QhNNuPL34zi+FJc03YRxXym27Z+Q9dEotsx8CXu7B2l/abuTKvnTXjVwV5CXnU12djY5xTZU1UpR9f+z88qpS75dq/KdWCsUQnsPwVjTp4w+hYSxUwk9PIOdLz9Lefh4km694uyOTxAE4SyIHqFGoBWtZN7i0cwdN5Mp7vdZeVCm8/XjGZeUw+JHvqf46IXcR8aSz9l81xNMngTONU/zTW4dL80Vy8n5eRwpQ9+mqzSXgn2HUc29MEin6SfRrNhyspAGjSbxskJKLWEY5V0UbN17rK5WiT2vAGnAHbTtX0iZIwITOynYnnHC9oxdbuPpSTcSmTaP515bTcFZdGRIkX8ismsxXkNbwgc8THz8QfLf+OaEREc9sID8rDtpe9dkkH4mc2fZKdvRStKwO6OJGvooFdKveJRYgnRp5G9JR6tYRvZPY+gx5D1SzO+Tvysdj8+MITYO7/YFlJU2dipkImzw00S411GRk4PXZ8TYsScGxYXTelJG7U97NRfejeQu/5HoMc/S48Ek8tb/jt3iRjK1xsQOCrZloBFE2I2zaBv5I/teWoi9EvanXkGvsc/TfufN7N9Z3tRHIQhCCyASoUZhZ9Och3m88u88dPdUXo3QKM34lfmP/5uPNp14sVMLvuOTFWOZe7OVhR+v9X+S9FE2KhffQ1rlJBIvf5Ku14UieStx52+guNB6Ul0fth+nkp0wnbhRb9HKk4dt3RSKt+3Fe3S/Xiw/TCU3fgqxo98l9kidHRnH1ZGISO5F57AgdH0vpXvwGgrqtKKzHcf+9dj7jSTp4bHImgVX1ioOvTWLvH0nJQNqFgX/+4b4B26FXz+n7HRDR85VHFo4D/3Nd5D04P3gPIz1lykUbU3Hq9mxLB3DrrK/kXjFX+k8IAZZs+DO30BuxkIorUPYgSCZkXThhF8xnbiocGRceEvTqVg5kaw/ik+q7E97+cd78CfmzdM41GCL8qi41k9kh+U+EofcSsLoe9AbJFRLFtb1L1C8PQO1/UN0uiqU4v88T0n1G92zZSZZ/b8laeRDFO2dQaUYIhMEoRFooqClpqY2eQzncpHMHbXhz3ygLZozRktWGnhfrcdrPV/7RmuXqGvi41a0jre/qi14+Tatndz0bdASitJ+lDZrwWztzk5Kk8ciiijnUhHXuDMX0SMk1JuuTR+uv+EGru1sZfUby8hoiF4GUztCYkPA3JPYWx7CsOkJ8nLOZiXABqCYCI2IIKL6ERsV9oZ5yEbLpcMcHoxRkpDDjMfm2QmCIASASISEetPMsbQ17OOz6XP4JdOC1gD7kBLvIvnBezFq+Vg3PU/aFz8GfhXosyQn3sTUd24CGvahqy2Wrif3zT7xoauCIAiBIkGDXLfOOampqYwaNaqpwxAEQRCEgBPXuDMTt88LgiAIgtBiiURIEARBEIQWSyRCTUWGgTfBnT0488KH/tTxa1+diB72FAndI+uzFUEQBEE474hEqKnIMOh6uCyu5kSo1jp+7asrMUPHENkm+IQfK10m0+uVDfS8tsep2w+9nZTX93PZW1XlkvHDxJtFEARBOO+Ia1uLJSFHdcYUFIkpNvbUN4LtO/bPvJ6tz99NzsHGu03dGAuTn4dPbxe3NAqCIAgNT1xrWiwNz/rH2JbbDi1/N6cs/aNW4MqrACkWdyM8jl0JgauugTGDoZ0Rihp8j4IgCIIgEqGAkELhib/DlbEQokBFEaxdAW//Co4jOYQBBt8C914CcUbIzwK9AoXHb8ifOv4wJBFz09Mk9u+HyejAmZWNrHDsoZqht5Pywgwiqltf3fIoG97/pukeOAp0vBrGd4ev34eoUXBlE8YiCIIgtBwiEQoAzQ4/fgPfl4JDguRL4eF7wJ4P7+wHJLj8LvhXb/huCbxeBInd4a7Ox23Enzr+kCKJuuMjknuVULjsMQ4U6zF3uYOETsfVsX1LxvMbUeRoYsZ8TEL9T0G9ZSyHO5eBJsP4Pzd1NIIgCEJLIRKhQPDB5o3H/pueDRf2h56dQd4PRMJt/WH3V/DqKlCBP9Kg19UQVf0a2Y86fokcTlzfaCxfj2b/6mwAyveohA3sh/5IHdWCu9ACkhVPc3mopSZW9hQEQRAan0iEAkAOhVtvgetTIDYI7BYwGaCgOvNQ4qCjDCv2c8bhJ3/q+ENq040gOY/CzNx6bEUQBEEQWgaRCNWXBDdNgAdawbwvYEM+SCEw7sETe3I0QK7lHnh/6tRK0wAJqd4bEgRBEITzn7h9vr4U6NEBDvwCCzfC3hxIz4CC45666c2BfV7o04Njw1Mn8aeOP7Tc7dh88YR3T/Zj7SEnqkcDcxi6M1b2oPk0MAajiNxKEARBOM+IHqH6UmFfDlx1MdySDTvLQDJDq+POrFYBC9bArOthugTL9oLLDK0l8Nahjl8qlpPz8zhShr5NV2kuBfsOo5p7YZBOMwdHs2LLyUIaNJrEywoptYRhlHdRsHXvsbpaJfa8AqQBd9C2fyFljghM7KRge8YJ2zN2uY2nJ91IZNo8nnttNQV1nfCjh4RWYFAgQge6EOiQAG4bZJeL+UOCIAhCwxCJUH2psPgDCPkz3HYfPBgEPhdUlMOG4xbD2foF/LMSxl4Jzw4DxQMlefBDwbGLvD91amejcvE9pFVOIvHyJ+l6XSiStxJ3/gaKC60n1fVh+3Eq2QnTiRv1Fq08edjWTaF42168R3foxfLDVHLjpxA7+l1ij9TZkXFcHYmI5F50DgtC1/dSugevocBat9RFiYcZT0GHI32UreCDS6FkNdz+X/DU9GJBEARBqAdNFLTU1NQmj+FcLpK5ozb8mQ+0RXPGaMlK08cjiiiiiCLKsSKucWcuokdIqDddmz5cf8MNXNvZyuo3lpFxyjLVgiAIgtA8iURIqDfNHEtbwz4+mz6HXzItaE0dkCAIgiD4SSRCQr35Dqzg7XeaOgpBEARBqDtx+7wgCIIgCC2WSIQEQRAEQWixRCJ0vpGCSBn+EI/f1kOMewrNi9yJ6GFPkdA9sqkjEQRBOEokQucbKYw/DR/DyH7xKIHYnjmOnpcPoHtkQy8rrdDx9ldZlJpKamoqqamf8eFDfeq1ynaNe+symV6vbKDntT38WIH7PKLrzYMffFZ9jlNJXTSbOzsF5J1SO7krMUPHENkm+IQf19gWobeT8vp+Lnurqlwyfpj40BIEIaBEp4FQI6XTn5n28lWsHv87aWUNf1+8mr2U519YzmFVQ3PbG2ghRQk5qjOmoEjU2FhkdtFi7vj37mDe3yewSJKQE4fzzOTeTRxQLW1h+479M7egSNHE3D2P+KYKUxCE85ZIhITmxefEUl5OudqQO9HwrH+Mbbnt0PJ3t5wkCAAvjooKHIAS7moGx15LW6gVuPIqQIrF7RILMwiCEHgiEaonpdtoZk0bQ5+2wbgOb2XNRicp11xMvGsPS156krnrSlABlNZccu/fePCWy0iO1ihOX8eSd15n/vpCfEDINTNYOqMHyyeMZPa2I08Xk+n8l0/4711ZPDX8SVbZ6hBX97uYkzqJCxKDcRzeysoPX+WNbzNxAlLY9byyfCrtPx3LHW+lVV98jFw+dTmzeizmvjvfYo/Uh0lL3uH2NlUDEffMX889AKiULZnIDc//VtVbI0fwp9se4v4Rl5HSPhKteA8/f/Y6ry3aRnmgr1tBvYm94R5ikv+EObIVuiAjuIqpXD6GtJ8yq9YvMqUQO+JfxF3YC3OIAdVZhqdgKZlzZ1LupGqo5YUZRFS/89Utj7Lh/W+oT96l7/sw7z6kMvf+t9lSpwfD1eG40GPoOobEISOJ6NgRg17FZ82m8ofHSV+1Gy1iGF3+MYuQ3f/HjgU/4tGA0MEk/XMOoVvHsf3L9fgaO48wJBFz09Mk9u+HyejAmZWNrIDryO8boC0EQRDqSiRC9aS06kqvxFwWPjKb9EFTeHGEjflPTOTgkCk888QYflr/b7Z7g+k78Q1mj/Dxv7en81amRNKwCTzw2ptEPHIfszfZsP2xho2OQVwyIBllW3VyIrfjioGdcGyYz0Z73eKSdHb2fPEKHx/y0vaacTw0dS7B1tFMX1uBZlnPz1u9DOjfj4R30jikAkoyfXqFUvrHRjJ9ALv44IE/81X3Mbw2vT8bpjzGf/f5AA2fpbD6QbAmLpjwBm/c5mb5WzN5d4+NqIvuZOL/vcY022ge+zo/oBc1KexiYq8cDL/O4MCyg3gcPiRzDBTlVCcLOkKHvUmnC7PI+XwCZUU2JHMsphg3Tnf1RmzfkvH8RhQ5mpgxH5MQwPjOVu3HJWPo8xI9x16LlvYJuZ++hqPSgRTaHqW4uk75t2TO78MFD71IUtaf2fOLg+hR04m2/YddS5sgCZIiibrjI5J7lVC47DEOFOsxd7mDhE7H1WmGbSEIQssjEqFA0Eo4sHsX60y7sI0I5+C2rfzAZh67tj2JZthhGsp9tySy74PRPLfoAD5g/cYDGDosYNy9Q/h48xKKLb/z4wYH0wYOJOndNNJ9IHcYxOBkK798uI7KOl7IvDsW83bq91XfvjdkoO/0GQ/dMYS3f/mCQrWcX3/agnfSlVze5r8szFWR43vTO87OlvU7qcoZXJTmZFERXolX81KZe5CDB08cuJCihvLX0fH8PnMkr6woq7og785An7KcaTdcSatlqRQE/Ou9C/v2LyjZfbrZQzr0oRFgW01l+h9YrT5gB5b046qoFtyFFpCseNyn2USTqeG4dH1IGHEjSvpUtr2zCNfRc7ruuEoa3vSX2fdtTy64dQ6d4kqJSskm59U3sTbFcUYOJ65vNJavR7N/dTYA5XtUwgb2OzYBvtm2hSAILYlIhAJJAw0JSQZUFQ0ZWZLQdU6hqz6fbzZlH5sD4TvExo153H9DCp10Syj2VLBuxS9YZg7imuT3Sd8DSUOH0rl0Fa//VocxsdNRc9m2LR9lWBc6KlCoqhSv/o4//vYUg66K49OFuUT06UeyeyOfbXT4vVld8gV0N4UQMeUb1j1z7OeSTo+c04ZWEhTUL/I6clK+4jmK759GyvSrsWxfTvGGryhKywx4j4jSeTSzpt9EnAIgIUnwz/8OBEAt/IZpj31CeqAm4EReSEiED8t33x2XBJ2OC9v3j5PVZRmdBnbFuvRGcnObJsOQ2nQjSM6jMDO3SfYvCILgL5EIBZLmQ/WpaHW66B6rbP1tGatKBjP42h68n6lj+A3tyVkxnc2uGl7uF6nqtmRNO7o3rXwty3/+G89fN4R2n31B8qU9UTfPZoPl5OC1Mz87TJKQ1Fy+fvrvLNx/4hVa81SS3wQzcdWCr9j3wmpyewwjpu9wEiaMJzHrLdLfe51KW+CyIV/2N7w8+Wd0gC7lTqbeobFw+qekeQGvhcJAHrtWfW7V2uOXIi8iIl6P1+EhqM9NhPw0G0tT5EKaBkhIcotanEAQhHOQWJIjgDy/vcDQK59gxUkdON79u0n3tKFP38Rja/so7bjoojg8e9PIPDLB1rmJL5cepM11Ixhy3W1cF7WDrxbv4Wzm355A145+F8Xh2bub/Uc2pln45YsVFCQN56aLLuWKvhJ/fP8LZSdfa90uXFIQISGnvlW8GbvY44mlZ1cTeQcPcvC4knW4lHrnb2fLV4pt+ydkfTSKLTNfwt7uQdpf2u6kSk5UjwbmMHRnc612V5CXnU12djY5xTZU1UpR9f+z88oDe+zlO7FWKIT2HoKxpr9YfQoJY6cSengGO19+lvLw8STdesXZHV89abnbsfniCe+e7Mc6Tf60hQfNp4ExGEXkVoIgBJDoEWoEWtFK5i0ezdxxM5nifp+VB2U6Xz+ecUk5LH7ke4qPJh8+MpZ8zua7nmDyJHCueZpvcs9uko0U24MB/UuwGBPoO2IcY5Ky+fz/vqfkuETHvf0Lvki7lb88MxFJ/p2Zv5Sf0vvjO7yX/bYorr5vPJuVPyhVWtHRsJcvfszAV/w/PvhsFG/eM5u5IR/z5a8ZlHlNRLdrQ8XPX/BrXmPf/2MibPDTRLjXUZGTg9dnxNixJwbFhdN6UnaqWbHlZCENGk3iZYWUWsIwyrso2Lr3zD1gTcW7kdzlPxI95ll6PJhE3vrfsVvcSKbWmNhBwbYMNIIIu3EWbSN/ZN9LC7FXwv7UK+g19nna77yZ/TvL67xbY5fbeHrSjUSmzeO511ZTUJcTU7GcnJ/HkTL0bbpKcynYdxjV3AuDxKnn15+20Cqx5xUgDbiDtv0LKXNEYGInBdszml97CYJwThGJUKOws2nOwzxe+Xceunsqr0ZolGb8yvzH/81Hm068QKsF3/HJirHMvdnKwo/X1nmSNJqDQ9s2c+C6G5k2ZzQG1ULu7p95Z+KbLNx80q1najZfz/sfd716I3z9NT+fbmf2n3n7hUVE/d8tPD37XmR7Hru+epFvV2Vg0exse+shHsy/n/Ej7+ZfI6IxazYKD27iv1u/hLw6xl5fkhlJF074FdOJiwpHxoW3NJ2KlRPJ+qP4pMo+bD9OJTthOnGj3qKVJw/buikUb9uLt64T0w/+xLx5GocabChQxbV+Ijss95E45FYSRt+D3iChWrKwrn+B4u0ZqO0fotNVoRT/53lKqtvRs2UmWf2/JWnkQxTtnUFlnYbIJCKSe9E5LAhd30vpHryGAmtdToyNysX3kFY5icTLn6TrdaFI3krc+RsoLrSeVNeftvBi+WEqufFTiB39LrFH6uzIqHN7CYIgnEwTBS01NbXJY2iKIre7R/tw7SLtgW66Jo5F0Tre/qq24OXbtHZy05+XllCU9qO0WQtma3d2Uk77e8ncURv+zAfaojljtGSl6eMVRRRRzr601GucP0X0CLVAUnBburUPQgpJYcTEscT8MJVP0+s9EykwFBOhERFEVD9io8LeMA/ZaLl0mMODMUoScpjxjM+j07Xpw/U33MC1na2sfmMZGU2/BLUgCEKDEIlQC6TrehvP/ft24n2F7Pp+No/NXhv4VaDPkpx4E1PfuQnQsK5+ifvf2txAzxtroXQ9uW/2ZK4OrZ5x7Ms5bTXNHEtbwz4+mz6HXzItNJO3hyAIQsBJID7jAFJTUxk1alRThyEIgiAIASeucWcmbp8XBEEQBKHFEomQIAiCIAgtlkiEBEEQBEFosUQi1Ay1MbZhdXgsIxphBd3G3JcgCIIgNDfirrFmyKNVLW9w8g3ten0rVgYFYTzNazTNxlOVxayVQnglLJoUTzH32m0UASDRz5zAS3I5t9isVPixL0EQBEFoCUQi1AzZNBVV0zj5+adebxnjrOXIQLAuirkm+Mhays+ApqknPOk9XB/BX3UOXvSqNd4WeKZ9CYIgCEJLIIbGAkZhgDmeFWHxTNIrfjxo8sx8mo8KzUfZST/XNC8HfR4yfR4OVvfkFKlV/z+g+jj6AA3NxzavytWmMLqe5b4EQRAEoSUQiVDA6Oij0xMm6emv6M64Yq8/vD47H7nsZNVjG5nuclZKoTxg0NXYyIHYlyAIgiCcq8TQWMC4WOAoxaGDjS5XvebcaJqTpXV6QObpt/GJy8V8Yxh9PGfu7wnEvgRBEAThXCV6hAKo1GvhP04LW5vJfJtCdwVLCWaMXlevoTpBEARBOF+JROi85uJzl4tkYyg9mjoUQRAEQWiGRCIUQEbZxGC9ibbNqPul2FPBdwQzQi+LXiFBEARBOIlIhALGwF1BrXk2KJZXjcbmM/lKc/GF202IJIlESBAEQRBOIhKhgFHJU6vW7AmVmlfvS57bwppmMm9JEARBEJqTZtNxce7z8qvLSroumL0eF54G3pvFXchVp7nbS9OsPFFpPelndqZXZjG9gWMSBEEQhHON6BEKCJlB5gS+DA6m2FXEm161qQMSBEEQBMEPokcoIFS2uYsZ73RzQBNjUIIgCIJwrhCJUICU+FyUNHUQgiAIgiDUiRgaEwRBEAShxRKJkCAIgiAILZZIhARBEARBaLHEHKFmpqspnveN+qNPr690F3KTw9Hgt+OfP8w8GdaaYUcXcvLwsTWXd31NGZMgCILQXIlEqBny+SqZaK/kkAYq6klJkEyKIZKJxiC6yFDis/OZo4wvfFWLOZ4NoxLKc0FRXKyVc6+1goN1erWe+0LiGK8cv4Skxs/2HCZ7Tl1GoH778mc7/8/efYdHUa0PHP/OzPZk0yFACDW0CCIowk9FiogFUWx4RZGigmJBBWwgigVEEUXEcvUqqIByr8IFFCsoV1SkCEQIoQQC6b1t35n5/ZFACBKygQ2hnM/zzKPZnT3nncLOu2fOnONmTlk67wGyEsYbIdYTrKEOscghTAiJppsvh9vdHvz1XqMgCIIQLCIROi1plGrqMZ9CizXFMMtqYqenkKf80NkcyYMhCo7yXL4+geGLDHIo02zhJKCfYCIlEyLBDk8OL/vUw2U4tL8Hc/J1BVKOjkNXcQCKrlOfDUGKZKKfOZyRJistJInceqxLEARBqB+ij1DQKFxqbcaqsGZMMir1NMWGicEmC/gKmeZ28Lvfwb+cRazFwm0mEwogyzam2Vvwb6uVyMpPSZKNyfYWLLRYCD2iNEmyMNYWgd2bx2v+Y6UMMl1M0bwRGse3YS1YZW/CFLOZ8KPWCZMgV/WwV/WRWrnkHJWh1F4XBLIPAyvn1GhtimKsQeNrZz7/0cT4UYIgCGcikQgFjYHuBiNhkpGLFcPhPj7BJMlmuijwl9+N3dSYZWGx3Cq7+V2FloqJCEDTnLzqKsdrimayyYABhSusUfTTS3nJ46Zq8g2FftZo+mqFPOvx4vx7bSRaYnndYuSAt5CJjhxmeFW6WBrzjMlQdeJIMpFoeFGIrnFi19rqOqS2fRhoOafGHk82Q8sLWOT3c4zZTgRBEIQzgLg1FjQeFroKcRlgo6d++onIkkIUGkmaTojBQKQk0QSNPzQdFIVIoAAo9xfxnNvEPEsjJioqlxn8fOQoYccRjRaNjFGMV9zMKHeSj0T8UXVJUgijTAb+cGXy+qFbXmoBBiWOqUYrMd4ycgFZklF1ne7WZiyToExz85W7kPd9VclBbXVVOf4+DLycmilKJAtDw475WU0r5YGyIrZV/i1LMrYj3vfpGp6jPiPagQRBEM5sIhEKokJ/GR+cop6yKe5sbvVCoQYX/e1dnd2efN4xNGWCyUiyO4vP1KpLtiTZGGsxs9mdxfoaruQGxUwHSSbCFseaau9IyJqBGCAX0LQyniorA8Aim+lrjuJRWyxmRxaz/VpAdR2ppn1Y13JqomqlPFHuwHSM93RdJb2qRrpamvLm4dYvP/92ZPKGX6Q+giAIZxORCJ1BNF2lEJkYWUJCI1cDkImWJdA1io5YV5bN9FAkynVoYwyho7eY7ZXX8BBDCP1lBcUWR7/Dn5AwEMH8MDOzy3JZBUj4WenM5fOjuuLoaOQcIz635uEbVyHtDLFcaTQx1+/GHEBdywPILQKJOZBy0FUOquoxb+HpgHbEX7s9+Tzskw7/naeKJEgQBOFsIxKhIDLLFnorsNPvJr0erpm65iFJhRsNFuxeJ6VUdB7uqUCa10PxoRUlE3fYouiqFnGfS+e+0CiesXi41+WiDHD6CxlRVlytg1iiJZYnZAdPOctI0sGvetilh3CeIpHt8/7tltDxHJlkBFLXkaIMdm4ywEZPGVv0Ey+nJnW5NVauefjzBJ7EEwRBEM4cIhEKGhN32BozWpHI8GRzR72MJ+NlhdfNTdYonjVLLFHhPHMkfXDzitdb+ai4xPnmGEZJLqY5ytivw6suCx/aonjAl8VMv4amqxzUj2zmkYjSK9pDsjR/RYdq3cECr53XzY2ZLZWyzOelCIko2UCpv4zftYrPJZrC6YqHPZqOLhk43xjGDbLKVz5vxfhHgdR1mJlh1ihul+EqvNXG5Ako5gAEfmssEArNFRkTRiIAg2ygtaLh0f0c1E5uiABBEATh1BCJUNBoZGkauqJgl+R6enwecrz5TCSSR8xRzJShUHUxz1F4eAwhsxLORJPED65C1lZeiQt8Rbzra8YT1nC+Li9iW0BXaJ1t7hwe1iIYbQpjoknBqmvkaW4Wq2WV60iESEb6mUIZLSsYdZVs1c2nzmIW+k+kKcXPn34f1xnhD9VfP2MA6SppanBKVhQ7M0PDaXXoBTmG+UYo8OZws8stRgMXBEE4A4hEKGj8/OopJ8UQwi6fpx4vgho7vAWM8R5ruEXwqMXcVVp81Ksqq5wHWVVjmTp/ujLoe4y6tnsLmeAtrDGWDZ7dPgiYAAAgAElEQVQ8NtTlvlmNdVXEuc6VydWuky3n1FDVYu4oOXpfC4IgCGcSMY5QUMj0t8bxRUgI+Z485p1Qa0j18sJkhWhJIVKqr7als5VEiFSx76IkqV7GcxIEQRDOHqJFKCg0tnrzudftZZ9+8j1DFCWMt+xhgJh0te4sjLdXn3R1bUOGIwiCIJzWRCIUJAWq55hzg9VVijuTy91BKOic5WJ6aRrTGzoMQRAE4Ywgbo0JgiAIgnDOEomQIAiCIAjnLJEInQvklvQf8xh39Yqot8f66+R0i0cQBEE4Z4k+QucCQwIDR95K9NzP+PT34oYf6O+k4lEwdbyPVtffSnjTxihqEe6s9WQtnkROZjBHHlJofdsrTL85vvLJM53yn2Yy9u3NDdNx3dCN+997kn72ytRRTWfp5EksTq2X0ZYEQRDOGSIREs4sIdfQ+u7x2Pe9yb53f8WjhWCMCsNXWj9zYWgHl/PiSyvJ0HR0r7Phnt7zJzH/sTEsliTk+ME882S3+qtLgsT+8OCV0C4cCg/Cks/gy1ROOIk2x8Fzj8LFJTD6JUiry+GS4a4pcHeL6i//8gFM/j3IdQmCcM4RiZBwRpFiOmIzZ5L/zbvkpwZ/EpO/Ud2UFRdT3OAXUz+ukhJcgBLuqZ9RtyvFXgIvD4WUVTB5L3QeAOMeBufzsKqmsTWPwxALUx+BtvoJJlIShFgg+St45Y+qMpzHiOWk6xIE4ZwjEqGTpHQcxqxpw+nePARPxhZ+3ugm8YqeNPPsZNnMp5m7rqBiRnOlMb1GPML9N15Cu2id/JR1LHv3TRasz0UFQq+YzvLp57FyzM3M3nroAi/T9u5P+PSONCYPfprVjgCDsrTm6nETuOeabsTZXGTtyMSgUDljvJFLpq5iVqO3uO7hZRQeebWwDuSV7yZSMmkQL/3uqzVmACmsCzfecxsDuifSqkkMEXYTuquQze/ez/jP0iq2/bjxBLqje9J62ic0jaq4UWWdmEIzAHyUfTmQpB8OVG57IrFDnqLpBV2xhprQ3EX4cpaTOncGxUcOSyBFEXnbp7S7SCb/4ztI3XYCgx/YuhF77V3EtDsfa2QjDDYzePIpXTmc5DWpFRdi+zW0fWgy0Y0boShe/HlbKPh+Omm/J6PqQMQg2j8+i9AdD5K08Ed8OmAfQMITc7BvGc22L9ZzSie9l2HQQGAzvPBfKNVhwz5o8SLcehl8txz0SJjyNHTaDuMWQJEOkh2emAKJm+H+JeCojFmywj33gX0NvBEJz7c5qj4JOveDUb2hYyxoJfDbapj3A5ToVevYrZCbDqkZNYdea12CIAjHIBKhk6Q06kDX+EwWPTSblP5TeXmIgwUTx7P/yqk8M3E4a9a/wTZ/CBeOf4vZQ1S+e+d53k6VSBg0hvten0fEQyOZvcmBY8PPbHT1p9el7VC2JlckGnILevdpg+uPBWx0BhiQFEGfJ+byXN9CVrwzhVkZRlr0GMLIrodW0MjPzUdvF0WEBIXGSJo1lihML8QbGU2klM/ufBWoPWYAKepChtzaB/2/rzP7nYMUOFSMoVFwMKsiCao1ngCpW0mfczU5Le6h04hLKV5wL5kZKqCjlWZWrmTAPmgebS5II/3fYyjKcyBZY7HEeHF7jypPbkV4pwQMNoho3wppW0GdWxCksJ7EXj4Afp3OvhX78blUJGsM5KVXleXcQf43U8grykeTogjpOYFWw+ai5lxDWqoPir8mdUF3Oo97mYS0W9n5i4vooc8T7fiA7ctPcRIESGHQORa2fwv23vDRDbD4NVi/Dy5LgHAJCotg9r9g3nh4ch9MXgt9hkG/cnhkaVUShAR97oS+GfDgKmh++9/rS7wBZvWFVUvhozSI7Aj33wRPu+Gp/1FxDhkh0gxOBaKsUOQ6RmtPAHUJgiAci0iEgkEvYN+O7ayzbMcxJJz9W7fwA5t59KqWxFshyTKQkTfGs/tfw3hh8T5UYP3GfZhaLWT0iCv5ePMy8st+58c/XEzr04eE95JJUUFu1Z8B7cr55cN1lAZ4QZRjB3L7VVEkvTWWGUsy0IDfN6h0H9qNaAA0cjJyICaWGEWiYMAUPpsSyls33c+XMbHEaFlkZGtIjQKI+XBMHvauXcEPv/69B03t8QTKjS8vFX9ICRo+/AV7cWUffYPIgNEeAY6fKE3ZQHm5CiRRlnKM4tQtZHwyDa2jRPHaP0/iNooH57b/ULCjht5Daholm9MO/1mebibsormEtW4KqQcAHX/KK+z+ugudb5pDm6aFRCUeJP21eZQfnbydAnIYRAF/FUNoB4iwQ6wNNhQDrSBSgkIdynfCCyvgzaHwaDO4tDPMnwnJR8Qc0xMeag0zX4J8HZofVZcUBncNgA2fwpu/VyY3+8HQCib3gphfIFcHORTUQrhgGHxxN5RnwVfL4cON4A2wLkEQhJqIRCiYdNCRkGRA09CRkSUJQ9tEOhiz+WrTwaq+HeoBNm7MYuy1ibQxLCPfV8K6Vb9QNqM/V7R7n5SdkDBwIG0LV/Pmb4HeEwOldXvaytms2JbNsbu16Dgy0ikKa06TEDsRl3fDKBu4rFcUXzmbEV1wgHQ3GDoHEnMw4gkmN8WrXiB/7DQSn+9H2baV5P/xJXnJqcdoWdHw7VnIgT31G5Fk70GT6x+kcceOmG0yapkD2SjhNZqQONSy4cHx/QTS2q+gTZ8OlC+/jszMBsiCjpLyX/jHz1BUCN0v/fv7e76B9zrAo/1h51JYkl71nhQKY26CLZ/DhhpOX0Nz6GCG8JHw/cgj3pBBzoMYqSIR0vJgypSKtyyRcPm18Mg9YHHAG8mB1SUIglATkQgFk66iqRp1m26sauXy31awumAAA646j/dTDQy+tiXpq55nc11md9d1dCRkueYRetSDqRzQL6J5+8to2XUHCxYo3NKvN4lJzeDAL6TV2hO3DhsYQDzBpOV8ye6XfiLzvEHEXDiYuDH3Ep/2Nin/fJNSx6m+zxRP7OgPaBXzGweXPkxRdglSaG/i752A6ehVIy8iopkRv8uHrfv1hK6ZTVkD5EJaKRQC0REgaZBXCEgVf1NW0R/oEDkKejSHche0vhA6/Ag7Ks9VW2foGwnKvdDn3kMfAIME/3oT3pgM30oVdXz9Piw5uu+PCjnHyJzdRfDdZ9CuMwy4COYlgymAulaWBHMvCYJwNhGJUBD5fnuJgZdX/L/xiNf9e3eQ4ruO7hfGoyRV3GZCacFFFzXFtyuZww8/uTfxxfL9DB4yhCv3Wbg6KokPl+6kLs9G+fdsZ6fvOnr0aoNx265jPu6tF+0jtSiW828fTMvtK5j5HyOdFl3HcGsceUl7KddBCzTmIMQTdGohjm2f4Nj2CQdjR9Ppycdp+X/LSPoh7YiVZIwJ/6BJR5mStYsorY/H75UO2FtYcP7wGhmbd1ekj4ZIPH69eiJkTCRu1LPYM6bz1xI3LR57kYSbNpD0+f/wn+LcTS+Fv3Lghs5g/62is7Rkg4tbw4HVR3RgNsGwe6HLQXhwMdz7BDx9C9y/CMp0cG2Fu5+h2oCZna6DSfEw5V34qwz86bDbD4ktIGcTBJzvH5VTB1KXIAhCTUQidAroed8yf+kw5o6ewVTv+3y7X6btNfcyOiGdpQ99f0RfG5U9y/7N5jsm8uQkcP88ha8y63aB1vO/Y/6Xw3hr5KvMlD5g6Z9ZeELOI1aiKqFS97Jzj5HbLk3gmyfWUpiv8PWf43mxn8KP/95fkfQEHHMQ4gkaC2EDphDhXUdJejp+1Yy5dRdMigd3+VH3TJQLiBv+HM0aQSNLMn/+Z1PwH7fW9uDI9BHd4z6apC+mrNgJ1vMwG468ZNsIu24WzSN/ZPfMRThLYe+S3nQd9SIt/7qBvX8V17lac/tbmDLpOiKT5/PC6z+RU5cN0+Cr72HIcJiSDf/ZC4kD4HJg1i8cvk3a5Xq4KxJenAf7S+G1RfD+vXBfEszaBpoLDrqqFx3lBPyQlQPlGlACH6+GWVfDqzb4bxIUqxAVC6VbYX3lg3yJl0MXP+wtAN0CXS6F66Ng1UYqEutA6hIEQaiBSIROCSeb5jzAhNLHGHfns7wWoVO451cWTHiDjzZVv0BrOd/wyapRzL2hnEUfrw24k/SRdW1+8wEeKXiIMTc+wsuj7SjeUvL2/cm3aY6Ki71exs4dafjabGbpunLQYe3SH8m7rC3bd7oOlxNozCcdT7BIViRDOOG9n6dpVDgyHvyFKZR8O560DfnV19X2U5K8l8YhEsW79tfPmDPafrLmj8dw0wM0vfNDWtpM6N5S/MVJFOdXbLvcahxt+trJ/+BFCioPtu/PGaRd/DUJN48jb9d0Sut0i0wiol1X2obZMFz4f3QK+Zmc8rptXc46eNIMD10F06+FwgPwzpvwTeW4PeY28Fh/WP0e/K+04rXCTfDPXjBpKHyzE5ICjDnpS3i0AEb1hQm9waJBfjZ8thsoACSwRUDfnjAyGowqZB+ARW/D4uQ6bZYgCEKNdLGgL1mypMFjEMvptCh669te0xe+coveQm7oWKovSsuh+qyFs/Xb2yjHfF+yttYHP/MvffGc4Xo7peHjFYtYxNLwi7jG1byIFiFBOB7Fgj0igojKKTZKnA01yYYBa3gIZklCDjNXzn92jLWadOeaa6/lqrbl/PTWCvaIqcgEQRCOSyRCgnAccvz1PPvu9UBDT7rahZGzq0+6eiy6NZbmpt18/vwcfkktQz+FIQqCIJyJqoYyOcctWbKEoUOHNnQYgiAIghB04hpXM7mhAxAEQRAEQWgoIhESBEEQBOGcJRIhQRDOcDIdTRGMN5lFp0dBEOpMfG+cZjpYmvG+2Xj4qaBSby7Xu1wN00G3DqIN4TxiCaW7rGBBI1t18293PsvO2KeWrDwd1phBh8c+9PFxeSbvnbHbU93ZdbxkuhjDGKJ7edcbyECdEonmWGaZJZY5svnn3yeiO+3UdLz+q4XyWlg0PSvX8/ryuNrpDHyU7tOczRDJO7YQnJ5cHvJ4T3gQ1oDKkQycpxjxqy5SajglTjYeSTq7j9eZSiRCpyFVLWW8s5QDOmhoRyVBMommSMabbbSXoUB18rmriP+o2gn3ejcrdl6wRdFTL2ZEeQn761iXJIXwqC2C89RiZjvd5CITJckUHDWir1kOYUJINN18Odzu9lT7ErEroYwy2+ljMBKNTp7mYrm7iIV+9YjJWg30sUQyymihlSxRprlZ4ynmXa8XZ522OJBy3MwpS+c9QFbCeCPEWqcaqpydxyswwd/24JBorBixS9BSlpBU/bR+YuR4x0vXnbxS5sEmKVxhbcywk6insSmWJVZLtemBAAq8OdzscuOTrEwKjeYqWcGCjkdXSVNdfOku5qvKY6ooEXwUGspWRwavHZ4fRqKHNY5XlTLuLi9hbx1isspGmkkKXlnBwImPRh9IOYps55kQK2vLXaTU8IPgZOMJ5vESgkckQqcljVJNpeAY78SaYphlNbHTU8hTfuhsjuTBEAVHeS5fn8BUAgY5lGm2cBL4+8Ug0Lpk2Uhryc9qdyk/HuPXtSKZ6GcOZ6TJSgtJIvfvUXCVJZwL9HI+dHnJw0AfcwRjbBK5ZXl8qwNIdLPEMs3kZ6Erlxc1aG2M4BFrIxQtk1cDnpQr0HJ0HLqKA1B0nRNtKDk7j1dggr3twaPxsyuLuz2Q3uBJWe2Of7w0sjUN0LggKBviYm55EX8c8Ypf9+MHJBRiZZm9nhxe82lYJROXmSN4PMQA5bmsrIdjWuDNZ4RqwK95cZ8V5QT7eAnBIBKhoFG41BrLFCOsduUwy6fWwxesicEmC/jymeZ2UgKsV6GlPZrbTCa+dXvRZRvPhsSQ6M9jjMtFESBJNp4OjSHRl8tYt5vyytIkycJYWwR2bx6vyTG8pNStLhULj9pjuaWyp1mr0Bb8AwCdv9yZ3O/xowGtTVGMNfhY6swnxhrD5X/bLj9fODJZSlXC8adupGeIjS6KxLd+HTDS06iQ583nI19F68QetZiOxlh6GIwofu8RycrxjkVdyjlZZ+vxqojx8ZBI+soKoRIUax5+9hQxz+vFFXA8gVK42BzJvSYrCTIUqFWthUeWoShhzLJHkSjLuDUP37sLedfnq7pgSSHMDIvhsiM+4/LlcY3T2SC3nmvfh4Edr+DSyVF9pB4r3sr/lms+dqsqOl6SNIlO9kiuMCh85Q3ev5zAbiHJ9LTEMNpopLmkECrpFKluvvYU8aGvMnkLqJzq+/mO0JbcUflOsTeXIS4X/gBvadV+TIXTkUiEgsZAd4ORMAkuVgwoPjXok4pKspkuCvzldWM3NWaBRWKRI5/fVeitmIjAS4Hm5FVXOe+FRDNZzeZJr05faxT99FIe9lRdVEGhnzWavloh93u8xFtPoC48zHdk8l8ljFdsFjY6c1lc+V3o1qtuae3xZDPUAzom7qth23Sqt7rYJIUQ3c9B7VAKo5KuQSODjU6ShyQdjLKZTpLGTr//qIvq8Y5FXco5OWf18dK9/OAp5DtNxYlCe1MED1tjcKlZzFP1AOMJhEw3SywzTTo/egr4pwptTRHcExJLhCObN/1VqYCEToqnkIUaxBnDGWNrTIgzi+m+ylYf3cWsskzertyfV9ka05CjqtS2DwnweDUkXddxAjYkpFrXrku5Tl4u82BF4Upb48OJSXUyLRQLHfUynne5KEHhfHMEI63RFKs5LNECLafm/axWtoYFVk4gx1Q4HYlEKGg8LHQV4jLARs+J9KeonSwpRKGRpOmEGAxEShJN0PhD00FRiKRinspyfxHPuU3MszRioqJymcHPR44Sdhzx77CRMYrxipsZ5U7ykYg/obp0ijQfpZKGH51SzUdaDd/OdfkKMMqhPG6xkuvNYcXh8lS+dRXQLSSaN0LNrPX7iDVY0T15zPUfXenxjkVdyqmZokSyMDTsb/sNQNNKeaCsiO1n9fHys8lXtWdT3BLdjTF0MSjIqh8pwG2vjSTbGG4ysMeTxQyPDxXY4PdhDG3KCLONhf7yw+X41TLe91b+Svd7MSrNGGMK4X1fWeXtPY087dAG6xQ1+HXp+PtQq8PxCh4bL4a3POJvJ8+W5vHDMfaVUTLS22Knu+7hHX9F61RNU7/UnUZu5S2kwlqOk6Z5+MXvxgNs1mS62SP5P4PCv70qekDlBLKfA42ntmMqnI5EIhREhf4yPqiPDOgYUtzZ3OqFQg0u+tu7Ors9+bxjaMoEk5FkdxafHfFrRJJsjLWY2ezOYn0AF4Pj1xVcFsXOc7ZIWqkFPOr2VOsEbZWNNMPP714H2yUTjZFpbwylh8/D6qO+YY53LOpSTk1UrZQnyh2YjvGerqscPQHG2Xa8ZMnMLZYIBhmMxErg1HUsEmQfo13gZOIxyGbaSSrfVGut87PZr3KPyUQbakqo/Gzz+1FMRlrCCfdzqk912Yenjpt55UVsOPy3Rla1c07iYmsca6wSCqBqLuY7C1h6mlzhNc1Ppg4JkoxEfXRPOL7T85gKtRGJ0BlE01UKkYmRJSQ0cjUAmWhZAl2j6Ih1ZdlMD0WiXIc2xhA6eovZXvmtEGIIob+soNji6Hf4ExIGIpgfZmZ2WS4r6lBXsIQo4bwcEka4L5+HXc6jLl4W7rGGYfBmMbWyZeALj4OHQhszwezkN5crwHvwQSpHVzmoqsf8etMBDZDO2uNlYIitMeNkNx+681mvaUiShXtsEURVrlGXc7U2J3YJkYJ8sybYat+HDUMjS/Wyu8b3dZLcObzi02lpjmGqQWOfWnWbTkc/ZsvQob9P5NZzXZMZjWOfM4GUc3LrnK7HVKiNSISCyCxb6K3ATr+b9Hr4KaJrHpJUuNFgwe51UkpFB9qeCqR5PRQfWlEycYctiq5qEfe5dO4LjeIZi4d7XS7KAKe/kBFlxdVG00y0xPKE7OApZxlJOuh6gHUFiSzZeNwWTpQvj4ddrr/9ypdlI61knXStqmVA1z1sVXVukg2EQrUEJspg5yYDbPSUsUU/8XJqEsitsW1n7fEy0lmRSPUU86nPV3kRlMnWOfyFH/C5Wgu/5mGXHsIFBgOK6qs8Zga6GxR8qveYnXqpXOeiWtepWU3nT/DUvg/rygtIkowV6nVcGpfuJ01T2e/O57OQJjxssfKny0UpoGsVCXBLWUHm0K0ghZaKjK6rJ3Ae6rgBSVII5WS2K5ByNLzIhEjHm4LzeOXU7ZiequMl1E4kQkFj4g5bY0YrEhmebO44oXFXauNlhdfNTdYonjVLLFHhPHMkfXDzivfQUzgS55tjGCW5mOYoY78Or7osfGiL4gFfFjP9GpquclA/8reZRJRe0Y6RpfkrO+gGUlegFJorMiaMRAAG2UBrRcNT2RlaR6os28mrXj/hipHwyk9qusoBTUPTPPypStxhjmKIXsYWDRoZ7Iw2SKR63EclTmaGWaO4XYar8FYbA6du5dQssFtjZ+vx8pGiQj9TODdrZWzTdGTJRONqP8ODE4+uOfnEG8ZscyOeopgfVGhjimCE4me5w1nteEmymV4GjXIMdDOFM0zx8+VR6wSm5vMneALZh3WhkaaqyKZQRphU1usyTfGy3Oer47GXiFWMtDniFV3XyNHUv/9A0L0scpczMCSS4V4381QdXXfxo0/nCUs0o/US1lV2XL9T0dlQmSzVdbtSVT+SKZTRJj//02Xi8LKszttVezmq5iNVV+hrDmcrbopQaCl5WVqtruOVU5djGqzjJQSDSISCRiNL09AVBbsk11ujfI43n4lE8og5ipkyFKou5jkKD4/LYlbCmWiS+MFVyNrKHzUFviLe9TXjCWs4X5cXsS3AX7i11RUoRbEzMzScVodekGOYbzxioDYUEhUFoxzC06Eh1T7r8xdwg6OcErx86szHYAlnhK0JEyRwaD42e/OY6/Ed1QnRz59+H9cZ4Q/16CfB6lLOcegqaWrtX1ln5/Hy86UrD7slnKHWxjwgSfh1jVLdy+9aVbDBiUfjT3cOT+pRjDVF87IMRaqbhY4iPj7cuV3joOohzRjKMyFhmHSNLNXJB45iPq9DB/gqxzt/giWwfRg4ne2eQhYpUdxgbcQQXWWnt5Dvfb4jnjwMhJWHQqs/kqjrDp4ozefXY6zt8JeyyB/COEsoXzrKyEJllSuXUEskN1kbM1wCh+blV3cub3lP7Em3XZ5CPlKiGGppxCAqtuvbOm9XAOXoTv7pKiXSEsoTIeHIup9kbyHfHFVXzeXU5ZgG63gJwaKLBX3JkiUnXUa4EqF/EBanP26QT7iMDpZm+prQcL3tabBPxFKxKEqE/nF4M32s0vCxiCVYi1EfEdpCX2m16sYGj0UsYqn/JRjXuLN1ES1CQSHT39qUp42w0ZPHvBP6FVq9vDBZIVqvmGKjSNeDEqVQFxIhkowFkCUpiI8FCw0l1hjOTbKf7aqGRbFzg6Kz5STmrxIE4ewgEqGg0Njqzedet5d9QUhaFCWMt+xhwJkz6erZx8J4e/VJV9c2ZDjCSZKIkIx0M9kZIstImp8tnnzeqNMI8CbuszdluFzzGgc8+aw1xnDncdfJ4s46jax9MgKJ+VyORxAqnjIUzQ3AkiVLGDq0IceZFQTh9CYRLRuJOk4HQK/mp1wy1LKOj7RT1sobSMzncjznDnGNq5loERIEQQiIToEWwNQgeqDTh5wKAcZ8ypxu8QgCHKeBUhAEQRAE4ewmEiFBCITchuhBk4nrFHnq65ZCCO01gdaXdz2tx0oWBEE4E4lbY4IQCLkDMQOHY1y2gIzkukwQodD6tleYfnN85ZNnOuU/zWTs25vr0AE+HPsl9xJbtpO0tVsD6NRnxj5oER37Gsh59x8c2BvY5CMNR8HU8T5aXX8r4U0bo6hFuLPWk7V4Ejllt5D40nQiKr+ptD8f5o/3vzq3Jq80xWFv3w59/8+Ul59g3xlDN+5/70n62StTaTWdpZMnsThVdEkWBJEICcIpoB1czosvrSRD09G9znp+CtCEKbYVRpuMNdJMYJOGNKCQa2h993js+95k37u/4tFCMEaF4SvVwPkNe2f8iSJFE3PnfJqdcCUypj6fcOFtvY5qVdPw/m8kmxavQ7cMoO0TM4iJDkdRdDRnDq7U78n+ag45ByrGRJaaP0LXx4dS+lYfUncdOopGwm9fS2LrRWx9eS7OIGdpUrM7SRhzJYWz/0d5+QkmLv4k5j82hsWShBw/mGee7BbcIAXhDCYSIUE4FVQ3ZcXFFJ+SpowyChZez9bvJdzpwZ4VLvikmI7YzJnkf/Mu+alHj+pTgierBKRYvJ4gPEnkX8v+V2dQfDif0NEdGRWtbEo4pmg7zu9GkLrVgRLegcgBE2nzUEv0GWPILTyT26H8uEpKcAFKuEc8mi4IRxCJ0ElSOg5j1rThdG8egidjCz9vdJN4RU+aeXaybObTzF1XUNGMrzSm14hHuP/GS2gXrZOfso5l777JgvW5qEDoFdNZPv08Vo65mdlbD10MZNre/Qmf3pHG5MFPs9oRYFC2bsReexcx7c7HGtkIg80MnnxKVw4neU1qxZe+/RraPjSZ6MaNUBQv/rwtFHw/nbTfk1F1IGIQ7R+fReiOB0la+CM+HbAPIOGJOdi3jGbbF+sr1gsWuTHh/ScRf1k/QqPt4C3Ak72dgpWTOJDsIPLO3+gQ8Sqb5n1eEcshpkF0eOVZ/O9dyt5kH8hNiBj4FC0u64PNruNL/4mclTPJSM6uuqUUyP4xJRBz/RTiL+6BxezCnXYQWamnyREDiRmQWoym0zPPYm8Ugpq/kfxvXiTtj91Vt4msQ+j48mtEGQ+9oKNufIANH37bMLeSajvHlJ60nvYJTaMqbhpaJ6ZUtvj4KPtyIEk/HAh+THo5nqxdOGscRVFHLUzBcbAQDm6jNMNK6LSniOkURe66/ODFIUUQMfh1WlyYiDUyElkvxZO2muyVr5K1K68yMau+f+Ie30UcABq+dXezceHaivUCOZ8FQbdcFxEAACAASURBVKiRSIROktKoA13jM1n00GxS+k/l5SEOFkwcz/4rp/LMxOGsWf8G2/whXDj+LWYPUfnuned5O1UiYdAY7nt9HhEPjWT2JgeODT+z0dWfXpe2Q9maXPGLTW5B7z5tcP2xgI3OwGOSwnoSe/kA+HU6+1bsx+dSkawxkJde9aXo3EH+N1PIK8pHk6II6TmBVsPmouZcQ1qqD4q/JnVBdzqPe5mEtFvZ+YuL6KHPE+34gO3Lg5wEEULYkAV06mul+LuXSNmViWa5nBZ3301Yk1BILsNbnAvNYzBK4DNEYYmQ8eblo9kbYSQHZ4kGhBJ+0wI6Xuonf/kTHMiWsfV8mPj7F2B862b27SoPbP9IkUT94yPadS0gd8Wj7Ms3Ym3/D+LaHG8bTlRgMQOgOHGsnUZmrg9L9wdocddHKO7r2LOtstXH/QOpLw0kTQakRjS6awFN6yPkQNV2jqlbSZ9zNTkt7qHTiEspXnAvmRkqoKOVZjZk5FU85Wi6hGw01r5undiwJvwfIeXzSVm0BtXQjLDeD9PigQUY595C2h7ncfeP7qxKkgP69y4IQo1EIhQMegH7dmxnnWU7jiHh7N+6hR/YzKNXtSTeCkmWgYy8MZ7d/xrGC4v3oQLrN+7D1Goho0dcycebl5Ff9js//uFiWp8+JLyXTIoKcqv+DGhXzi8frqO0zt9oHpzb/kPBjhp6o6hplGxOO/xnebqZsIvmEta6KaQeAHT8Ka+w++sudL5pDm2aFhKVeJD01+ZR7j3B/VST8EHEXd4G13c3krJyR8WXtyEcj0bl7O4anvwsCG+CUZYwdJ9B12F2Dky7k+zwppj0TNxFKoRfR9xlLXGuuo69a/agA8Upu5FjVxI3cBAZuz/He3g/Hmf/RA6m6YXRlP13GHt/OghA8U6NsD49CPblMKCYK1fV933GgZ8rOwrvTEFq8g0t+g3iQNLCiu3Sy/HmViZOkgufr4Evg7WeY258ean4Q0rQ8OEv2Isru55v2hivpcOb11b97fuWXZPGkf+3c1pCDm1H5KBRhPk3cmB7br2EoxcnUZyyHg0oSdkJk5bSbOAgMvf+G59el/1Ty793QRBqJBKhYNJBR0KSAU1DR0aWJAxtE+lgzOarTQer7s2rB9i4MYux1ybSxrCMfF8J61b9QtmM/lzR7n1SdkLCwIG0LVzNm78Fek8scJK9B02uf5DGHTtitsmoZQ5ko4TXaDpiuHEPju8nkNZ+BW36dKB8+XVkZgY7CwKpWVdClUzyduyq4ResjlpwAJ+tBWZLOMYuFyHLJiI7xZDrbo6xdB9uL0ituhCiZJK3a39VOdp+SnZlEH9xF6zK53gDmFhKatIRm5xFbmr9t0pIzQKI+VjXPj2dstQMpJ6dsCkEtF2nWmDn2Cnm/4X9s2dScmh/6aV4quUORsJvX0evfyjIioxe9D8OvjeJrLxT0KvGv5vilEya9zgfm/LvqhgFQahXIhEKJl1FUzXqNjp81crlv61gdcEABlx1Hu+nGhh8bUvSVz3P5mB3TJHiiR39Aa1ifuPg0ocpyi5BCu1N/L0TKltgjlg18iIimhnxu3zYul9P6JrZlAU7F5Ik4Pj7Tc/djVvvhSWuL9a2SWR8ZyC2a39C98dDzhpctXaCqcNB0XVAQpIbetSe48UsVSy6fnre/qjDOXZK6aV40nfgqDHJ8FP21TD2bnFhu/x12nUtwJl1xDjImoqOjHTULLySYgD9ZHti6RVlSNJRT7adlkdYEM4aYkDFIPL99hIDL5/IqqMacPx7d5Dia0L3C+OrZjFXWnDRRU3x7Urm8IMy7k18sXw/Ta4ewpVX38LVUUl8uXRn8GfHVjpgb2HB+etrZGxejyNzJ+Wpf+HxH/WFa0wkbtSz2DOm89crz1Ecfi8JN/XGEOT8QM/agVNrRlhC85oHDCzfg7O8Kfb+t2Df/1+y1i6nvNUQ4jrE483cjaqDnpmEQ21GWPtWVeXIrQhvH4eW8ReuAH/U65nbcKjNCO/Urt4HMDzhmJXWFeukJ+Gsc2OFjDFhGPHX3UlYWD19BQR6jgXMh67qYA5BqdeDoqOVpuHK3knB0ifIdFxN6xv6Hj7n9bJcfHoE1iaNqz4iNcEWa0cvzeWk7kZKzbG3jUPPSq5+TH1uNEIwWMXXtSDUB9EidAroed8yf+kw5o6ewVTv+3y7X6btNfcyOiGdpQ99T/7hL0+VPcv+zeY7JvLkJHD/PIWvMuvheR9tD45MH9E97qNJ+mLKip1gPQ9ztQzHRth1s2ge+SO7Zy7CWQp7l/Sm66gXafnXDez9q/pj2eb2tzBl0nVEJs/nhdd/IqcuF4TilWRtHEuHa+bS1v82BXky5va3EWYE9+GYd+HIMNK0cwfy3v8BX6lC3u4naX+BQsHavRW/mUtWkPHLKDpd/SYJvrnkZcvYLn6IuLg0ct/66oj+QbUoWUn6/0aTOPAdOkhzydmdgWbtikmqh9/mgcRceVikyPOJ7JCP39Sc8EsfoFmz/WS/9VXdL77KBcQNf45mjaCRJZk//7Mp+NsV0DlWB3opzqwcpEv/QfOLcylyRWDhL3K27alb7FIo5qbtsR2ZaGgleHJy/v5IuW8bGV9+Scy4J4n79TfSUt1Q/jP5Ox20vWoGLUrnUZgPlq4PEtfaQfGna+t8LKQ2t9OiL5Tk+rF0e4D4VgXk/7P6uaoXJON0RxM18GFKpF/xKbHYDMlk/5ki2ooEIQhEInRKONk05wEmlD7GuDuf5bUIncI9v7Jgwht8tKl685GW8w2frBrF3BvKWfTx2hPoJB0AbT9Z88djuOkBmt75IS1tJnRvKf7iJIrzHeiA3Gocbfrayf/gRQoqg/D9OYO0i78m4eZx5O2aTunhW2QSEe260jbMhuHC/6NTyM/k1GUEXL2Yws9Hsds1mfhrZtHI7MK9L636I996GeVpqWhNN5CzvQx0KFq3Cm/nDpQdOPRInYOSL0ew0zmZFgNm0ilUx5vxMxnvziDjyKevauWgdOldJJdOIv6yp+lwtR3JX4o3+w/yc+tSTmB11R6zE9fe9Th73EzCA6OQ9TI8aas58PYssnafQP8xbT8lyXtpHCJRfGTfpGAK4ByrGz9lPzxLZrOpxA57j1hfFo51U8lP2kOdGpkMl9Pqqcurv+Zays4nJlJ4jNXVlPfI3DOEloNvJefNT3Dr2eR+MhbDTRNpctuHxFl1/IV/UfTlWNLW59R5q/CHEtr3eZpEW1DzN5L78QTSth019pN7NQcWzcd4wz9IuH8suDMo/2UqeVtS6rbtgiDUSBcL+pIlSxo8hjN5kayt9cHP/EtfPGe43k4JQpmGa/QOc3bqnfs1b/BtO7lF0Vvf9pq+8JVb9BbyKaxXTtCbP7VT73HH5brU4PtALH9bpGZ608d26r3uHaTLp7hupeVQfdbC2frtbZSG3w9iOWWLuMbVvIgWIeGkGZp055prr+WqtuX89NYK9ohha/9OsWCPiCCicoqNEmewH3OWMXd7kCZRBynLLkZpOYzYZg5Kv/8LPcg1CWciA9bwEMyShBxmRqn9A4JwzhCJkHDSdGsszU27+fz5OfySWiYuvMcgx1/Ps+9eD5zIpKuBMGAMTyCs9zCaRIaBcz8l3z7Kvk3HuuFTU5BdaDHlC5o3qekyqeL67kkKz3+ZuOOt8+0tbPnvtlNzHgQS8+kYz/IgjlIdCEMXRs6uPumqIAgVGmw4j9PNkiVLGDp0aEOHIQgNyIKpSWuMNXZo1tHKslCtTWtZZx+uEncN7wdbIDGfy/EIQgVxjauZaBESBKGSG292MrUOE1VSXPs6p0yAMZ8yp1s8giDURgxMIQiCIAjCOUskQkIFuSX9xzzGXb0i6n0QwTOS3IboQZOJ6xTZ0JEIgiAIQSQSIaGCIYGBI2+ld2ubSISORe5AzMDhRDYJaehIBEEQhCASiZAgCIIgCOcskQgJgiAIgnDOEk+NnSSl4zBmTRtO9+YheDK28PNGN4lX9KSZZyfLZj7N3HUFFVNFKI3pNeIR7r/xEtpF6+SnrGPZu2+yYH0uKhB6xXSWTz+PlWNuZvbWQ9OsyrS9+xM+vSONyYOfZrUDJFt7rn/4Ee7o15n4CCN+Rwn5ad/w6oNv8KsD5MZX8uL8aZz3+5OMemEthTpIUX2YumA6ndc8zKjXN1GuA5bWXD1uAvdc0404m4usHZkYFKjzJAG2bsReexcx7c7HGtkIg80MnnxKVw4neU1q5dgMRkwdhhN/5c1EtG6Nyaihlh+k9IcJpKzegR4xiPaPzyJ0x4MkLfyxYr4m+wASnpiDfctotn2xHjWYgzxIkdj7TCT+kssJjY2Cku0U/TST/Ws2Vc0VZUog5vopxF/cA4vZhTvtILICnkNlnOqYBUEQhHohEqGTpDTqQNf4TBY9NJuU/lN5eYiDBRPHs//KqTwzcThr1r/BNn8IF45/i9lDVL5753neTpVIGDSG+16fR8RDI5m9yYFjw89sdPWn16XtULYmV0wAKbegd582uP5YwEYngIEuY1/hqX7pfPTaY/xy0IkSGkN8nJ8Drop4tNwfmPHs+fxrzjM8+9fdTFjmov+kJxlQ8gn3vV2ZBEkR9HliLs/1LWTFO1OYlWGkRY8hjOxa9+2XwnoSe/kA+HU6+1bsx+dSkawxkJdemQTJmLrPpMuoq9CTPyHzs9dxlbqQ7C1R8ivXKf6a1AXd6TzuZRLSbmXnLy6ihz5PtOMDti8PdkJhxT5oAYmXe8ld8QwHD5RjbD+SVjf8kwT3YJJ/zQQpkqh/fES7rgXkrniUfflGrO3/QVybI4o5pTELgiAI9UUkQsGgF7Bvx3bWWbbjGBLO/q1b+IHNPHpVS+KtkGQZyMgb49n9r2G8sHgfKrB+4z5MrRYyesSVfLx5Gfllv/PjHy6m9elDwnvJpKggt+rPgHbl/PLhusrJVxUio8KhZB1/btjM9qKKaUm3bagWDGUb5jLl/UTef+QlnmxbzOX/l8H793zI9sox3OTYgdx+VRRJb41lxpIMNOD3DSrdh3Yj+oR2gAfntv9QsOMYYyUbuhM35DqUlGfZ+u5iPIdnUl1XLWZ/yivs/roLnW+aQ5umhUQlHiT9tXmUB3tAlrBBNO8fR/FnV7Lvj8pRl9NSkFv+j4SLB2D+7WM8kYNpemE0Zf8dxt6fDgJQvFMjrE8PjA0RsyAIglBvRB+hYNJBR0KSAU1DR0aWJAxtE+lgzGbzpoMcnoZLPcDGjVkY2yfSxgDoJaxb9QtlLftzRTsFUEgYOJC2hatZ+duhGcY9/PbBa3wnDeat/y7ln88/wM2XtCTkb0fRy64FU5m7LZ4bhl5E1oLpLNxTdXVWWrenrZxN0rbs6jO814fICwiNUCnb/M0RSdCxeHB8P4G01JbE9vk/PN9NJjMz+BmFFNeNUHMYUXeuo9ebyZXLH7S7IBQpohkmCaQmHbHJWZSlZtZS2qmJWRAEQag/okUomHQVTdXQ63RbpGrl8t9WsLpgAAOuOo/3Uw0MvrYl6aueZ7Onam1v2kqm3r6OTy+5kqsGXsXoV4YzdseHPDnpfTaXVJUlN7mAnglGysr8tL3iahI/e5sk16EqdXQkZPkUPCivV2Y/Wu07RYq8iIhmRvwuH7bu1xO6ZjZl9ZFXaOnkfjSGzKyjMjN/cUWypuuAhBTA/jllMQuCIAj1QrQIBZHvt5cYePlEVjmqv+7fu4MUXxO6XxhfNeuz0oKLLmqKb1cyqYf6Rrs38cXy/TS5eghXXn0LV0cl8eXSnfg5ir+IXWuXMHfK3dx4x5vs7TiKB69vXnUwzR0Y8eIkLtj1OveMfIX1je9k2sO9CKu8rvv3bGenrwk9erU54lZPPSn+i/ISBXu3KzEf72wzJhI36lnsGdP565XnKA6/l4SbelPjlE0nSM/chkNtij3egid7L64jl/yKju0V6zQjvFO744+pdIpiFgRBEOqPSIROAT3vW+YvTafd6BlMHXYFl1xyJcOfe5nRCeksXfA9+YcbS1T2LPs3m0Ou5slJfdF//oyvMo9stTDTffjTjLv1Ci4+P5GOiRfQq1cijY1eSoodlW1LNi4YO417Ytcy47kvSD2wkumvrMF649M8fGl4xSy7+d8x/8uDtB75KjPHDqb3xRdx8aXnEVsfF3D/RjJX/oh23nOcd/9TNL2oH+EdLiWi64006ZpQmWjYCLtuFs0jfyT140U4c79k75JvUS59kZbnRfytSHP7W3jh/fm89VjfusdcsoKDa/ZgufKfJN42mpjOlxLeaQCN+g4nMqryn0PJStL/l4Z14Dt0uO5mIjv0IrxzV0zV6qpbzIIgCMLpSdwaOyWcbJrzABNKH2Pcnc/yWoRO4Z5fWTDhDT7aVL35SMv5hk9WjWLuDeUs+nhtZSfpSpIVgzGMi256ktubhmPGTUnWHjZ+9DRzVhWiA+bOo3jytlC+fWo2aworPlyw+g3eWvcZUx4dzcqNr7PF7WTzmw/wSMFDjLnxEV4ebUfxlpK370++TXMQ3AeeNDzrx5NUNpL4K28ibthdGE0SWlka5etfIn/bHrSW42jT107+By9SULnBvj9nkHbx1yTcPI68XdMpPXy7SSKiXVfahtkwXPh/dAr5mZzyukTspGz5cLYXPUJ873toe2kMsl6GN/sPMvcsgkIAB6VL7yK5dBLxlz1Nh6vtSP5SvNl/kJ9bDoDcqi4xC4IgCKczXSzoS5YsafAYxBLYIllb64Of+Ze+eM5wvZ3S8PGIRSxiEcvpvohrXM2LaBESziiGJt255tpruaptOT+9tYI9au2fEQRBEISaiERIOKPo1liam3bz+fNz+CW1DL2hAxIEQRDOaCIREs4o6r5VvPNuQ0chCIIgnC3EU2OCIAiCIJyzRCIkCIIgCMI5SyRCQuDkNkQPmkxcp8izq65AnG7xCIIgCEEhEiEhcHIHYgYOJ7JJyNlVVyBOOB6F1re9xuIlS1iyZAlLlnzOh+O61/+I3ucoY9yFDBzYgxbmEyzA0I37//V55bFawpLFs7m9jVL75wRBOGOJztLnKmNLoq99muY9/w9bqIQ/bxP537/MgfU7UcWjWEGnHVzOiy+tJEPT0b1OfA0d0FlKbtGH4SNMfLBuIwc8NZ/I5jh47lG4uARGvwRphwZw9ycx/7ExLJYk5PjBPPNkt1MTuCAIDUYkQuckK2E3fEj7izLJWDKKPbky1h6P0vqO95FLrmJvsrOhAzz7qG7Kiosp1mpfVagjKZSeI8ZxfsGPfJOaRXaeieLo7gy+vR8RW9/h0w3VR0s3xMLUR6CtzjGGX/DjKinBBSjhHsQwVYJw9hOJ0ElSOg5j1rThdG8egidjCz9vdJN4RU+aeXaybObTzF1XMZEnSmN6jXiE+2+8hHbROvkp61j27pssWJ+LCoReMZ3l089j5Zibmb310DSrMm3v/oRP70hj8uCnWe2oOY5qbN2IvfYuYtqdjzWyEQabGTz5lK4cTvKaVHS5HZGJcXg2TOLg5s3ogCNrFqEXLCSibSuk5B0VFwhTAjHXTyH+4h5YzC7caQeRFfAEfzfWUpeRyDt/o0PEq2ya9zm+I69epkF0eOVZ/O9dyt5kH8hNiBj4FC0u64PNruNL/4mclTPJSM6uuujVtn9O9bYHEo/9Gto+NJnoxo1QFC/+vC0UfD+dtN+TK1rwIgbR/vFZhO54kKSFP1bsI/sAEp6Yg33LaLZ9sb7OLX3GCx/gvXEac8e+w59/m/k3SNuFEVOH4cRfeTMRrVtjMmqo5Qcp/WECKat3oAeyXZIdg67S7LKRTLnOhsUq8cDkHpTmpLF9ZxgSVYmQZIV77gP7GngjEp5vcwLbJQjCWUUkQidJadSBrvGZLHpoNin9p/LyEAcLJo5n/5VTeWbicNasf4Nt/hAuHP8Ws4eofPfO87ydKpEwaAz3vT6PiIdGMnuTA8eGn9no6v//7N15WFTV/8Dx950FGPZNARFRFlHUUNQ0SzFT3M0tKwtTKysry9RvpqZpLmlqubTaIplatGhqWZqpJZkbqaiIIIvsMCAwM6wzc39/gKLlAjmC/jyv5znPwwxn7v2ce0fux3PPPYeu9waiPBZX9T9RRTO6h/lRejCSw3XopJEcu+DRozf8uZDkrSlUlpqQNO6Ql151QZBzKMuvxCqoD/Y2f6Mrk5EadcTe8Tz6lHNVdSQXXB/5nMCQfHK3TiZZq0bT8hG8b8aF47r7MlNRmAtN3VFLUKlyxcZZQUWeFrNDI9TkUFJkBuxxGh5Jq3uNaLe8yrlsBbZdJuHzXCTq1SNIPqOv3fGpz7bXJh6AklNof55F3nktZskVuy5TaD56Faac/qQmVULhTyRFhtJ24lsEpD7E6X2luI2ah5vhE05uqXsSVD/tUmAVuph24/oix60j86t3KC0uRXLwRamtrlObdslZREcu40/HNjw89Vm6OprRHVjD21+d+MdafRD2OPTMgBe2Q9NH6/+YCIJw6xGJkCXI+SSfOkm0zUkMQ51IOXaUX4lhcl9ffDQQaxPO2GE+JHw6mjc3JmMCDhxOxqr5esY/0YcvYjaj1f3FroOlzA0LI+CjOOJNoGjei96BevZ9Fn35H/RaKafk+Lfkn7rCaBQ5h9xvZuP47DzazAql4MQ5rO7qDjufJ+VkVbKAy2C8Orqh+2E0Z/ekAVB42oxjWGfLD/S97r7MlGuzwMkTtUJCFbqIkNEOnJv7ONlOXljJmZSdN4HTILzv86Vk+yDO7k5EBgrjE1B4bMM7fCAZCV9TcfE4XuP41GfbL7pGPACmVIpiUi++1Kdb49hpFY4tvCDpHCBjjF9Cwk/taDt8BX5eBbgGp5G+7D30Dbr46zXapQrFe+gglPFzOPbhRsov3jaMvqRSLdtlHcjIV//HYOUWZr1j5Kn503jNvIC5X5+hrLqKexd4sQUsXgBaGZrelPYKgnC7EYmQJckgIyEpALMZGQUKSULlH0yQOpsfj6TVjDkwnePw4SyeGRCMn2oz2soiorfvQ7eoFw8EriH+NASEh+Nf8Bsr99f2nlhtSSidm2Ntk835fT+gU7THzWyPXceROB84ijbfhOTZCltFFrlJmRbe9xWiue6+ZEz556i0bYa1jRPqdp1QKKxwae1ObllT1MXJlFWA1LwddspM8s6k1PSkmFMoOpOBz93t0Ci/pqIWt3jqs+21JTl0xnPICzRu1QprWwUmnQGFWqJCbYXEhbEu5Rh2TiG15Vb8woLQbxlEZmbdsiCl/2iWzhuClxJAQpLg1S/DADDn/sjcyeuIt9TAGZf22Dub0P388yVJ0JXUol0V2Rz9YwclyT+RnGpm7QZ7/BOzLt7KlOxhwnA4+jUcsvQ/J0EQbmsiEbIk2YTZZEauU+9NTWX9/q38lt+b3n3bsCZJxeABvqRvn0eMpQemqLvQbMxTSHuGcGbHWWQ2kLXrW1pMXUeLQb9yPnIXZlkGJCSFZOGdX0Et9iXnJlAmd8XGuyca/1gydqjwCOmFfYoP5Oym9LqDkOtwUuqz7bUh+eAx/hOau+8nbdMkzmcXIdl3x+fpKVj9s6pLJ5ybqDGWVmIbOgT73cvR1SEXMqX9yJLpf6ACVMGPMucRmQ3zviLOCBh15Fpy9LBcfdLM1z83122XrCPh5/UkVL9M2F7zM4BtW+jpAsqnIezp6jcVoJLg05Xw7kzYVmSBNgmCcNsRiZAFVe5fQHiPqp8vvYViPHuK+MpBhHb0QRlbdWsMZTM6dfKi8kwcSRd6KcqO8N2WFAYPHUqfZBv6ucby2abT/JdxqtdkF4DGsYLynMya9KA0luKMMjxcvFBKYMo8jsE0AqfWgUhJcTd1cVO5NvvSJ1Ki98Kh10g0Kd+R9Lsau5nD8bb2oSI5AZMMcmYsBtMIHFs2R0quujWGojlOLb0xZ5ygtJYX8VrFU5+UQTg0s6Hk12VkxCRUxaNyodwoX54IqYPxHjcHh4yFnIgqo9kr8wkYfojYr//AWNtGVBSRlVaVEagbGzCbzeSlpZFm8S8hUHgCfZGSRh36YH3wm6v3ClmgXaXH4MnX4dLUtvUgmOYDsz6EE7obbYwgCLcrMaFiPZDzfmHtpnQCxy9i9ugH6NatDxFvvMX4gHQ2Re5Ee/GPuYnEzd8QY9eP6dN6Iu/9ih8zb8Lz1sVHKM6yxmXwG3i2DkbjGYxT9zn43KWi5PShqidziraR/kcqmvAPCBo0Apegrji1DcHqKp0k1i1H8uaatax+pScede1Iqc2+zGcwZKhxahtE0YFfqSzeQV5CS5wDlJSkna1KDoq2krEvFdt+Kwno1R/n4IE0GbMab+9Ucnf8eMn4IAvEU5/MiRgyK9F0fhbPdp2w9wnG3q8N1qpLA7LFcdBSmrrsIumLDZTkfs/ZqF9Q3jsf3zbODRT4dRgPk7ltF+Y2b9Dmudfw6nQ/TkH34hwyDM+QgOqkxTLtMpdCWjacu6TklABGyMoBvZjWQBDuWKJHqF6UcGTF80wpfoWJj89hmbNMQeKfRE55l8+PXD5gwZzzM+u2j2PVg3o2fPH7fxgkXQvmODLWTEIaPommT3+Pn5UZY2E8RbteImVnfHUPiIHiTWOIK56Gz30zCOrngGQspiL7INpc/T82KOEcGIK/oy2qjvfQ2m4vOfq6BF6Lfck69KlJmL0OkXNSBzKcj95ORdsgdOdKLm6n6PsnOF0yk2a9F9PaXqYiYy8ZHy4i48w/Y77BeOqTOYWstS+hGv48Xo9/hq+tFXJFMcbCWAq1VY+GK5pPxK+nA9pP5pNf/aWp/HsRqXf/RMCIieSdWUhxHQdNG1N2s3atzLmbNpmOmfIDLxGrG4tPn+F4jx6D2krCrEtFf2AB2uOJmH0t3y5BEIR/kkVBjoqKavAYbuciaVrIg1//VN64IkIOVDZ8PLdOUcotHl4mr18yUm6maOhYRKlLUfqOkpeuXy4/6qds8FhEEeVGi7jGwXFecAAAIABJREFUXb2IHiHhhqk8Q+k/YAB9/fXsWb2VRDEd778pbXBwdsa5eomNohKxyMatSYXGyQ5rSULhaI1YZUwQ/v8TiZBww2SNB02tEvh63gr2JemQGzqgW5DCZwhzPhwCyOj3LOaZ92PEemO3IlU7xi6fzv0O1eOvTOkNG48gCDddzRQkd7ioqChGjRrV0GEIgiAIgsWJa9zViafGBEEQBEG4Y4lESBAEQRCEO5ZIhIQqCl96TXiFMV2duUXmU761KPxwGzgT79YuDR2JIAiCYEEiERKqqAIIH/sQ3VvYikToShRBuIdH4OJp19CRCIIgCBYkEiFBEARBEO5YIhESBEEQBOGOJeYRukHKVqNZOjeC0KZ2lGccZe/hMoIf6EKT8tNsXjyDVdH5mAGUjen6xMs8N6wbgW4y2vhoNn+4ksgDuZgA+wcWsmVhG7ZNGMHyYxdWuFTg/+Q6vnwslZmDZ/CbASTblgyZ9DKP3d8WH2c1RkMR2tSfefuFd/nTAIrGfZi/di5t/prOuDd/p0AGyTWM2ZELabt7EuPeOYJeBmxa0G/iFJ7q3wFv21KyTmWiUkJOXQ+AbQc8BozBPfAuNC6NUNlaQ7mW4m0RxO1Oqp6bQY1VUAQ+fUbg3KIFVmozJn0axb9OIf63U8jOA2n5v6XYn3qB2PW7qtY6c+hNwKsrcDg6nuPfHcBkyUkeJBccwqbi060H9h6uUHSS83sWk7L7SNW+AawCcB8yC5+7O2NjXUpZahoKJZRf2EZ9xywIgiDcFCIRukHKRkGE+GSy4cXlxPeazVtDDUROfYmUPrN5fWoEuw+8y3GjHR1fWs3yoSZ2fDCP95MkAgZO4Nl33sP5xbEsP2LAcGgvh0t70fXeQJTH4qpWqFc0o3uYH6UHIzlcAqCi3TNLeO3+dD5f9gr70kpQ2rvj423kXGlVPObcX1k05y4+XfE6c048yZTNpfSaNp3eRet49v3qJEhyJuzVVbzRs4CtH8xiaYaaZp2HMjak7u2XHLvg0aM3/LmQ5K0pVJaakDTukJdenQQpsApdTLtxfZHj1pH51TuUFpciOfii1FbXKfyJpMhQ2k58i4DUhzi9rxS3UfNwM3zCyS2WTig0OAyMJLhHBblbXyftnB51y7E0f/BjAsoGE/dnJkguuD7yOYEh+eRunUyyVo2m5SN4+12ymXqNWRAEQbhZRCJkCXI+yadOEm1zEsNQJ1KOHeVXYpjc1xcfDcTahDN2mA8Jn47mzY3JmIADh5Oxar6e8U/04YuYzWh1f7HrYClzw8II+CiOeBMomveid6CefZ9FVy++qsTF1QmKovn7UAwnz1ctmX380GXBoDu0illrglnz8gKm+xfS454M1jz1GSfLqmooPMJ5tK8rsaufYVFUBmbgr0MmQkd1wO0/HYBySo5/S/6pK8yVrArFe+gglPFzOPbhRsovrvIdfVnMxvglJPzUjrbDV+DnVYBrcBrpy95Db+kFNR0H0rSXN4Vf9SH5YEHVe6nxKHz/IODu3ljv/4Jyl8F4dXRD98Nozu5JA6DwtBnHsM6oGyJmQRAE4aYRY4QsSQYZCUkBmM3IKFBIEir/YILU2cQcSePiMlymcxw+nIW6ZTB+KkAuInr7PnS+vXggUAkoCQgPx7/gN7btv7BCfTn7P1nGDmkwq3/YxMfznmdEN1/s/nUWKzgTOZtVx314cFQnsiIXsj6x5uqsbNESf0U2scezMf/zo5bm0h57ZxO6mJ8vSYKupBzDzimkJvniEXYP5Ttmkplp+YxC8u6AvbUjro9H03VlXHU5SGB7eyTnJlhJIHm2wlaRhS4p8zpbq5+YBUEQhJtH9AhZkmzCbDIj1+m2SE1l/f6t/Jbfm95927AmScXgAb6kb59HTHlN7YrUbcx+NJovu/Whb3hfxi+J4JlTnzF92hpiimq2pfBsT5cANTqdEf8H+hH81fvEll7YpYyMhEJRDw/Ky9XZj/n6B0Vy6YRzEzXG0kpsQ4dgv3s5upuRV5jTyf18AplZ/8jMjIVVyZosAxJSLY5PvcUsCIIg3BSiR8iCKvcvILzHVLYbLn/fePYU8ZWehHb0qVnNWtmMTp28qDwTR9KFsdFlR/huSwqe/YbSp99I+rnG8v2m0xj5B+N5zvwexapZTzLssZWcbTWOF4Y0rTmZ1kE8MX8a7c+8w1Njl3Cg8ePMndQVx+rrujHxJKcrPenc1e+SWz03SeEJ9EVKHDr0wfpa3zZ1MN7j5uCQsZATS96g0OlpAoZ3R2XhXE3OPI7B5IWDjw3l2WcpvbRoqwa2V9VpglPrwGvPqVRPMQuCIAg3j0iE6oGc9wtrN6UTOH4Rs0c/QLdufYh44y3GB6SzKXIn2oudJSYSN39DjF0/pk/ribz3K37MvLTXwprQiBlMfOgB7r4rmFbB7enaNZjG6gqKCg3VfUu2tH9mLk95/M6iN74j6dw2Fi7ZjWbYDCbd61S1yq52B2u/T6PF2LdZ/Mxgut/dibvvbYPHzbiAGw+TuW0X5jZv0Oa51/DqdD9OQffiHDIMz5CA6kTDFsdBS2nqsoukLzZQkvs9Z6N+QXnvfHzbOP9rk9YtR/LmmrWsfqVn3WMu2kra7kRs+nxM8MPjcW97L06te9OoZwQurtX/HIq2kf5HKprwDwgaNAKXoK44tQ3B6rJ91S1mQRAE4dYkbo3VixKOrHieKcWvMPHxOSxzlilI/JPIKe/y+ZHLu4/MOT+zbvs4Vj2oZ8MXv1cPkq4maVCpHek0fDqPejlhTRlFWYkc/nwGK7YXIAPWbccx/WF7fnltObsLqj6c/9u7rI7+ilmTx7Pt8DscLSshZuXzvJz/IhOGvcxb4x1QVhSTl/w3v6QasOwDT2bKD7xErG4sPn2G4z16DGorCbMuFf2BBWiPJ2L2nYhfTwe0n8wnv7rBlX8vIvXunwgYMZG8Mwspvni7ScI5MAR/R1tUHe+htd1ecvR1ibgE3ZYITp5/GZ/uT+F/rzsKWUdF9kEyEzdAAYCB4k1jiCuehs99Mwjq54BkLKYi+yDaXD0AiuZ1iVkQBEG4lcmiIEdFRTV4DKLUrkiaFvLg1z+VN66IkAOVDR+PKKKIIsqtXsQ17upF9AgJtxWVZyj9Bwygr7+ePau3kmi6/mcEQRAE4WpEIiTcVmSNB02tEvh63gr2JemQGzogQRAE4bYmEiHhtmJK3s4HHzZ0FIIgCML/F+KpMUEQBEEQ7lgiERIEQRAE4Y4lEqGGooCwIfBoG64+aV9t6tQnhR9uA2fi3dqloSMRBEEQBIsQiVBDUUCv/tDN69qJ0HXr1CdFEO7hEbh42jV0JIIgCIJgEWKw9J1K7YvbgBk07XIPtvYSxrwjaHe+xbkDpzE1wKNYnnfBk32hc3OwlyAnFX74Hr5JQDwZJgiCINw0okfojqTB8cHPaHmPLee/HcfxJeNJPmGF+2NraN7KtkEiMqrBEAfL3oPXPoUYJTw3Ee7TNEg4giAIwh1C9AhZgOQAU1+BHh5gr4SiPPh9O3zwJ5Re6M6wgt7D4Imu4GUN2amgVkLupRuqTZ3asO2Ax4AxuAfehcalESpbayjXUrwtgrjdSciKQFyCvSk/NI20mBhkwJC1FPv263H2b44Ud6qqF8YqAPchs/C5uzM21qWUpaahUEL5jR+yf9EegXcveX3UCL0mgp8b/JF+E3YoCIIgCIhEyCLkEtj1I+wsgFIJAu+B58dASTZ8eBaQ4L7H4LUO8PNmWJkHPq3hMf9LNlKbOrUkOXbBo0dv+HMhyVtTqCw1IWncIS+9KsGRcyjLr8QqqA/2Nn+jK5ORGnXE3vE8+pRzVXUkF1wf+ZzAkHxyt04mWatG0/IRvP0sccSuTeMGQ3qAMhMO5dz8/QmCIAh3LpEIWYIJYg7XvIxPg/Z3Qzt/UJwFXGDk3XDqe1j2G5iBQ3EQcj+4Vn9GUYs6dVNOyfFvyT9V+e9fyTnkfjMbx2fn0WZWKAUnzmF1V3fY+TwpJ6sWFcVlMF4d3dD9MJqze9IAKDxtxjGsM+r/FM/1SbYw/2241wpkPXy8Aq4UviAIgiBYikiELEDhAMOHQf9g8LCFEh3YWEFOdcag9IIWCth+tirBuZLa1LEcCaVzc6xtsjm/7wd0iva4me2x6zgS5wNH0eabkDxbYavIIjcp86ZHc4FcCisWwtdu0KUnjJsMLION5+otBEEQBOEOIxKhGyXBkAnwbCNY+y0czAbJHsY/d3lPjgworvMMfG3qWIS6C83GPIW0ZwhndpxFZgNZu76lxdR1tBj0K+cjd2GWZUBCqpeAqsmQm1FVjseB7Zswsgd8+yWIjiFBEAThZhBPjd0oJbRpDsn7YMNhOJMO8YmQc8mV25gOCUYIbcNVbyvVpo7F2AWgcaygPCez5tH00liKM8pQunihlEDOPI7B1ASn1oENM4eRDGYZFOIbKgiCINxEokfoRpkhIR16doFhaXDiPEgaaHTJkZWLYP1eWNof5kmw9QyUa6CxBMY61LGY4iMUZ1nTZPAbeFZEUnQerALH4HOXipKfD1EpA0XbSP9jPMHhHxAkrSInIQOzJgQr6crz+li3HMmsaYNwiVvLm+/sIacuk/9IcHdv8CqEtGKQbKBtNxjkAj8dFL1BgiAIws0jEqEbZYZNn4L9QzByLDxnC6ZyKCqEg3k11Y5+C68Ww7ge8MZAUFZCfhb8mlOTWNSmjmVijiNjzSSk4ZNo+vT3+FmZMRbGU7TrJVJ2xlfvy0DxpjHEFU/D574ZBPVzQDIWU5F9EG2u/h8blHAODMHf0RZVx3tobbeXHH0dIpbAwR0G9ILmrqCsgMxz8OX78NVpyzVbEARBEK5EFgU5KiqqwWO4nYukaSEPfv1TeeOKCDlQ2fDxiCKKKKKIUlPENe7qRfQICTdM5RlK/wED6OuvZ8/qrSSaGjoiQRAEQagdkQgJN0zWeNDUKoGv561gX5IOuaEDEgRBEIRaEomQcMNMydv54MOGjkIQBEEQ6k48nCwIgiAIwh1LJEKCIAiCINyxRCIkVFH40mvCK4zp6twwEyje6hR+uA2ciXdrl4aORBAEQbAgkQgJVVQBhI99iO4tbBssEVK2nE7I2wdp17fNrZeMKYJwD4/AxdOuoSMRBEEQLEgkQsItQkLh6o+NrQs2Hh7iiykIgiDUC/HUmHCLkKk8MJljmc2Qs08hpiISBEEQ6oNIhG6QstVols6NILSpHeUZR9l7uIzgB7rQpPw0mxfPYFV0PmYAZWO6PvEyzw3rRqCbjDY+ms0friTyQC4mwP6BhWxZ2IZtE0aw/NiF1cUU+D+5ji8fS2Xm4Bn8ZgDJtiVDJr3MY/e3xcdZjdFQhDb1Z95+4V3+NICicR/mr51Lm7+mM+7N3ymQQXINY3bkQtrunsS4d46glwGbFvSbOIWn+nfA27aUrFOZqJSQU9cDYNsBjwFjcA+8C41LI1S21lCupXhbBHG7k6rmFLIJxmPoa3i1D0Fjb4W57DyVOVtIWrWIwjLA4WGCFyzEufrbaP57EgfX/Fh13G4GyQWHsKn4dOuBvYcrFJ3k/J7FpOw+UrXOGoBVAO5DZuFzd2dsrEspS01DoYTyC9twHkjL/y3F/tQLxK7fVfU5h94EvLoCh6PjOf7dAUxiQiVBEIRbnkiEbpCyURAhPplseHE58b1m89ZQA5FTXyKlz2xenxrB7gPvctxoR8eXVrN8qIkdH8zj/SSJgIETePad93B+cSzLjxgwHNrL4dJedL03EOWxuKoeEUUzuof5UXowksMlACraPbOE1+5P5/Nlr7AvrQSlvTs+3kbOlVbFY879lUVz7uLTFa8z58STTNlcSq9p0+ldtI5n369OgiRnwl5dxRs9C9j6wSyWZqhp1nkoY0Pq3n7JsQsePXrDnwtJ3ppCZakJSeMOeenVEyuqcBj4Hn7tU0n/ZgLn8wxIGg9s3Csoq6jeiOEnEucfRqlwwz3iC7xv+KxciwaHgZEE96ggd+vrpJ3To245luYPfkxA2WDi/swEyQXXRz4nMCSf3K2TSdaq0bR8BG+/SzZT+BNJkaG0nfgWAakPcXpfKW6j5uFm+ISTW0QSJAiCcLsQiZAlyPkknzpJtM1JDEOdSDl2lF+JYXJfX3w0EGsTzthhPiR8Opo3NyZjAg4cTsaq+XrGP9GHL2I2o9X9xa6DpcwNCyPgozjiTaBo3ovegXr2fRZNsQygxMXVCYqi+ftQDCfPV/WZHD90WTDoDq1i1ppg1ry8gOn+hfS4J4M1T33GybKqGgqPcB7t60rs6mdYFJWBGfjrkInQUR1w+08HoJyS49+Sf+pK68SrUDs4g2EPxfGH0OtNQCy6+EuqmHVU5OpA0lNZcYVNWJLjQJr28qbwqz4kHyyoei81HoXvHwTc3Rvr/V9Q7jIYr45u6H4Yzdk9aQAUnjbjGNYZ9cUNyRjjl5DwUzvaDl+Bn1cBrsFppC97D/3NboMgCIJgMWJMqiXJICMhKQCzGRkFCklC5R9MkDqbmCNpNWNfTOc4fDgLdctg/FSAXET09n3ofHvxQKASUBIQHo5/wW9s22+o/lA5+z9Zxg5pMKt/2MTH855nRDdf7P51Fis4EzmbVcd9eHBUJ7IiF7I+sebqrGzREn9FNrHHs2/e7aeLyijc/iZaaSTB83bRduxUPIP9UDbQY2GSdwfsrR1xfTyarivjqstBAtvbIzk3wUoCybMVtoosdEmZ19laOYadU0hN8sUj7B7Kd8wkM1NkQYIgCLcT0SNkSbIJs8mMXKfbIjWV9fu38lt+b3r3bcOaJBWDB/iSvn0eMeU1tStStzH70Wi+7NaHvuF9Gb8kgmdOfcb0aWuIKarZlsKzPV0C1Oh0Rvwf6EfwV+8TW3phlzIyEgpF/WQj5pzvSViwh8w2A3HvOBjvCU/jk/o+8R+vpNjQAPeQzOnkfj6BzKx/pIHGQsrNUHUCJaRaHB/JpRPOTdQYSyuxDR2C/e7l6EQuJAiCcNsQPUIWVLl/AeE9prLdcPn7xrOniK/0JLSjD8oLbyqb0amTF5Vn4ki6MDa67AjfbUnBs99Q+vQbST/XWL7fdBoj/2A8z5nfo1g160mGPbaSs63G8cKQpjUn0zqIJ+ZPo/2Zd3hq7BIONH6cuZO64lh9XTcmnuR0pSedu/pdcqvnJjMVYDi+jtTPR/H3osWUNHsO33ua/aNSGeZKGTSOqG5SjiZnHsdg8sLBx4by7LOUXlq0VQPbq+o0wal14LXnM1IH4z1uDg4ZCzmx5A0KnZ4mYHj3mxa7IAiCYHmiR6geyHm/sHbTaFaNX8TsijX8kqLAv//TjA9IZ9OLO9Fe7BQxkbj5G2Iem8r0aVC2dxY/Zl7aa2FNaMQUupYd4HB8FsVGKxq3C6axuoJzhYbqviVb2j8zl6c8fuf1qd+RVAALl3Tly/kzmBQdwYJ9RcjaHaz9fjSrx77NYukTNv2dRbldGzwk/p103TAbHHvPwrkimqL0dIwma6xbtMNKWU6Z/h8Zo6zHkJ6K1Gs0Pt1yKdA5Yq04Sc7RM5etaG/dciSzpg3CJW4tb76zh5y6dCoVbSVtdwRt+nxMsGYN2SfjqTRpsPLwwnh8PecLzFC0jfQ/xhMc/gFB0ipyEjIwa0Kwki7tv7PFcdBSmrrsImHxBkqK4WxUd0LGzcf3xIOcPVF4Q0dNEARBqB8iEaoXJRxZ8TxTil9h4uNzWOYsU5D4J5FT3uXzI5cnA+acn1m3fRyrHtSz4YvfqwdJV5M0qNSOdBo+nUe9nLCmjKKsRA5/PoMV2wuQAeu245j+sD2/vLac3QVVH87/7V1WR3/FrMnj2Xb4HY6WlRCz8nlezn+RCcNe5q3xDigrislL/ptfUg1Y9GaVpEFSOeHUfR5erk4oKMdYEE/RLy+Rekj7j8omDLvmkOY9D69R79OoMgtD9Gy0x85gvBiUhHNgCP6Otqg63kNru73k6OsScQm6LRGcPP8yPt2fwv9edxSyjorsg2QmboACAAPFm8YQVzwNn/tmENTPAclYTEX2QbS5egAUzSfi19MB7Sfzya8+SZV/LyL17p8IGDGRvDMLKRa3yARBEG4LsijIUVFRDR6DKLUrkqaFPPj1T+WNKyLkQGXDxyOKKKKIcqsXcY27ehE9QsJtReUZSv8BA+jrr2fP6q0kiimoBUEQhBsgEiHhtiJrPGhqlcDX81awL0mH3NABCYIgCLc1kQgJtxVT8nY++LChoxAEQRD+vxCPzwuCIAiCcMcSiZAgCIIgCHcskQjdCRS+9JrwCmO6Ol97gsD6cqvFIwhXo/DDbeBMvFu7NHQkgiDcJCIRuhOoAggf+xDdW9jeGonHf45HSYuHl7ExKoqoqCiior7ms4mh9Tc79v8TypbTCXn7IO36trnm8Vd7dyQ8vDPNrP/jjlQdeO7Tr6vPVRRRG5fzqJ/y+p+7lSiCcA+PwMXTrqEjEQThJhGDpYXbjjltC/MXbCPDLCNXlHClNe+Fq5FQuPpjY+uC2cMDBSe52gwEimZhRDxhxSfRhzlXfvXn86y94Y3JcHcRjF8AqRcmQzfGsvaVCWyUJBQ+g3l9egeLt6ZO1L64DZhB0y73YGsvYcw7gnbnW5w7cBqTePxQEO5YIhESbj+mMnSFhRSar19V+CeZygOTOZbZDDn71L+TIMmeLk9M5K78XfyclEV2nhWFbqEMfvR+nI99wJeHLp95XOUBs18Gf5krTGVgpLSoiFJA6VR+1YSrfmhwfPAzWnbKJCNqHIm5CjSdJ9PisTUoivpyNq6kQaMTBKHhiEToBilbjWbp3AhCm9pRnnGUvYfLCH6gC03KT7N58QxWRVct5ImyMV2feJnnhnUj0E1GGx/N5g9XEnkgFxNg/8BCtixsw7YJI1h+7MKKXwr8n1zHl4+lMnPwDH4zXD2Oy9i0oN/EKTzVvwPetqVkncpEpYQcANR0m72dpY1WM2jSZgouvXppwlmyYypF0way4K/K68YMIDm2Y9hTD9M7NJjmnu44O1ghlxYQ8+FzvPRValXbrxmPhdl2wGPAGNwD70Lj0giVrTWUayneFkHc7qSqi7VDf/xfnIlb40YolRUY846Sv3MhqX/FVfUMOA+k5f+WYn/qBWLX76JSBhx6E/DqChyOjuf4dwfq3IOg7vg8H000s+qZD/j7vyzoVpt22QTjMfQ1vNqHoLG3wlx2nsqcLSStWkRhGeDwMMELFuJc/a/e/PckDq75kcvySckBlWyiyX1jmTXIFhuNxPMzO1Ock8rJ045I1CRCkgaeehYcdsO7LjDP7z+0y1Kud3wUgbgEe1N+aBppMTHIgCFrKfbt1+Ps3xwp7lRVu6wCcB8yC5+7O2NjXUpZahoKJZQ3YNMEQbi5RCJ0g5SNggjxyWTDi8uJ7zWbt4YaiJz6Eil9ZvP61Ah2H3iX40Y7Or60muVDTez4YB7vJ0kEDJzAs++8h/OLY1l+xIDh0F4Ol/ai672BKI/FVSUaimZ0D/Oj9GAkh2v7H1bJmbBXV/FGzwK2fjCLpRlqmnUeytiQCxXMaHO1yIGuOEtQoHahSWOJgvQCKlzccJG0JGhNwPVjBpBcOzL0oTDkH95h+Qdp5BtMqO1dIS2r6gJ73XgsS3LsgkeP3vDnQpK3plBZakLSuENeek2PRckptD/PIu+8FrPkil2XKTQfvQpTTn9Skyqh8CeSIkNpO/EtAlIf4vS+UtxGzcPN8Aknt9Q9CaqfdqlwGPgefu1TSf9mAufzDEgaD2zcKyi7sOaZ4ScS5x9GqXDDPeILvK+0I3MW0ZHL+NOxDQ9PfZaujmZ0B9bw9lcn/rHuHYQ9Dj0z4IXt0PTRm3wAruO6x0fOoSy/EqugPtjb/I2uTEZq1BF7x/PoU85V1ZFccH3kcwJD8sndOplkrRpNy0fwbsgETxCEm04kQpYg55N86iTRNicxDHUi5dhRfiWGyX198dFArE04Y4f5kPDpaN7cmIwJOHA4Gavm6xn/RB++iNmMVvcXuw6WMjcsjICP4og3gaJ5L3oH6tn3WfTlF6FrUHiE82hfV2JXP8OiqAzMwF+HTISO6oAbAGZyMnLA3QN3pUR+71l8Ncue1cOf43t3D9zNWWRkm5Ea1SLmizGVc/b3rfz6579H61w/npuhnJLj35J/6iqjh0ypFMWkXnypT7fGsdMqHFt4QdI5QMYYv4SEn9rRdvgK/LwKcA1OI33Ze+gbdCHVa7VLhdrBGQx7KI4/hF5vAmLRxV9SxayjIlcHkp7Ka7XDOpCRr/6PwcotzHrHyFPzp/GaeQFzvz5DWXUV9y7wYgtYvAC0MjS1WBtvxDWOj5xD7jezcXx2Hm1mhVJw4hxWd3WHnc+TcrJqIV1cBuPV0Q3dD6M5uycNgMLTZhzDOosB+YLw/5hIhCxJBhkJSQGYzcgoUEgSKv9ggtTZ/HgkrWachOkchw9n8cyAYPxUm9FWFhG9fR+6Rb14IHAN8achIDwc/4LfWLm/tvfEQNmiJf6KbLYez+bKQ2hkDBnpnHdsiqedA849OqBWqLivqys/ljTBLf8c6WWgalubmC0RT/2THDrjOeQFGrdqhbWtApPOgEItUaG2QuLCWJdyDDunkNpyK35hQei3DCIzs25ZkNJ/NEvnDcFLCSAhSfDql2EAmHN/ZO7kdcRbbOBMGYXb30T7zFyC592P7vg2tAe/Jy8uqe49WBXZHP1jByXJP5GcambtBnv8E7Mu3h6S7GHCcDj6NRyq/VezgUkonZtjbZPN+X0/oFO0x81sj13HkTgfOIo234Tk2QpbRRa5SZkNHawgCPVIJEKWJJswm8zIdbrw1FTW79/Kb/m96d23DWuSVAwe4Ev69nnE1GWAgiwjI6FQXP3BaFNaEufkTjRteR++IaeIjFQy8v7uBMc2gXP7SL3uxbkODaxFPPVK8sFj/Cc0d99P2qZJnM8uQrLvjs/TU7D6Z1WXTjg3UWPS3k/qAAAgAElEQVQsrcQ2dAj2u5ejq0MuZEr7kSXT/0AFqIIfZc4jMhvmfUWcETDqyLXw6GFzzvckLNhDZpuBuHccjPeEp/FJfZ/4j1dSbKjLOdOR8PN6EqpfJmyv+RnAti30dAHl0xD2dPWbClBJ8OlKeHcmbCuyUKMsRd2FZmOeQtozhDM7ziKzgaxd39Ji6jpaDPqV85G7MMsyICHdKt9VQRDqhUiELKhy/wLCe1T9fGlXuvHsKeIrBxHa0QdlbNVtJpTN6NTJi8ozcSRdGDxbdoTvtqQweOhQ+iTb0M81ls82naYuY2uNiSc5XTmIzl39UB8/c8VHy+XzySSd9+CuRwfje3Iri79V03rDICI03uTFnkUvg7m2MVsgnnqlDMKhmQ0lvy4jIyahKqVTuVBulC9PhNTBeI+bg0PGQk5EldHslfkEDD9E7Nd/YKxtTlFRRFZaVUagbmzAbDaTl5ZG2n8ZLF1bpgIMx9dhOL6ONI/xtJ7+P3zv2Uzsr6mXVCrDXCmDxhGVBBV17DEqPQZPvs5lcxC1HgTTfGDWh3BCZ4mGWJhdABrHCspzMmvS+NJYijPK8HDxQimBKfM4BtMInFoHIiXFiQV9BeEOIRKheiDn/cLaTaNZNX4RsyvW8EuKAv/+TzM+IJ1NL+68ZKyNicTN3xDz2FSmT4OyvbP4MbNuN5Rk7Q7Wfj+a1WPfZrH0CZv+zqLcrg0eEjUJlekspxPVPHxvAD+/+jsFWiU//f0S8+9XsuublKqkp9YxWyCe+mROxJBZiVvnZ/FM34iusAQ0bbBWXXpZt8Vx0FKauuwiYfEGSorhbFR3QsbNx/fEg5w9UdgQkV+HDY69Z+FcEU1RejpGkzXWLdphpSynTP+P+1eyHkN6KlKv0fh0y6VA54i14iQ5R8/U6uJvLoW00svfcy0BjJCVA/r/cA/UuuVIZk0bhEvcWt58Zw85ls5Cio9QnGVNk8Fv4FkRSdF5sAocg89dKkp+PlT1ZGDRNtL/GE9w+AcESavIScjArAnBSqpTH6ggCLcZkQjVixKOrHieKcWvMPHxOSxzlilI/JPIKe/y+ZHLL1LmnJ9Zt30cqx7Us+GL32s9SPrSfcWsfJ6X819kwrCXeWu8A8qKYvKS/+aX1OpHn2Udp0+lUukXw6ZoPcjw+6Zd5N3nz8nTpRe3U9uYbzie+mROIWvtS6iGP4/X45/ha2uFXFGMsTCWQm1VPIrmE/Hr6YD2k/nkV5+Ayr8XkXr3TwSMmEjemYUU13HQtDFlN2vXypy7WZPpSBoklRNO3efh5eqEgnKMBfEU/fISqYe0/6hswrBrDmne8/Aa9T6NKrMwRM9Ge+xM7Xu7LBs8zoEh+Dvaoup4D63t9pKjt3Ag5jgy1kxCGj6Jpk9/j5+VGWNhPEW7XiJlZ3z199BA8aYxxBVPw+e+GQT1c0AyFlORfRBtrt6y8QiCcEuRRUGOiopq8BhEuV5Ryi0eXiavXzJSbqZo6FhEqUtR+o6Sl65fLj/qp7zi7yVNC3nw65/KG1dEyIHKho9XFFH+vxVxjbt6ET1Cwu1HaYODszPO1UtsFJU0+Mgj4YpUaJzssJYkFI7WXG2VMZVnKP0HDKCvv549q7eS2LBTUAuCcIcRiZBw21H4DGHOh0MAGf2exTzzfkzDD8IW/k3VjrHLp3O/Q/X4K1P6FavJGg+aWiXw9bwV7EvSIddjiIIgCDXTptzhoqKiGDVqVEOHIQiCIAgWJ65xV6do6AAEQRAEQRAaikiEBEEQBEG4Y4lESBBqQ+GH28CZeLd2aehIbhP20HgaeLRv6EAEQRCuSQyWFoTaUAThHh6BenMkGXHn6/BBJS0eXsLCET7VT03dKQO8HcF9LFSehJyjV6+m6sBzH10+oHrTzGlsTBKPjgmCUD9EIiQI9cCctoX5C7aRUf3I/22RBNkMhpbzoWg8pB75xy+dwPM18OwNaglKfoXUhaCv4yJjxljWvjKBjZKEwmcwr0/vYLHwBUEQakMkQoJQH0xl6AoLKfwPy0/UO1UweD5bleQoJPhXbqOARouhWVvInAd6wPN/ELQYYidCRV0aaaS0qIhSQOlUjugHEgShvolE6AYpW41m6dwIQpvaUZ5xlL2Hywh+oAtNyk+zefEMVkXnYwZQNqbrEy/z3LBuBLrJaOOj2fzhSiIP5GIC7B9YyJaFbdg2YQTLj11YhUuB/5Pr+PKxVGYOnsFvtV3ZwrYDHgPG4B54FxqXRqhsraFcS/G2COJ2J1XNl+DQH/8XZ+LWuBFKZQXGvKPk71xI6l9xmGTAeSAt/7cU+1MvELt+V9VaTA69CXh1BQ5Hx3P8uwNV9SxF0RinXtPwue9+7N0coCKf8uyT5G+bxrk4Ay6P7yfI+W2OvPd1VSwXWA0kaMkcjB/dy9m4SlB44hz+Gs3uC8PWQaYyfQ852xaTEZddM09EbY6PVQDuQ2bhc3dnbKxLKUtNQ6GEcgs2GQDXdyGgHcT1Bd2F864E7+/AMxmOTgYToO4HrV4Dm0YgVULZUchaBHmna7alag/eEeDQDqwbgdIazFpIfwKyk2sZkBI83gDHJEicAs2W/ruKFARe3aFgKqRvr3pPb4SQt6FxS0i/JCbHqRC6EJQylO2HtDehMKvux0kQBOEmEYnQDVI2CiLEJ5MNLy4nvtds3hpqIHLqS6T0mc3rUyPYfeBdjhvt6PjSapYPNbHjg3m8nyQRMHACz77zHs4vjmX5EQOGQ3s5XNqLrvcGojwWV/U/Y0Uzuof5UXowksMltY9JcuyCR4/e8OdCkremUFlqQtK4Q156TTJQcgrtz7PIO6/FLLli12UKzUevwpTTn9SkSij8iaTIUNpOfIuA1Ic4va8Ut1HzcDN8wsktFk6CsMNxaCSte2oo3LGA+DOZmG160OzJJ3H0tIc4HRWFudDUHbUElSpXbJwVVORpMTs0Qk0OJUVmwB6n4ZG0uteIdsurnMtWYNtlEj7PRaJePYLkM/raHR/JBddHPicwJJ/crZNJ1qrRtHwEbz9Ltrla8a9gDgfnVqA7UfWe5AsugVD8MRe7SIxxkDEbKvIBF2g0GVqshNKBoK++0abuAh69IXcRpKeAyQRKdyjLqENAJsh4GDJkkNpeuYq6A1ibIfMvaPwRNNVA3CtVq63ahwCXJEIV0ZD+C5idwWMqBLwFseOg/HboGhME4U4gEiFLkPNJPnWSaJuTGIY6kXLsKL8Sw+S+vvhoINYmnLHDfEj4dDRvbkzGBBw4nIxV8/WMf6IPX8RsRqv7i10HS5kbFkbAR3HEm0DRvBe9A/Xs+yz6Pyy+Wk7J8W/JP3WV0SimVIpiUi++1Kdb49hpFY4tvCDpHCBjjF9Cwk/taDt8BX5eBbgGp5G+7D30dVxw9LqcBuLdw4/SHcOI33aqKhlROVFuBisAzJRrs8DJE7VCQhW6iJDRDpyb+zjZTl5YyZmUnTeB0yC87/OlZPsgzu5ORAYK4xNQeGzDO3wgGQlfU3HxOF7j+LgMxqujG7ofRnN2TxoAhafNOIZ1Rm3hpmPcB0Ul4PIApJ+omt7Upi/Y6iDj95p6cioU1JwvSqzBbQU4eIH+3CUbLIPC76DwRkYhXefLpm4Ekg4qy8ChKahsQFUClSVg1/jyaVrL9sP5fVU/lzpD+1fB0RnyCm4gPkEQBMsRiZAlySAjISkAsxkZBQpJQuUfTJA6mx+PpNWMgTCd4/DhLJ4ZEIyfajPayiKit+9Dt6gXDwSuIf40BISH41/wGyv312W199qRHDrjOeQFGrdqhbWtApPOgEItUaG2uuQ6Vo5h5xRSW27FLywI/ZZBZGZaOgsCqUkI9spM8k6ducolWMaUf45K22ZY2zihbtcJhcIKl9bu5JY1RV2cTFkFSM3bYafMJO9MSs12zCkUncnA5+52aJRfU2G84g4uj8ezFbaKLHKTMi3VxGsoBO0eCAwH29VgANwGQuUvUHTJiufqTtD0eXAKApWiKulQSKCwqocYr8YIGY9ArgIqKqHRdapXpoFJAWpnQCRCgiDcGsQ8QpYkmzCbzMh16r2pqazfv5Xf8n3o3bcNaqsQBg/wJX37D8RYemCK5IPH+E9o3qqU/E2TOLksgvgN69GX/ztwyaUTzk3UGEsrsQ0dgv3NuO5KEnDt4ybnJlAmN8HGuydu/rFk7DiGXUgv7D18ICeR0uveaanDSZFlQEJSSLX/zI0o+h4qm4PbXaAIBfcWoP0WLrapKQR8DE6lcO5lOPUEJK/Hwvcna68yD2QHUNuCrIOKIsCu6nVl3jUOtanqd5L4syMIwq1D/EWyoMr9CwjvMZXt/+jAMZ49RXylJ6EdfWpW4FY2o1MnLyrPxJF0oZei7AjfbUnBs99Q+vQbST/XWL7fdJpadGLUjTIIh2Y2lPy5jIyYAxgyT6NPOkG58R9XMHUw3uPm4JCxkBNL3qDQ6WkChndHZeH8QM46RYm5CY4BTbnqpvWJlOi9cOg1EoeUH8j6fQv65kPxDvKhIjMBkwxyZiwGUxMcWzav2Y6iOU4tvTFnnKC0lo8kyZnHMZia4NQ68OrxWJL5AOQlgdsocBsN6qOQe7Lm94ogsLOBvHeg4CCUxIPuJJgbKhE6CuUKcL6n5j3VPWCvAP015gwSBEG4BYlEqB7Ieb+wdlM6geMXMXv0A3Tr1oeIN95ifEA6myJ3or14PTORuPkbYuz6MX1aT+S9X/Fj5k0YVGpOxJBZiabzs3i264S9TzD2fm2wvizDscVx0FKauuwi6YsNlOR+z9moX1DeOx/fNs7/2qR1y5G8uWYtq1/piUdds4fCbWQd1mLffxX+9/fHpe1APIc8juOlA3LMZzBkqHFqG0TRgV+pLN5BXkJLnAOUlKSdreqEKNpKxr5UbPutJKBXf5yDB9JkzGq8vVPJ3fHjJeODrqNoG+l/pKIJ/4CgQSNwCeqKU9sQrG5aVmSC3PWgHATN+8D5Ly4fTCyfhZJKcJsALh3BLhgcgqtujd0MCjfQtARNs6p9qHxAEwhWmup4TkPWPnCdAd4DwWkg+L8G/AG5Z25OTIIgCDeJGCNUL0o4suJ5phS/wsTH57DMWaYg8U8ip7zL50cu7z4y5/zMuu3jWPWgng1f/P4fBknXgjmFrLUvoRr+PF6Pf4avrRVyRTHGwlgKtQZkQNF8In49HdB+Mp/86iAq/15E6t0/ETBiInlnFlJ8cbiQhHNgCP6Otqg63kNru73k6OtyK6qQgq/HkVA6E5/+S2lkXUpZciqXpYCyDn1qEmavQ+Sc1IEM56O3U9E2CN25C4/UGSj6/glOl8ykWe/FtLaXqcjYS8aHi8g4o7/Cjq/GQPGmMcQVT8PnvhkE9XNAMhZTkX0QbW5dtlMHFVsg/xlopIesXZf/Tk6Bs5Oh2URo8QmorMBcDBWxUGb58WNonoA2z3KxO8x6CbibIXc8JP8JmCHvf6CcAV5vQhOqJlSMX1DHOYQEQRBuDbIoyFFRUQ0ew+1cJE0LefDrn8obV0TIgUoLbFPVXw5acVpue3/TBm/bjRWl3OLhZfL6JSPlZoqGjuXWLkrfUfLS9cvlR/2UDR6LKKL8fyviGnf1InqEhBum8gyl/4AB9PXXs2f1VhLF9MD/prTBwdkZ5+olNopKbotFNuqBCo2THdaShMLRumYMnSAIQj0RiZBww2SNB02tEvh63gr2JemQGzqgW5DCZwhzPhwCNNCiq1JbaPcNaK6WapggcxSkxdZnVKBqx9jlly+6KgiCUJ8unfrsjhYVFcWoUaMaOgxBuElsQNO8eqqCK5GhMqVqkkRBEP7fEde4qxM9QoJwRyiD0tPXryYIgnCHEY/PC4IgCIJwxxKJkCDUhsIPt4Ez8W7t0tCRCIIgCBYkbo0JQm0ognAPj0C9OZKMuPN1+KCSFg8vYeGIC7OKN9Bg6VuVqgPPfXT5YOlNM6exMUk8eigIQv0QiZAg1ANz2hbmL9hGRvXj83dEEqT2xW3ADJp2uQdbewlj3hG0O9/i3IHTNcukGWNZ+8oENkoSCp/BvD69Q4OGLAjCnUckQoJQH0xl6AoLKbxjJl7W4PjgZ7TslElG1DgScxVoOk+mxWNrUBT15WzchdnAjZQWFVEKKJ3KEf1AgiDUN5EI3SBlq9EsnRtBaFM7yjOOsvdwGcEPdKFJ+Wk2L57Bquj8qqUilI3p+sTLPDesG4FuMtr4aDZ/uJLIA7mYAPsHFrJlYRu2TRjB8mMXlllV4P/kOr58LJWZg2fwW21XU7DtgMeAMbgH3oXGpREqW2so11K8LYK43UlV8yU49Mf/xZm4NW6EUlmBMe8o+TsXkvpXXNX/1p0H0vJ/S7E/9QKx63dRKQMOvQl4dQUOR8dz/LsDll38XNEYp17T8LnvfuzdHKAin/Lsk+Rvm8a5OAMuj+8nyPltjrz3dVUsF1gNJGjJHIwf3cvZuEpQeOIc/hrN7gvD1kGmMn0POdsWkxGXXTNPRG2Oj1UA7kNm4XN3Z2ysSylLTUOhhHILNvmiW/R8qTs+z0cTzax65gP+ruvKv4pAXIK9KT80jbSYGGTAkLUU+/brcfZvjhR3SszbIQjCLUEkQjdI2SiIEJ9MNry4nPj/Y+++w6Mq1geOf8/Z3Ww2ddNIQhIgjUAEqXYUpXdREBVFiooXvDbUa0NQFFCuohQLP8sFFVGuClJEERW5IEVAIEIKkN4bKduy7fz+2EACEknMkoDM53nmecjucPY95yzMm5k5M/1m8cpoIyueeITMgbN4/okJ/LT7TQ7Zven1yFIWjnaw+Z05vJ0uETd8Kv944y30D01i4T4jxl9/Zq+5H1dfF4/qYLLrN2O5Hdf3jcG8ZwV7TeeKpI7kdxWhNwyAX+aRsT4Tm9mBpAuGkty6xsd0hNJvZ1JyohSnFIj3VY/TYfwSHEVDyUq3QcU3pK/oSZfprxCXdRsp280EjZtDkPF9Dq9zcxKEN36jV9D5Rh0Vm+eSmpaP0/MG2t17L35hPpBcjbWiGCKD0UhgUwfiqZexlpTi9A1BQxGmSifgg/+tK+h0nZ3SdU+RXSjjddXDRE1bgWbpGDJq9xs75/WRAgi84z/EdyujeP1jZJRq0HW8g4gYd55znYvvfjWCUoSlzIZHwkB8PH+j2qIghfTCx+8EhsxskQQJgnDBEImQOyhlZBw5zA7PwxhH+5N58ABb2M9jg9sTpYMkz0FMuiWKox+M56VVGTiA3Xsz8OiwkikTB/LR/rWUVu/ihz1mXuzbl7hlyaQ6QO7QjwHxBrZ/uOMvbL5ag+nQF5QdaWA2iiOLyv1Zp3405Grx670Ev+hwSM8GFOypCzj6TVe63LqImPByAhNzyH39LQzWsx/yL/MfTsQNMZg330LqhtqeArU/NU7wAMBJTWkB+IehkSXUPefTbbwv2S/eTaF/OB5KPpYTDvAfQUSf9pg2jeD4T8dQgIrUo8ihG4gYNJy8o5/X24H+T65PwEjCewVR/fV4jm/NAaAixYlf3yvQuPnU61xE96sxlCKK/zsLv3/M4bKZPSn/PRuPy6+H7x8k8/B52rhWEAThLxCJkDspoCAhyYDTiYKMLEmoYxNJ0BSycV9O3RwIRzZ79xbwwLBEYtRrKbVVsmPTdqrn96N//HukpkDcoEHElv/I4p3u32Fc8r2CsFH/pE2nTmi9ZBzVRmSNhFXjUW+58RqM3z9OVsf1xPRNwLBuBPn57m9Vpbbd8FHlU3IkrYGeAgVHWTY2r3ZoPf3RdO2NLHsQ0DmYYkskmqoMLFaQOnTFW5VPSVpm3XGcmVSm5RF1ZVd0qs+xNmKIRwrrhJdcQHF6vrtOsdla6n6pYsfz2pxRhKsAJCQJnvqkLwDO4o28+NjHpDZqIo+ESt8BrWchJ7Z/TbXcnSCnD969xqLffYDSMjEbSBCEC4NIhNxJceB0OFGa1HtTV9mwcz0/lg1gwODLeC9dzchh7cndNIf97p6YIkUROuV9OgTvJGfNw5worETyuZ6o+x+v7YGpVzWgN/q2GuxmG149R+Hz00Kq3Z0LSRLw59dNKT6KRbkaz4gb0cUmkbdZTWi3fvhkRkHRT5jPOQm5CTdFUQAJSW5oO4oW1oL3y5GzkQVP/w81oE68k9l3KHw65zOS7YC9muLG5i+aq2h3z31IW0eRtvk4Cp9S8MMXRD/xMdEjtnBixQ9iYrQgCBcEsaCiG9l2zmXQDU+w6YwOHPvxI6TawujZK6pud21VO3r3DseWlkz6yV4Kyz6+XJdJ2JDRDBwyliGBSXy1JoWmzlM9J1UCvu08Mf3yOnn7d2PMT8GQ/js19jOSBU0iEZNn45s3j98XvECF//3E3Xo9ajfnB0rBEUzOtvjFRdLgoQ3HMBnC8e03Ft/MrynYtg5Dh9FEJERhzT+KQwElPwmjoy1+HTvUHUfugH/HCJx5v2NuZMur5B/C6GiLf+f4huNpSS15v6yVFOTkkJOTQ26pEafTQEntzzkFFY2fLO4dh87PSk1Rfl0Kak6iKs+CKiAc1QVxYQVBEEQi1CKUku9YviaX+CnzmTW+P9deO5AJL7zClLhc1qz4ntJTLYWDY2v/y37vITz95I0oP3/Gxvzz8Ly18xjGfBu6K/5BWNfe+EQl4hNzGdrTWkwv/Ea8RmTAD6R/9Cmm4q84vvo7VNe9TPvL9H84pLbjWF56bzlLZ9xIaFMbuYoNFOwtxWfoEmJvGkpAl+GEjbobv/oTcpxpGPM0+HdJoHL3FmxVmyk52hF9nApTznFXY1u5nrztWXgNWUxcv6HoE4fT9p6lRERkUbx5Y735QedQuYHc/2WhG/QOCSPGEJBwNf5duuHRWo33ebhf513VPqoKtASMfIGwzonowhLxv342UZerMaX8evqTf4IgCK1IDI21CBP7Fj3I41UzmH73bF7XK5Qf+4UVj7/Jf/ad3n3kLPqWjzdNZsnNBj79aNtfmCTdCM5MCpY/gvrWBwm/+0Pae3mgWKuwVyRRUWpEAeQO04m50ZfS91+mrDYI22/zybryG+LGTKckbR5Vp4ZcJPTx3Yj180Ld6xo6e/9MkaEpQ1EVlH8+maPm54ga+hohWjOWjCxOSwGVagxZ6TjDf6XocDUocGLHJqxdEqjOPvlInZHKryaSYnqOdgNepbOPgjXvZ/LenU9eWlMm6BqpWnMPyVVPEtXnWRKG+CLZq7AW7qG0uBUm+rr9fjWOPfMnli9XyP4rY1jOZPLeexjp1oeJvP8rYjyc2CtSqfzhETK/TxVPjQmCcEFRREFZvXp1q8dwMRdJF62MfP4DZdWiCUq8yg3HVA9VEhalKF1uimz1c2teUSnRt7+urFwwVmknt3YsF3ZRtR+nvLZyoXJnjKrVYxFFlL9bEW1cw0X0CAnNpg7rydBhwxgca2Dr0vUcE7Ng/0jlia9ej752i41K0yWxyUYjqNH5e6OVJGQ/bd0cOkEQhBYiEiGh2RRdKJEeR/l8ziK2p1ejtHZAFyA5ahSz3x0FiE1XT6PuyqSFp2+6KgiC0JLqliC5xK1evZpx48a1dhiCIAiC4HaijWuYeGpMEARBEIRLlkiEBEEQBEG4ZIlESGh5cnv6TZ3BPVfrL4wFCwVBEIRLlpgsLbQ8dRyDJt1G0JLP+GRXRRMmqamIvn0B88acXKG7oYnHKvB/ACLHgK4NKCfAvAcynwJT7SNtfk9B/GgouA/yD5/+MZrboPvcul8Tyh+Fo9/81bO9sKh7MG3Z6ZOT1zz3JKvSxaN+giBcmkQiJFx0nDnreHnuBvJqH0X/w9NX6iEQ9xAYlkLaTsALPPzAdnKJRgm0MaAOcCVKnJEI2TfD7wdBCoToD8/7+bQoexLLZ0xllSQhR43k+ad7tHZEgiAIrUokQsLFx2GhuqKCioZ2H9F2Ajkf8pdB9dl2alOg5HEwRYE5+SxvV4K5EggF59/toUo75spKzIDKv0ZsfCoIwiVPJELNpOo0ntdenEDPSG9q8g7w814Lif2vom1NCmtffZYlO8pcW0Wo2nD1xEeZdsu1xAcplKbuYO27i1mxuxgH4NN/HuvmXcaGqWNYePBk4y0Te+/HfHJXFs+NfJYfjQ3HcRo5mN53/ZOpt/Qhsa0PsuUE+RkpbFn2Ast2mbhm1iZeC1nKiIfXUl6/ndcNYsHmJ6h8cjhzd9nOGTOA5NeVW+67nQE9E+kQFoze1wPFXM7+d6fxyGe122R4RjNk+uPcN7QHEV5mCo7ko1ZBkVvuQD3SldB9BXjULsuXeKT2DRtkD4WCbDcPewVA6Axocz14BoLtCBQugML9te/rIfJVCEwAjyCQ7WDeCblz4URe3WE0Q6DTM+AZApINLAegYD6UpLje954MsfeC1gdq9kKVGQKvA+dhyJwBFSWNjKeFefUgdNg9BMdfji4gBLWXFmpKqdowgeSf0l1Dor5DiX3oOYLahKBSWbGXHKDs+3lk7UrGoQD64XT812v4HPknSSt/cO1R5juAuKcW4XtgCoe+3O2qJwiC8BeJRKiZVCEJdIvK59OHFpLabxavjDay4olHyBw4i+efmMBPu9/kkN2bXo8sZeFoB5vfmcPb6RJxw6fyjzfeQv/QJBbuM2L89Wf2mvtx9XXxqA4muxINuR3X943BvGcFe03niuQkL3o89BaLb9exa8UbPLWvAJv3tTww/y56RXsj7TJQWlyKEh+IXoJyTQBt20iU55ZjDQgiQCrlaKkDOHfMAFJgL0bf1hfl6zdY+E4OZUYHGp9AyClwJUGSnr5PLeGFG8tZ/85MXsvT0O6K0Uzqdh5uhnIIkoeB930Qey0cfwBMdkABW76rjv1bSNoHUhDELG/Gh+kg8kMItULObDAawG8iRC0Dx81Qkg94gV8fcKyEYz8BbVyJStwCSLoHLLXppD0Z8maBtQwIgJDHIHoxmIeDwQaazqDNhdR5EDAP2hgg7X4Img/t74XKV0BpTDwtS/K7itAbBsAv88hYn4nN7EDSBUNJbuq4CxIAACAASURBVN28MNMRSr+dScmJUpxSIN5XPU6H8UtwFA0lK90GFd+QvqInXaa/QlzWbaRsNxM0bg5Bxvc5vE4kQYIgNJ9IhNxBKSPjyGF2eB7GONqfzIMH2MJ+HhvcnigdJHkOYtItURz9YDwvrcrAAezem4FHh5VMmTiQj/avpbR6Fz/sMfNi377ELUsm1QFyh34MiDew/cMdjd58VQoeyOSx7clccQ9PLUtzzZ/x8OdmO7QBwElRXhEEhxKskigbMJPPZvqw9NZpfBUcSrCzgLxCJ1JII2I+FVMNx7etZ8svf1wrWQ4dxJ2DA0la+gDzV+fhBHb96qDnuB4ENfvCn8kClgxQV4Big5rjYD5j8EepBks1YISGhtYaQzMMwiIhczCUlrteM6aBz1YI7gcln9TVtR6Aip2uP5t8oNsz4BcAltLamLKgPKuuvkkLQYvANxwM2bUvloLhEMhJ0MYfDPuAXyEo2tW7JTchnhZVg+nQF5QdaWAdbUcWlfvrzt2Qq8Wv9xL8osMhPRtQsKcu4Og3Xely6yJiwssJTMwh9/W3MDRxE1lBEISzEYmQOymgICHJgNOJgowsSahjE0nQFLJxX07dnAxHNnv3FvDAsERi1GsptVWyY9N2quf3o3/8e6SmQNygQcSW/8jinY0dEwN1XBc6aQr5Zmd6A1s4KBjzcjnhF0mYty/6G3qgkdX0uTqQjaa2BJVlk2sBdZfGxHzueFTRHYmVC1l/qLBZeccFx6s7qHwhZhtE13td0kBN24bXbLflgFMCtT9QmwhpekPkg+CfAGoZbCaQJZA9znIABU4tOuAEZJCkvx5PK5N8ryBs1D9p06kTWi8ZR7URWSNh1XjUC7kG4/ePk9VxPTF9EzCsG0F+vsiCBEFwD5EIuZPiwOlwojSpwamrbNi5nh/LBjBg8GW8l65m5LD25G6aw/6aJhxOkgDnn87xdeSkk630JrJjH9p3O8KKFSrG3nQ9iUltIXs7WeecQduEE1QUFCRk+UJbMai5WYEESi4cm/bHXidn5Z8c3lmby5y8HpEQ93+g3QXZj4KlEtR9IH5GA2E7OfsX7K/G04qkKEKnvE+H4J3krHmYE4WVSD7XE3X/45yZAkoBvdG31WA32/DqOQqfnxZSLXIhQRDcQCRCbmTbOZdBN7j+rKn3uv34EVJtI+jZKwpVkmuYCVU7evcOx5aWTPrJudGWfXy5LpORo0czMMOTIYFJfLgmhbM999QQR3oqx53D6N6jLXJS9ll7YZQTGaSfCOXyO0fS/vB6Xv1CQ+dPRzBBF0FJ0nEMCjgbG/M52I8dJsU2giuujkFzKO0C2mi0xvVEmMrvT+rYXHVk7z++ZToIyi3gpYXy3/96GHICeHtCwRtQftT1mhTQ8NNqlTNh71led1c8LUmVgG87T0xbXidv/1FXrqYOoMaunJ4IaRKJmDwb37x5/L7aQrsZLxN3668kff4/7BdigicIwkVFrCzdApSS71i+Jpf4KfOZNb4/1147kAkvvMKUuFzWrPi+3lwbB8fW/pf93kN4+skbUX7+jI35TRtQchZvZtW35Vx27yvMvLM/1/YZyLhpt9HDs14lx3FSjmnodV0cezduo7x0K9/8Fss1PVQcTcnE0aSYz3HupZtZ/lUO0ZP+zasPjOT6K3tz5XWXEdrqHUQGMGaB7x3Qph8EjIbAjmfUqQJzEfjeDsF9IeBmCIhzvWXbCIXHoe0y6DAZ9NeCf38IvQu0TfhnpRwHkw2CpkJAL/BOBN9E19BYU7grnnq0Hcfy0nvLWTrjxvNzv5zHMObb0F3xD8K69sYnKhGfmMvQqut/mBd+I14jMuAH0j/6FFPxVxxf/R2q616m/WX68xCUIAiXGtEj1CJM7Fv0II9XzWD63bN5Xa9QfuwXVjz+Jv/Zd/r8H2fRt3y8aTJLbjbw6UfbGj1J+hSlkm0LHmK2YQb3TZnDMG8zeUm5p//mrFSTciQLW8x+1uwwgALb1vxASZ9YDqeYmxzzuc59/+IHebTsIabe8iivTPFFZa2iJOM3vssytuKIjQMKXwTvF6H9UnAWQslsKE+rV8cOBS+C10yIfqeuzoljgAlyJoL1YWgzBUKCAYNrBevqzxofhpIJxx+DdtMh+n1Qe4CzCqxJYGnadXZLPKdI6OO7EevnhbrXNXT2/pkig5vvljOTguWPoL71QcLv/pD2Xh4o1irsFUlUlLq+G3KH6cTc6Evp+y9TVvuPwfbbfLKu/Ia4MdMpSZtHlRgiEwShmRRRUFavXt3qMZy34tFfeeWXncp7d7ZV5NaOpVlFpUTf/rqycsFYpZ3c2rFc/EXVfpzy2sqFyp0xqrO+L+milZHPf6CsWjRBiVe1fryiiCLKXy9/6zaumUX0CAkXH5Unvno9+totNipNF87MowufGp2/N1pJQvbT1u7ZdpZaYT0ZOmwYg2MNbF26nmNiCWpBEP6mRCIkXHTkqFHMfncU0NCmq0KD1F2ZtPD0TVfPRtGFEulxlM/nLGJ7ejVKC4YoCILQki7Q1UVa3urVqxk3blxrhyEIgiAIbifauIaJp8YEQRAEQbhkiURIEARBEIRLlkiEBBc5hqDhzxHROaC1I7kwiesjCILwtyQmSwsucgLBgyagWbuCvOQTp15WdXyaLvffinPLZH7/7vClO6Gsgetzbiqib1/AvDFRtU9oNTTBWwX+D0DkGNC1AeWEaw2gzKfAVPvIlt9TED8aCu6D/MOnf4zmNug+t+5Xm/JH4eg3f+1cLzTqHkxbdvoE7zXPPcmqdPEomyAIzScSIeFPSMiBsXh6BeAMDUXmMKLp+WucOet4ee4G8mof+f/DU27qIRD3EBiWQtpOwAs8/MB2cmVxCbQxoA5wJUqckQjZN8PvB0EKhOgPz/v5tCh7EstnTGWVJCFHjeT5p3u0dkSCIPyNiERI+BMKtt2PcTC/HUrhEZEENYfDQnVFBRUN7Zii7QRyPuQvg+qzbeSmQMnjYIoCc/JZ3q4EcyUQ2vA+ZRctO+bKSsyAyr9GfA8FQXArkQg1k6rTeF57cQI9I72pyTvAz3stJPa/irY1Kax99VmW7ChzbXyqasPVEx9l2i3XEh+kUJq6g7XvLmbF7mIcgE//eaybdxkbpo5h4cGTDaFM7L0f88ldWTw38ll+bOyOC149CB12D8Hxl6MLCEHtpYWaUqo2TCD5p3TX8JZHHMGjZhJ15RV4as1YsnKQVXBqo3vf20mcOw997TfE+dvD7Hlv41k3cXULuQ3+/Z4kqs9N+AT5grWMmsLDlG14kuxkIwF37yRB/2/2vfU5tvrtvMdwEhbMxr7sOo4n20AOQz/oGdr16YuXr4ItdytFG14lL7mwbljPHdfHXaQrofsK8Khd2jDxSO0bNsgeCgXZbh72CoDQGdDmevAMBNsRKFwAhftr39dD5KsQmAAeQSDbwbwTcufCiby6w2iGQKdnwDMEJBtYDkDBfChJcb3vPRli7wWtD9TshSozBF4HzsOQOQMqShoZjyAIwvklEqFmUoUk0C0qn08fWkhqv1m8MtrIiiceIXPgLJ5/YgI/7X6TQ3Zvej2ylIWjHWx+Zw5vp0vEDZ/KP954C/1Dk1i4z4jx15/Za+7H1dfFozqY7PqtV27H9X1jMO9ZwV5T42OS/K4i9IYB8Ms8MtZnYjM7kHTBUJLrauSlAALv+A/x3cooXv8YGaUadB3vICKm3kGM33Ds5b2o5CCCJ3xEhFuv2pm88Ru9gs436qjYPJfUtHycnjfQ7t578QvzgeRqrBXFEBmMRgKbOhBPvYy1pBSnbwgaijBVOgEf/G9dQafr7JSue4rsQhmvqx4matoKNEvHkJFmcN/1cRflECQPA+/7IPZaOP4AmOyAArZ8Vx37t5C0D6QgiFnejA/TQeSHEGqFnNlgNIDfRIhaBo6boSQf8AK/PuBYCcd+Atq4EpW4BZB0D1hq+2PsyZA3C6xlQACEPAbRi8E8HAw20HQGbS6kzoOAedDGAGn3Q9B8aH8vVL4CSmPiEQRBOL9EIuQOShkZRw6zw/MwxtH+ZB48wBb289jg9kTpIMlzEJNuieLoB+N5aVUGDmD33gw8OqxkysSBfLR/LaXVu/hhj5kX+/YlblkyqQ6QO/RjQLyB7R/uaPrmq9RgOvQFZUfOsuZywEjCewVR/fV4jm/NAaAixYlf3yvQnKzjrMZaXA2SAdv53tTSfzgRN8Rg3nwLqRuOuJIRtT81TvBwBUNNaQH4h6GRJdQ959NtvC/ZL95NoX84Hko+lhMO8B9BRJ/2mDaN4PhPx1CAitSjyKEbiBg0nLyjn2M9dR2beX3cxgKWDFBXgGKDmuNgPmPwR6kGSzVgpFldcpphEBYJmYOhtNz1mjENfLZCcD8o+aSurvUAVOx0/dnkA92eAb8AsJTWxpQF5Vl19U1aCFoEvuFgyK59sRQMh0BOgjb+YNgH/ApB0a7eLbkJ8QiCIJwnIhFyJwUUJCQZcDpRkJElCXVsIgmaQjbuy6mb3+DIZu/eAh4YlkiMei2ltkp2bNpO9fx+9I9/j9QUiBs0iNjyH1m8sym7kJ+bFNYJL7mA4vQL4zduqW03fFT5lBxJa+CpNAVHWTY2r3ZoPf3RdO2NLHsQ0DmYYkskmqoMLFaQOnTFW5VPSVpm3XGcmVSm5RF1ZVd0qs+xnm36zZnxXGDXx228uoPKF2K2QXS91yUN1LRteJ15Ww44JVD7A7WJkKY3RD4I/gmglsFmAlkC2eMsB1BwHRxcmZwMkvTX4xEEQXAjkQi5k+LA6XCiNOk/77rKhp3r+bFsAAMGX8Z76WpGDmtP7qY57Hf3xBTF1TBJsnTOqi1CkoA/v25K8VEsytV4RtyILjaJvM1qQrv1wyczCop+wnzOnpIm3JQL7fqc0tysQAIlF45N+2Ovk7PyTw7vrM1lTl6PSIj7P9DuguxHwVIJ6j4QP6OBsJ2c/eb+1XgEQRDcRyyo6Ea2nXMZdMMTbDqjA8d+/AiptjB69oqq2+1b1Y7evcOxpSWTfrKXwrKPL9dlEjZkNAOHjGVIYBJfrUmhEZ0YTaLkH8LoaIt/53jO3dRbcNoU0PmhPk95gVJwBJOzLX5xkQ3HYziGyRCOb7+x+GZ+TcG2dRg6jCYiIQpr/lEcCij5SRgdbfHr2KHuOHIH/DtG4Mz7/Q9tbYPxNOn6tKQa1xNhKr8/qWNz1ZG9//iW6SAo4eClBXP66aWmrPFhyAng7Qklb0D5HjClQvXhhp9Wq5wJe6fzh8e93BWPIAhCM4geoRaglHzH8jXjWTJlPrOs7/Fdpkzs0PuZEpfLmoe+p/RU++Hg2Nr/sv+uJ3j6SbD8PJON+efhOa3KDeT+bwqJg94hQVpC0dE8nLpueEhn+SVcMWDMzULqN56oa4spr/ZDKx+m6MDpw1jajmOZ+eQIApKX89IbWylqym/zFRso2PsACUOXEGt/m7ISGW3H2/HTgOVkHWcaxjwN4V0SKHlvC7YqFSVHn6ZjdxVl2467YqlcT972yXQespg42xJKCmW8rnyIiIgsipdurDc/yI3Xp0UZwJgF4XdAm2Kw+YF0BMrT6tWpAnMRtLkdgovBoQcOw4ljYNsIhROg7TJQvw8Vqa4Jy55hULEKahr5XVOOg8kGQVPB9BlYzaBKdA2NNYW74hEEQWgGkQi1CBP7Fj3I41UzmH73bF7XK5Qf+4UVj7/Jf/ad3n3kLPqWjzdNZsnNBj79aNtfmCTdGEaq1txDctWTRPV5loQhvkj2KqyFeygtNpxR14Hxh9nkRMwhfNzbhNgKMO6YRenBNOynYpPQx3cj1s8Lda9r6Oz9M0WGpgxFVVD++WSOmp8jauhrhGjNWDKyTp8XrFRjyErHGf4rRYerQYETOzZh7ZJAdfbJR+qMVH41kRTTc7Qb8CqdfRSseT+T9+588tLOPC93XZ+W5IDCF8H7RWi/FJyFUDL7jETIDgUvgtdMiH6nrs6JY4AJciaC9WFoMwVCggGDawXr6s8aH4aSCccfg3bTIfp9UHuAswqsSWBpynw2N8UjCILQTIooKKtXr271GC7mIumilZHPf6CsWjRBiVe54ZjqoUrCohSly02RrX5uzSsqJfr215WVC8Yq7eTWjuXiL6r245TXVi5U7oxRtXosoohyMRXRxjVcRI+Q0GzqsJ4MHTaMwbEGti5dzzGx9O8fqTzx1evR126xUWk6y2P7QgPU6Py90UoSsp+2bp6dIAiCG4hESGg2RRdKpMdRPp+ziO3p1SitHdAFSI4axex3RwENbboqNEjdlUkLT990VRAEwV3ESh21Vq9ezbhx41o7DEEQBEFwO9HGNUw8Pi8IgiAIwiVLJEKCIAiCIFyyRCIkCI0hxxA0/DkiOge0diTnmTeEzIDQy5t5HB9o8ySEdndLVIIgCOeLmCzdTFLgaBZvmMk1tVssWX94hpue+h5374rRWlQdn6bL/bfi3DKZ3787fOlOKJMTCB40Ac3aFeQln2jCX1QRffsC5o05uar4hT5Z2h9C7gVbChQdasZx/CB4EtgOQ9GBhqupezBt2ekTodc89ySr0sWjh4IgtAyRCDWTUvEj8+5OwksOZNDMJUxo7YDcSkIOjMXTKwBnaCgyh/+wS4LQOM6cdbw8dwN5tY/PX5hJUFP4Q9gzEDYANBKYtkDWPDBUNu0w9iSWz5jKKklCjhrJ80/3OD/hCoIgNEAkQs3lrKIgvQrkakrNf7f+EgXb7sc4mN8OpfCISIKaw2GhuqKCir/FrhEyhLwK7bpA/hwwAGH/goRXIWk6WJtyknbMlZWYAZV/jfiOCYLQ4kQi1FJkPZePnc4Do68lsX0ASmkK//t8MW+sOkhFbf4kBfbn2aUz6N8uCB+1jYrcJH786E0Wr0/D1JQcy6sHocPuITj+cnQBIai9tFBTStWGCST/lO4a3vJMJHT0M4R374bOxwOn5QS2onWkL5lPhQXwvZ3EufPQ135DnL89zJ73NnLe2nG5Df79niSqz034BPmCtYyawsOUbXiS7GQjAXfvJEH/b/a99Tm2+tfCYzgJC2ZjX3Ydx5NtIIehH/QM7fr0xctXwZa7laINr5KXXFg3rNeY6+MRR/ComURdeQWeWjOWrBxkFe4f8gx8E+K6QvJgqD65va4KIr6EsAw48Jhrs1LNEOj0DHiGgGQDywEomA8lKXXHUneHiAng2xW0IaDSgrMUcidCYUbT4vKeDJc/D57eYNkH+fOg9KjrPSkBwq+H8icgd5PrNYMduv0b2nSE3Hox+T0BPeeBSgHLTsh5CSoK/urVEgRBcDuRCLUIT7pMXcrSsVY2vD2fZSlGAnvfySP/fIMXjeN57OtCnIBSlcbmD+exqagcs6QnYfh0Zjz7CqbM21l8qPGDKZLfVYTeMAB+mUfG+kxsZgeSLhhKcmuTATW+w98ipnsWuf+dyokSI5IuFM9gKxZr7UGM33Ds5b2o5CCCJ3xEhPsvSj3e+I1eQecbdVRsnktqWj5Ozxtod++9+IX5QHI11opiiAxGI4FNHYinXsZaUorTNwQNRZgqnYAP/reuoNN1dkrXPUV2oYzXVQ8TNW0FmqVjyKjdb+yc10cKIPCO/xDfrYzi9Y+RUapB1/EOImLOw6lXbQHnINB3gurfXa9J7SEgHqr+r27Hdnsy5M0CaxkQACGPQfRiMA8HQ+13Q3MVhA6A4vmQmwkOB6iCwZLX9LgkExS9BBYbBE6DmPfBcTOcqABND9A6IX8XtFkGkTpIngEGJ/h0A+olQtYdkPsdOPUQ+gTEvQJJk8WGqoIgXDBEItQCpMBB3De+Lbvmj+Hfm064Gtsjx9AkbuDFYTcQsn41RU7AnsOvW3JO/b3kNC29Bs2ne9dQ5EO5TeyNqcF06AvKjpwtgVKj8dWDcStVqb9iMDiAJKpT61VxVmMtrgbJgM16lkO4k/9wIm6Iwbz5FlI3HHFdH7U/NU5wzUF3UlNaAP5haGQJdc/5dBvvS/aLd1PoH46Hko/lhAP8RxDRpz2mTSM4/tMxFKAi9Shy6AYiBg0n7+jn9Xag/5PrEzCS8F5BVH89nuNbXfejIsWJX98r0Lj73O3bodIEAf0h93fX8qaeg8GrGvK21dVTsqA8q+5nkxaCFoFvOBiy6x3QAhVfQkUzZyEZPoeib1x/rkwD3UYIGwYnPgVNCEjVYLOAbySoPUFtApsJvNucvkyrZSec2O76s1kP3Z8CPz2UlDcvPkEQBDcRiVALUMd3obOnD/pZG9nxfN3rklqDnBtGiARFgBzYg9un3cfIq+IJ85UwnTDj6SlRqPVwc0QWKja9ROkDL5I45yaqD22gdM9XlCSn42iFaU5S2274qPIpOZLWwFNpCo6ybGxe7dB6+qPp2htZ9iCgczDFlkg0VRlYrCB16Iq3Kp+StMy64zgzqUzLI+rKruhUn2O1n/UDTo8nrBNecgHF6fnuOsU/UQGlWyF+EHgtBSMQNBxs30FlvZ3uNb0h8kHwTwC17Eo6ZAlkd383ziYXDPkQ3MmV5Jxih7w7oFgGqw1CznEYWw44ZNDoAZEICYJwYRCJUEuQJCRnPl/PnMGnx0/v11FsVRQ6ALktY15+k4cjf+W9xU/zS2Y1sv5qHlgwnaDzEJKz6CuOzt1K/mXDCe41koip9xOV9Tap/7eYKmMLZ0OSBDhR/uRjleKjWJSr8Yy4EV1sEnmb1YR264dPZhQU/YT5nN1lTTgnRQEkJFk6Z1W3qPwKbO9B0OVgVkNwNJQ+Q10XYCTE/R9od0H2o2CpBHUfiJ/RMvGdyn5qr6GtBBRf0HiBUglWAL3rZ1vJn1xqh+s9SSxfJgjChUMkQu6i2LDaFNB54SVBTb3GwH7sMCm2EXRN8KTghyNnn3CrjqNropbjH7/N8i3prjZQo6egRjkviRAAjnKMhz7GeOhjckKn0Pnpf9H+mrUkbak3BIMFp00BnR9qiXpDS+6jFBzB5LwFv7hIpIzMs7ejhmOYDOH49huLLvNL0rdp8H7uViK0UVgzjuJQQMlPwugYg1/HDkgZrqEx5A74d4zAmfc75kY+kqTkH8LoGIN/53ik9OTzv3aSczeUpEPIODB7guYAFB+ue19OAG9PKHgDyk9OWA4AZwslrFI0+EWAsXboznYAamTQXwOl37rqqK8BH/nP1wwSBEG4AIlEyF2UajIySlDdcitThpWy0+BPW1JY83M6jtLNfPD5ON66ZyFLfD7iy1+OccLuSVC7MCr/9wW/FDjBnknKMTsDhkxi3NGvOFhkRvJJINTjfPRKeOI3YCZ66w4qc3OxO7Roo7vioarBYjCecV4GjLlZSP3GE3VtMeXVfmjlwxQdOH0YS9txLDOfHEFA8nJeemMrRU1poys2ULD3ARKGLiHW/jZlJTLajrfjpwHLyTrONIx5GsK7JFDy3hZsVSpKjj5Nx+4qyrYdd8VSuZ687ZPpPGQxcbYllBTKeF35EBERWRQv3dj4JK5yA7n/m0LioHdIkJZQdDQPp64bHtL52qHYAcUrIew56CDBicdPn0ysHAeTDYKmgukzsJpBlegaGjtfPC4Hv1KQI6HNNNBlQnbtnCElBQq2Q/SzEKGqfXz+KeB/UJx2/mISBEE4D0Qi5DZ2fv/4VT6Oe4Jbn3udMZZiktfO57tt6VQrJg6+PZ1phQ9w/5i7eWZ0EDrFSHHmPj458CUUAM5s/jvrWfweuZc7Zy7mYT8NDnM1lSXJ/JJrPOenN4mkQ1L743/9HMID/ZGpwV6eSuV3j5D1a+kZlR0Yf5hNTsQcwse9TYitAOOOWZQeTMN+KiuQ0Md3I9bPC3Wva+js/TNFhqYMRVVQ/vlkjpqfI2roa4RozVgysk6fHK5UY8hKxxn+K0WHq0GBEzs2Ye2SQHW2qbaSkcqvJpJieo52A16ls4+CNe9n8t6dT16a4Swf3BAjVWvuIbnqSaL6PEvCEF8kexXWwj2UFjflOE1gXQdlD0CIAQp+OP09JROOPwbtpkP0+6D2AGcVWJPA4ubvBiao3gNBt0CniaBUg/EnSH0dqk5+lhNK/gWqZyH8JWiLa0HF1LlNXENIEAThwqCIgrJ69epWj+FiLpIuWhn5/AfKqkUTlHiVG46pHqokLEpRutwU2ern1ryiUqJvf11ZuWCs0k5u7Vgu7KJqP055beVC5c4YVavHIooof7ci2riGi+gREppNHdaTocOGMTjWwNal6zkmlgf+I5Unvno9+totNipNF/8mG+6hRufvjVaSkP20tfuxCYIgtByRCAnNpuhCifQ4yudzFrE9vRqltQO6AMlRo5j97iiglTZdlbpA1/+CrqFUwwH54yAnqSWjAnVXJi08fdNVQRCEllR/6bNL2urVqxk3blxrhyEI54kn6DrULlVwNgrYMl2LJAqC8Lcj2riGiR4hQbgkWMCccu5qgiAIlxixspkgCIIgCJcskQgJLU9uT7+pM7jnaj0ttHbzRc4H2jwJod1bOxBBEIS/HTE0JrQ8dRyDJt1G0JLP+GRXRRMmqamIvn0B88ZE1T5d1EoTj1ucHwRPAtvhP1+5Wd2DactOn3i85rknWZUuHuMTBEFoiEiEhIuOM2cdL8/dQF7to+gXfxLkD2HPQNgA0EiuxQmz5oGhsmmHsSexfMZUVkkSctRInn+6x/kJVxAE4W9EJELCxcdhobqigoq/xSLGMoS8Cu26QP6c2u0q/gUJr0LS9Cau1GzHXFmJGVD51yD6gQRBEM5NJELNpOo0ntdenEDPSG9q8g7w814Lif2vom1NCmtffZYlO8pcW0Wo2nD1xEeZdsu1xAcplKbuYO27i1mxuxgH4NN/HuvmXcaGqWNYeNBee3SZ2Hs/5pO7snhu5LP82NjdFORget/1T6be0ofEtj7IlhPkZ6SwZdkLLNtl4ppZm3gtZCkjHl5Lef1xKd0gFmx+gsonhzN3l+2cMQNIfl255b7bGdAzkQ5hweh9PVDMubPrcgAAIABJREFU5ex/dxqPfFa7TYZnNEOmP859Q3sQ4WWm4Eg+ahUUueUO1BP4JsR1heTBUH3yGqog4ksIy4ADj4ED0AyBTs+AZwhINrAcgIL5UFLvqSp1d4iYAL5dQRsCKi04SyF3IhRmNCGoAAidAW2uB89AsB2BwgVQuN/1tpQA4ddD+ROQu8n1msEO3f4NbTpCbr2Y/J6AnvNApYBlJ+S8BBUFzbhgzeDVg9Bh9xAcfzm6gBDUXlqoKaVqwwSSf0qvHe7U4JEwgaiBY9BHR+OhceIw5FC15XFSfzyCoh9Ox3+9hs+Rf5K08gdsCuA7gLinFuF7YAqHvtyNQyzuIQjCeSYSoWZShSTQLSqfTx9aSGq/Wbwy2siKJx4hc+Asnn9iAj/tfpNDdm96PbKUhaMdbH5nDm+nS8QNn8o/3ngL/UOTWLjPiPHXn9lr7sfV18WjOpjsSjTkdlzfNwbznhXsNZ0rkpO86PHQWyy+XceuFW/w1L4CbN7X8sD8u+gV7Y20y0BpcSlKfCB6Cco1AbRtI1GeW441IIgAqZSjpQ7g3DEDSIG9GH1bX5Sv32DhOzmUGR1ofAIhp8CVBEl6+j61hBduLGf9OzN5LU9DuytGM6nbebgZVVvAOQj0naD6d9drUnsIiIeq/+NU9mZPhrxZYC0DAiDkMYheDObhYKgdaNNcBaEDoHg+5GaCwwGqYLDkNSEgHUR+CKFWyJkNRgP4TYSoZeC4GUryQdMDtE7I3wVtlkGkDpJngMEJPt2AeomQdQfkfgdOPYQ+AXGvQNLk0zdobSGS31WE3jAAfplHxvpMbGYHki4YSnJrkyAZj56v0nXyYJTkj8n/7A3MVWYk3/aoSmvrVHxD+oqedJn+CnFZt5Gy3UzQuDkEGd/n8DqRBAmC0DJEIuQOShkZRw6zw/MwxtH+ZB48wBb289jg9kTpIMlzEJNuieLoB+N5aVUGDmD33gw8OqxkysSBfLR/LaXVu/hhj5kX+/YlblkyqQ6QO/RjQLyB7R/uoKqRjYIUPJDJY9uTueIenlqW5po/4+HPzXZoA4CTorwiCA4lWCVRNmAmn830Yemt0/gqOJRgZwF5hU6kkEbEfCqmGo5vW8+WX/44W0cOHcSdgwNJWvoA81fn4QR2/eqg57geBDX7wp/Bvh0qTRDQH3J/dy0V6jkYvKohb1tdPSULyrPqfjZpIWgR+IaDIbveAS1Q8SVU/MVZSJphEBYJmYOhtNz1mjENfLZCcD8o+QQ0ISBVuxYy9I0EtSeoTWAzgXeb05c8teyEE9tdfzbroftT4KeHkvK/Fl+z1WA69AVlR85yfdQ9iRg9AlXqbA6+u6perrajXiUFe+oCjn7TlS63LiImvJzAxBxyX38Lg7UFwhcEQUA8Pu9eCihISDLgdKIgI0sS6thEEjSF7N+XUzdvw5HN3r0FaDomEqMGlEp2bNpOdft+9I9XASriBg0itvxHNuxs/A7j6rgudNIUsmdnegOTiBWMebmc8AsjzNuXq27ogUbuTJ+rA9GGtSWoLJtcC42LuRFU0R2JlQtJOlTI+e+3qIDSreA5CLxc15Cg4WD7Dirr7Rqv6Q3R/4Huv0DvXdD1WZAlkD3cG45Xd1D5Qsw2uOL32rITAnzAoy2nrx1gh7w74MCtUN2IxMuWAw4ZNHr3xuwuAd3x0Tuo3v/tOTqsajB+/zhZ6e0J7XsNNZufIz9fZEGCILQc0SPkTooDp8OJ0qQu/brKhp3r+bFsAAMGX8Z76WpGDmtP7qY57K9pwuEkCXDi/JMYHDnpZCu9iezYh/bdjrBihYqxN11PYlJbyN5O1jln2TbhBBUFBQlZbqEVgyq/Att7EHQ5mNUQHA2lz1CXhUVC3P+BdhdkPwqWSlD3gfgZ5yEYCZRcODYNzGdcVGel6zLaSkDxBY0XKJVgBdC7fraV/Mmldrjeky7Q32WU2gv+Z1/EWlJAb/RtNdjNNrx6jsLnp4VUi1xIEIQWcoH+L3pxsu2cy6AbnmDTGR049uNHSLWF0bNXVN3u2qp29O4dji0tmfST83ot+/hyXSZhQ0YzcMhYhgQm8dWaFOw0niM9lePOMLr3aNvgzVVOZJB+IpTL7xzJ5Ye/YfUX33I4cRgTroyg5NhxDEoTYj4H+7HDpNjCuOLqGDRNOI+/zLkbStIhaBwEjQfNASg+XPe+nADenlDyBpTvAVMqVB9uVIPdZKaDoISDlxbM6aeXmjJXHdsBqJFBf03d31NfAz4yGP5kzaALXcXvGCpV+PYYiPbP/pfRJBIxeTa+efP4fcELVPjfT9yt16MWK20KgtBCRCLUApSS71i+Jpf4KfOZNb4/1147kAkvvMKUuFzWrPi+3lwbB8fW/pf93kN4+skbUX7+jI35TRtQchZvZtW35Vx27yvMvLM/1/YZyLhpt9HDs14lx3FSjmnodV0cezduo7x0K9/8Fss1PVQcTcnE0aSYz3HupZtZ/lUO0ZP+zasPjOT6K3tz5XWXEXreGjoHFK8E1QjoMBBOfHT6ZGLlOJhsEDQVAnqBdyL4JrqGxtzNthEKj0PbZdBhMuivBf/+EHoXp7IDJQUKtkPgsxAxHPyHQ+wzwP+gOM39MdXSdhzLS+8tZ+mMG8/PvbDvJX/DDzgve4HLpj1DeO+b8E+4Dn23WwjrFlc7KuiF34jXiAz4gfSPPsVU/BXHV3+H6rqXaX/ZBTrkJwjC344YGmsRJvYtepDHq2Yw/e7ZvK5XKD/2Cysef5P/7Du9+8hZ9C0fb5rMkpsNfPrRtkZPkj5FqWTbgoeYbZjBfVPmMMzbTF5SLvb6x1GqSTmShS1mP2t2GECBbWt+oKRPLIdTzE2O+Vznvn/xgzxa9hBTb3mUV6b4orJWUZLxG99lGZsyyNZ41nVQ9gCEGKDgh9PfUzLh+GPQbjpEvw9qD3BWgTUJLE05r8YwQc5EsD4MbaZASDBgAPMeqP6sto4TSv4Fqmch/CVoi2tBxdS5TVxDqCkk9PHdiPXzQt3rGjp7/0yRwd13wknN7kdIqp5E1MBbiRh/DxoPCWd1Fobdcyk9dAxn++nE3OhL6fsvU1b7Rbf9Np+sK78hbsx0StLmUSWGyARBaAGKKCirV69u9RjOW/Hor7zyy07lvTvbKnJrx9KsolKib39dWblgrNJObu1YLuyiaj9OeW3lQuXOGNVZ35d00crI5z9QVi2aoMSrWj9eUUQR5fyWv3Ub18wieoSEi4/KE1+9Hn3tFhuVpot/kw33UKPz90YrSch+2rq5XWfWCuvJ0GHDGBxrYOvS9RwTS1ALgnAJE4mQcNGRo0Yx+91RQCttuip1ga7/BV1DqYYD8sdBTlJLRgXqrkxaePqmq2ej6EKJ9DjK53MWsT29GqUFQxQEQbjQ1F+u7ZK2evVqxo0b19phCBcFT9B1qF2q4GwUsGW6FkkUBEG4AIg2rmGiR0gQmswC5pRzVxMEQRAueOLxeUEQBEEQLlkiERKEvy0NN3oGMF4tI9YnFARBODsxNHaBkIZ5EjxTXddgWe1UDrRQY2taHaGRJJCCZVQeCva8ZkyTc9NxEjzb8p5Wc+pJryprMaPM5mZOAtfQX+tLkFLNZ3Zn7WRAHc/6tWH4qS+RjY8M+SwTT44JgnCJEj1CF4pCJ9b/2an51YmzoXX0GlNHaBT1fV6EfO2FfkLzekvcdRwAh6OKf1bnMqoql/EWy3l6Es7CotrPGG2sIvO8fIYgCMLFQ/QIXSCU/VYq9wORGgI+1Z41Q21MHaGR3DVW5NYxJydVTgdl7jzkHygYFQdGQKUoiI4gQRAudSIRchO5pwbvuzR4dJFReYNS6cS+1UrV63YcTpCv0+L/iBpVoISsUXDmO6n50orxS8d52e/znHxkdFO16PrKqAIlsCg4MxwYX7ZgyQa6aAl6V4PKaKdytIUaMxCuIeAzLRq7napbLdh6a/GdqEYdKSHZnNh+U5Avl1FJCtYPLFR94Wz5tRnOcV5nDi/Ko3SEjKr9wWqnaqgFi/nc96uxx3FRcZ0ulJka+NFcxGs2x1+4Liqu1AZwv4eOOBnKHGbWWU6w0u6oS2YkDYO0AUzy8KQtCoUOO2qguOlXURAE4ZIhOhXcQDXck8BFWnRXy8gOJ/Y0Jw6DhOzBqSEsp1kBsxNHsgNrmoIUpUL3qCc+N7TCNFZJQvuYDt+xKlQqBft+B/ZcBTlWQqqprZNqx1oGeKvw6Fz71zqpUKtBOeLAWg1SBxUesRJKugOnSsajj4yU5cSpldFO9cBDdwGeV+3wojXblYoohQ5q/md3le1OHHZXtXPer0Yex0VNT7UGP0nDlSp1gys+N0ymh2cor2o1ZFnL+JexjC+cHtzjHcqDavlUnes92/Cch4qDllL+ZSrnvw6n+E1HEAThHMT/k82lU+H9DzWypGD7wELlckfd/J36Oc5+KycmAjoJ2RNUt+sIuEfG4woZ6ee/0kPQDJKEOk4CRcH2kYXK1bU9NzoJ6WQvhs1JzR4F3XAJj6tk2O9EfbmMJIFtt+scZQBFwbrUQs1AL/QjFSwLLNgneuHfT0IVBJx9ceNWO6+Tw4vqqV4ETpJQ9lipeuUs1/9c96uxxwGghpXmcsxq2FtTg/2sdf7ktGQvJnioOVZTwPwaGw7gV7sNjU84E7VerLQbOCF7M85DxWFLEf+22nECe+wK3bVagpr4eYIgCJcSkQg1V3sVaj1gcmBa5Th9EnO9VlF1oxbfB9V4tJVOS5Ak71boEXI6qfnegVesCo9HvAi62UHNDzYsG+3YTg3nKNi22HEO1aDqo0b9vh1NNxkcTqy7zpypraAYFNcTVJ4KShWAhKRp0bNq5Hk1jrvvV7m9mvebmgHVUsta4iUH39rt9eb02Nlvd3CfhwcxwAHZgxgcfGN3JUGCIAhC44ihsZYQrMH3eQ0eoQo1H9ZQ+YyF6vWt21zZPzFT/nANxo0OnHoVuvs8CfjEC+/L6xp65Tc7NcVAOzWe16rwiAH+v707j5KjKvQ4/q2q3qe7ZyYDM9k3AokgKkg87PAgiBoUBUFReCiCovBERNxAAYU8WYSDGuEBDwUENPhEEXCJhE2EACoJgRBCliFhEpJJZuu9q+q+P2YgkzBJujM9mUD9Pufcf7rv3Hvrdp/Tv7l1q2q1S2nFW9szHpjSFs9rGYaMV8lxbWagl3fk8xriY62keR+wdMcgEZGqKAgN1qs+bg+QcEh8ysEeaEZbLJwosMEjf3uZ4qMuxcVm4NMoBTAGsCyclr7XtlxZqaTOdjiTbMyCMtlZeTYen6XrPh/qbOLH9bsMvOSRf9AHxyZ2foRwGNxHXcoDXGrk3pRj/dE5sou30mHYJn55gt3uS1B/4tDd4K+i4wLoewyY1WJvemRYvC9GVPl5bbWdfqJ2jBnhGGN34MBdv8jLxuF9of77i0LsH3IoeyWWA67XW+f9oXC1XwURkUDTqbHByrlkb/GIfN0hfFacppN9vLVABGzXpesLJcqrfMrd4DSHSd9sU15pYJw98BNvOzzKrRCZ4pC8OUFsHdh1Ht2nFCmVq6izLSGH+DVx4imDt8rHL1g4e9pgwH9t8x989/4ypVOiRJot8HyKf9vBlawJIeJH2NgORD8ZIvT70oCBalCqOC5vqYfv29jTo4y4O4xfBHt3n54TCxSr+Ly22c6bp+MifDbRzBmOxWvFtXy2UN0+IePnuKOU5tro7nyHTv7mweRIA6c7Lvdlc72X25scvyqluS62O1dYXfzBdSlZUVqg6j1JIiJBohWhGvB+l6fjgiL5p3x8yya0l43TYmGy9EbNbpfMxSUKL/gw3iE6I0RkAngrPUpLt7jE3PPJzSpSWGwwdTbOaAu/1WBCVdbZJoM7z8XdAM4Uh8i7LayNHoVbC3TdtUXQWeuSn9d3ZdTCMoXlOzhJr7oUnvYxOUPpAQ93SG5gU/lxmfkleu7ycDsN9lgbZ5SFWWkgRlWf1zbbeZPPGr/371LWjqyG+fy78DrfLpaZHGniR3VNnGSXuTO7jtmuv1mdbxSKpMKN/LCuhWviSZq8Igu9YbiNgYjI24hRwcyZM2fYx7BLloht6m5Omua/15n0Udbwj+dtWuqdBnNLeoz5Zsge8P2psdHm4WS92WMnjslxGszt9aPNl5zhnx8VFZWhLfqN23rRqTEZkH1sjIZPWVBvExoJ5l8lso+YIejIJv69KLFRW6/i/bVMed/wtuv8pUj3vbvi9VI2R8VH8d0wPFtc328FZ+C6aduhyYCPT4cZgvnGos6yiQG2Ze3APY1ERN5ZFIRkQPZIC3uCg20Z3EdLZK4u4w1FzrDAmeoQnriNsSws42+vzoJaD6xWfBaU2jmrUGLFdoKN46T5WSoN1OqhqwOJcV5q84euPlbzPkRE3j4UhGRA7m152m/bCR15PpnPZMhsr97PK6izi9rgFbf7/LAlhTYOL+yM0eSZ1d3KrJ3RlYjI24A2S4uIiEhgKQiJiIhIYCkIiYiISGApCImIiEhgabO07BqselJHXMTEo4+hLm1RXj2XtnuuYM3KzuEemYiIvINpRUh2ATbRA69m2omH4s2/lJduuoT1+UOY+JWraG7UV1RERIaOVoRqIkxk6mmMO+ZEGiZNIhL28TKr6P7bBSyZ9yKMO4Npp59JevcUfvuzbHw5R3K/Q4mWX2Ddb85j5aL1YDXQ8NHrGP/+vYk3NmKbboqt81h7/9WseXk9Vd1az2okdcQ3GHfw4SRbRkDXC3Q8ciUrH/4n5TcaSn2YPf7rIpqad8dxSrjrn2PD3Fm0PrUYzwANM9nrm9eQfPFcnr/zod6/S81gyreuJ/XcGSz8v/m99WrBnkbL0YfDc1/n5QcexDXQudIldumPGX3wVNY/sLi64xcREamQ/t0eNJvI/ley77kXUO8/Ttuvv8ri2V9i6e/uoH35agxgNexNqnk1bbNPZdmSkTQf3EzH7V9gxZJmRp50JikHIEF8ykHUZe5l6ezTePGmK1ifm874c25j/JREFeOJk5p5G3t/ZCr5x7/H4mtP55XH15E6/iamHDR6U7Xci7T/+WJeuv5Enr/uHF5dmmb3z/yUsZP6nl3e+SDLb7sLf/qPmHLoRCyrhd1O/gFN2VtYel8NQxBAaj9SzT49i54kdMjNHPCjXzEqPZ/OlT6xye8lNFSPqhcRkcDTitBghfZnzMePw1lyCQtuvJvim3dffmLzeqad/MoFdEQW4h3SQH75s7TzNBOnTyYWgZ6+m+mZzufpXDIfH+ha8hJceC+jPziTtmX3bFrN2Zb0TMYeNYbOXx/Diqc39r7WugR7wuNM+cAMok/eTtEAXitd/2p9888yq6OkD/gp6UmjYPmrgMFdchVLH9yXd59wPZNHbWTE3qtY/ePZZEqDmrG3sNLNhOmh0F0ktOc4wskY0USOzq4c1vhmwhaVHbuIiEiVFIQGq/F9JBs8ev78534haBt803uaxwKMAWwseytLHu5SOpe0MXb6e0g499Dlbr95a8x+JKNpQqc+wYGn9nvdDkP7aCIWFA1YqemM/Ni5NE+bRjRh4/VkscMWpXCkd2gAFMnOvYDWvf7I5COmkrnvONraapyCNlMmc/9J/PNxh3JHmfqDhrArERERFIQGz/SlH7/SJQuvt25F1U1v+5ZFVWeH/NWs+8UXaVuzRTJzO3vDmjWOljNuYeJuT7Lq3q/SsbYLK3kY4866gMgWTVmNB9AwOoybL5PY/2MkH76WnhpnIdO9jjIpwukE+F2UOgCrgUh9AtOzXqtBIiIyZLRHaLA6F5HpckjtdwzRCmbTvHgRz5x/Nusrea6UNZbUHmMwaxaT8yobjmlbSNYbRWpcjOLaZeT7l/YN+ADOVFLjY+T+8WNe+9d8sm0vkVm+iKK7ReII782Yz19C6rVZLLrqUjrrz2LKCYfVfs9Oz7/pWWeT2ufgTW0nDqZhgk1h+XNsOSwREZFa0YrQYLnP0nb/QzSddin7fHkKa+Y/Ra6nhBVrJsbzvL7glaqasyafwvgjoWudS2y/cxg3cQPtNz1AqdIw0PVHVj18GvsccxN7x29m7QtLKHtxIi2jcBfeScdGH/xXyLaVaZp+NiNX301PZw7i+xDdLOEkSB93DWMbH2LplXeR64Zlcw7jvZ+/nAmLjmfZos3v7xPd65NcfOFxNC7+JT+87hFerya8+C/x+rzHaTnlYvZ83WHNCkj9x3do4jGWPblEV4yJiMiQURAaNJ/i/PN4vudzjDvmBMZ85j8JRyz8nlYy86+gfeErVLJ16E1ukuSRP2BkUwyv/VnW3X4BrQurualgjp77TuOFjq8x7rAz2eOQ3bBND6W1T9P2yl2wEfBXsuaX5xE64RxGnXorExIRTKkbt/N5OtuzGMCe+BUmH5mi/ZbL2dDdG0XK//5vWj/wIFNO/ArrX55F95unyCwa9nwve6QThN5/EO+qe5TXM1UlIYpPXshLkYuYOOMKph0L5VVzWXnD5azbWNXsiYiIVM2oYObMmTO8Y7BGm1Fff8kceNZMY+8C81FtseKTzEe/97/m7utPM3s6wz8eFRUVFZVNZdh/43bhohUhGbTQyP358Ec+wrF7ZHjkZ3/klQr3M4mIiAw3BSEZNBNvYWxkKb/5wfX8fXkPZrgHJCIiUiEFoV2FaWPNtdNYM9zj2AHeij9xw43DPQoREZHq6fJ5ERERCSwFIREREQksBSEREREJLAWhGgt9vI4Rs+tI7KlHpouIiOzqtFm6pizsUTZWHThNwNKh6MIiNCNG3YdCOPVgXnXJ31mgsGzHr9WyxkZIXhgj0lmk87Ii3hv3MKyiL6slTN35McILc3TctfXr57fal4iIyDDQilBNGUq/yNJ1aZbM/KG5iNw+NE76lBDmiQI9PylQzIWoOz9OdMQONtgSJnlBlNAAD42tqK+UQ/QTceovixNt3s4q2Db6EhERGQ5aEaqFeJjUT+NEwpteMk/l6bihvOmeOpZF6OgoiSNChEba0OVRmlsg+1cPU2kucBxiHwrBs3l67i1jDJSXg3NlnPgRDsV7PWgMk/x+nNCiHN23uvgGSIdIXpIg9M8cXXe7m/qLOyTOjWE9lCPbGCc5pcq+gNDRMRL7+BRuzGN/Ov6Wp9dvmqNt9FXp/NRiDkVERPrRilAtFFyyF2fo/HaGzu/myK/YsoJF6BMJ0h938OYV6J6VJTPPJ3RSguThVXwEKYfQSCgvcLGPSND4kwSxepfScrCnONgW0FEme3MJDopTd6QNlkX0tDiRTJHMb93NQkXk9DjR1wpkHvDeehPESvoC3D9k6bg8T/55f+thZHt9VTQ/NZpDERGRfrQiVAvG4K/t+3m3wC9t8X59iPixNuVfZsg+2VdvRQEmJUkeHMJ+rERFZ4vqLWwM5S6wptrYSXASUOowWJMsLBvwwLxYIPN7h/Sn4yTHGML7+uQvL+L2G5d9YIy6yS6Zy8r4Bpwd7KuS20hvv68K5iddozkUERHpR0FoZxjnEIpa2GemGHHmppctG1hvY9vgV/V8LoN7b5aOh8HfaAgf9tYa7oN5cu+qo26GhfvbDPnV/d5MhkicHKJ8V4ZydvB9bVMlfVUyPzWfQxEREQWhncf3KdyYo7B6i9ddU/kPeJfBx8Kut8A3+BsBy8JutDDdBtP/CqwRDuGxFiZncKaHCc0t4hZ737L2jRBptLDOThE5u+81G7CiNNzgkP1WjkI1fW1DRX1VOj+1mEMREZF+FIR2htUenhshPN4i98xAe2Qq1OPhroXoe0JY/+jdwEwiRGQS+A95m04NRRziZ8cIrSrQdYchcVGc5Kc8uu7o3SNknivQ9Z3Nmw4dX0dyXJme2SXK3YBVYV/bUVFflcxPreZQRESkHwWhnaHTJTfXIz0zQSpRpLjQx/fAHmnjP1ei3F5hO55H4S8usc9FSa2B/DIIfTBKBJfMY28siViEPhEn3uSSubSE1wXZX4WoPztG3YIsmQUG8j5efvOm7azBuAZvrd+32lNJX0DYwmm2wLGxw0DSJjTWYDIGr7PCviqZn1rNoYiISD8KQjuFwf1tju4NURJHRak70sLyDf4aj/zLJcpVtOQ/nqc7GqPuwzFSHwXT6pK9rkBxQ+/71h4RkjOg9PMCpa6+v3mmQO6gJMlTohQWFzbbND2YvgAYEyH1/SjOGzugd49Tfwj483J03OZWeFSVzE/t5lBEROQNFhVd9/PON2fOHE4++eTBN2TbxC9JEmvN0XFrpUFARERk6NTsN+4dSCtCNWAfECW2m4/bZrAmR4iNM7h/0u5dERGRXZ2CUA3YjTbhoyLERliQ9Snfnyc7RI/YEBERkdpREKoBd26errnDPQoRERGplp5NICIiIoGlICQiIiKBpSAkIiIigaUgJCIiIoGlICQiIiKBpSAkIiIigaUgJCIiIoGlICQiIiKBpRsq9jNnzpzhHoKIiIjsRHroqoiIiASWTo2JiIhIYCkIiYiISGApCImIiEhgKQiJiIhIYCkIiYiISGApCImIiEhgKQiJiIhIYCkIiYiISGApCImIiEhgKQiJiIhIYCkIiYiISGDpoauyXU2her4WS7K/7RDDZ61X4J5CO7/3qmgkahOaZsNyF7dnyIYqIiJSFQUh2SbLquP8RAP7eJ1cmyuwDpsRls0Gv8qGxkRIfjVE6YqMgpCIiOwyFIRkm2w7zCTLZV6hm4c8M9zDERERqSkL0K+bDCDG+akWPvmWXWSGRYU2vlx0qWhRyHGou7qOWNNb3/IfzdFxqzv4oYqIiOwgBSHZCotGO0Sjk+aqRIxnc+u4u29PUMG4vG4q/9rYzTbWxCjpLzmU/ydHflXfGzmD16Wvn4iIDB+dGpOtMHT4ZbotHxdDt1+mtdp9QX38dT4kDQbw2328NTUdqIiIyA7T5fMiIiISWApCspPoFJiIiOx6FIRk5yiDwcJKDPdARERENtEeIdk51nt4eYvIzCiu5eE7Fk7Yo/DMDm6bHkbgAAABZklEQVQ8EhERqQGtCMnOUXDJ/aKE1xih7vwEqS9GiUy0sazhHpiIiASZLp8XERGRwNKKkIiIiASWgpCIiIgEloKQVOSJ+gk1aafptnRN2hEREakFBSEREREJLAUhERERCSwFIREREQksBSEREREJLAUhERERCSwFIREREQksBSEREREJLAUhERERCSwFIREREQksBSEREREJLAUhERERCSwFIREREQksBSEREREJLAUhERERCSwFIREREQksBSEREREJLAUhERERCSwFIREREQksBSEREREJLAUhERERCSwFIREREQksBSEREREJLAUhERERCSwFIREREQksBSEREREJLAUhERERCSwFIREREQksBSEREREJLAUhERERCSwFIREREQksBSEREREJLAUhERERCSwFIREREQksBSEREREJLAUhERERCSwFIREREQksBSEREREJLAUhERERCSwFIREREQms/wdQL1CgSQuvxAAAAABJRU5ErkJggg==;fontFamily=Georgia;" vertex="1" parent="1">
                    <mxGeometry x="120" y="10" width="578" height="711" as="geometry"/>
                </mxCell>
                <mxCell id="3" value="" style="shape=curlyBracket;whiteSpace=wrap;html=1;rounded=1;strokeWidth=3;strokeColor=#FF8000;fontFamily=Georgia;" vertex="1" parent="1">
                    <mxGeometry x="160" y="206" width="20" height="134" as="geometry"/>
                </mxCell>
                <mxCell id="4" value="" style="shape=curlyBracket;whiteSpace=wrap;html=1;rounded=1;strokeWidth=3;strokeColor=#FFFF00;fontFamily=Georgia;" vertex="1" parent="1">
                    <mxGeometry x="160" y="350" width="20" height="130" as="geometry"/>
                </mxCell>
                <mxCell id="5" value="&lt;font color=&quot;#ff8000&quot;&gt;&lt;b&gt;COV&lt;/b&gt;&lt;/font&gt;" style="text;html=1;align=center;verticalAlign=middle;resizable=0;points=[];autosize=1;strokeColor=none;fontFamily=Georgia;" vertex="1" parent="1">
                    <mxGeometry x="120" y="262" width="40" height="20" as="geometry"/>
                </mxCell>
                <mxCell id="6" value="&lt;font color=&quot;#ffff00&quot;&gt;&lt;b&gt;ERU&lt;/b&gt;&lt;/font&gt;" style="text;html=1;align=center;verticalAlign=middle;resizable=0;points=[];autosize=1;strokeColor=none;strokeWidth=1;fontFamily=Georgia;" vertex="1" parent="1">
                    <mxGeometry x="120" y="404" width="40" height="20" as="geometry"/>
                </mxCell>
                <mxCell id="9" value="" style="shape=curlyBracket;whiteSpace=wrap;html=1;rounded=1;strokeWidth=3;strokeColor=#00FFFF;fontFamily=Georgia;" vertex="1" parent="1">
                    <mxGeometry x="160" y="490" width="20" height="150" as="geometry"/>
                </mxCell>
                <mxCell id="10" value="&lt;b&gt;&lt;font color=&quot;#00ffff&quot;&gt;Program&lt;br&gt;Specific&lt;/font&gt;&lt;/b&gt;" style="text;html=1;align=center;verticalAlign=middle;resizable=0;points=[];autosize=1;strokeColor=none;rotation=270;fontFamily=Georgia;" vertex="1" parent="1">
                    <mxGeometry x="110" y="550" width="60" height="30" as="geometry"/>
                </mxCell>
                <mxCell id="11" value="&lt;font color=&quot;#ff8000&quot;&gt;&lt;b&gt;locate&lt;/b&gt;&lt;/font&gt;" style="text;html=1;align=center;verticalAlign=middle;resizable=0;points=[];autosize=1;strokeColor=none;fontFamily=Georgia;" vertex="1" parent="1">
                    <mxGeometry x="115" y="141.5" width="50" height="20" as="geometry"/>
                </mxCell>
                <mxCell id="12" value="" style="shape=curlyBracket;whiteSpace=wrap;html=1;rounded=1;strokeWidth=3;strokeColor=#FF8000;fontFamily=Georgia;" vertex="1" parent="1">
                    <mxGeometry x="160" y="110" width="20" height="87" as="geometry"/>
                </mxCell>
                <mxCell id="13" value="" style="shape=curlyBracket;whiteSpace=wrap;html=1;rounded=1;flipH=1;strokeWidth=2;strokeColor=#FFFF00;fontFamily=Georgia;" vertex="1" parent="1">
                    <mxGeometry x="520" y="360" width="20" height="50" as="geometry"/>
                </mxCell>
                <mxCell id="14" value="" style="shape=curlyBracket;whiteSpace=wrap;html=1;rounded=1;flipH=1;strokeWidth=2;strokeColor=#FFFF00;fontFamily=Georgia;" vertex="1" parent="1">
                    <mxGeometry x="520" y="453" width="20" height="27" as="geometry"/>
                </mxCell>
                <mxCell id="15" value="" style="endArrow=classic;html=1;strokeColor=#FFFF00;strokeWidth=2;fontFamily=Georgia;" edge="1" parent="1">
                    <mxGeometry width="50" height="50" relative="1" as="geometry">
                        <mxPoint x="350" y="439" as="sourcePoint"/>
                        <mxPoint x="400" y="439" as="targetPoint"/>
                    </mxGeometry>
                </mxCell>
                <mxCell id="16" value="&lt;font color=&quot;#ffff00&quot;&gt;Load&lt;/font&gt;" style="text;html=1;align=center;verticalAlign=middle;resizable=0;points=[];autosize=1;strokeColor=none;fontFamily=Georgia;" vertex="1" parent="1">
                    <mxGeometry x="547" y="375" width="40" height="20" as="geometry"/>
                </mxCell>
                <mxCell id="17" value="&lt;font color=&quot;#ffff00&quot;&gt;Add ERU&lt;/font&gt;" style="text;html=1;align=center;verticalAlign=middle;resizable=0;points=[];autosize=1;strokeColor=none;fontFamily=Georgia;" vertex="1" parent="1">
                    <mxGeometry x="414" y="428" width="60" height="20" as="geometry"/>
                </mxCell>
                <mxCell id="18" value="&lt;font color=&quot;#ffff00&quot;&gt;Store&lt;/font&gt;" style="text;html=1;align=center;verticalAlign=middle;resizable=0;points=[];autosize=1;strokeColor=none;fontFamily=Georgia;" vertex="1" parent="1">
                    <mxGeometry x="547" y="456.5" width="40" height="20" as="geometry"/>
                </mxCell>
            </root>
        </mxGraphModel>
    </diagram>
</mxfile>